<svg width="170" height="160" viewBox="0 0 170 160" fill="none" xmlns="http://www.w3.org/2000/svg">
<g clip-path="url(#clip0_217_141)">
<path d="M28.7409 26.713C16.2029 36.9083 8.10967 51.8527 3.86551 67.3229C1.68098 75.289 0.44438 83.5953 0.0819981 91.848C-0.323378 101.086 0.735104 110.356 4.39782 118.887C8.08101 127.467 14.8864 133.967 22.1197 139.564C29.0009 144.886 36.5474 149.073 44.5485 152.422C59.7828 158.8 76.9171 161.396 93.3103 159.27C108.717 157.272 123.689 151.772 136.333 142.585C149.158 133.268 159.325 120.862 165.056 105.953C170.446 91.9284 171.335 76.1736 168.182 61.5179C164.98 46.6354 157.032 32.7572 145.27 23.1042C138.444 17.5035 130.869 13.0905 122.78 9.61574C114.093 5.88738 105.126 2.96119 95.7876 1.42489C78.2029 -1.4683 59.2116 -0.373304 43.3979 8.60529C39.7229 10.6922 36.2792 13.2637 33.1959 16.1589C30.952 18.2665 30.9233 22.3907 33.1959 24.49C35.5974 26.7109 39.0759 26.7378 41.4672 24.49C42.0323 23.96 42.6055 23.4424 43.1952 22.9393C43.5719 22.6196 45.3429 21.304 43.8094 22.4072C44.9252 21.603 46.0246 20.7885 47.1855 20.0502C48.3463 19.312 49.5338 18.6253 50.7479 17.9881C51.3805 17.6561 52.0193 17.3364 52.6662 17.0292C53.0143 16.8642 53.3644 16.7013 53.7165 16.5446C54.0973 16.3734 55.162 15.9548 53.5323 16.6105C58.8103 14.4865 64.244 13.0245 69.8783 12.2409L68.3223 12.4512C76.0491 11.4119 83.8925 11.5624 91.609 12.6038L90.053 12.3935C97.5135 13.4307 104.841 15.3011 111.925 17.8726C113.712 18.5222 115.473 19.2295 117.234 19.9471C117.84 20.1925 116.693 19.7141 116.712 19.7223C116.924 19.8192 117.144 19.9079 117.359 20.0007C117.735 20.1636 118.11 20.3307 118.487 20.4977C119.291 20.8565 120.09 21.2256 120.886 21.603C124.068 23.1166 127.178 24.787 130.171 26.647C131.665 27.575 133.129 28.5504 134.558 29.5773C135.213 30.0475 135.844 30.6311 136.532 31.0456C136.446 30.994 135.418 30.1609 136.178 30.7734C136.315 30.8827 136.452 30.992 136.589 31.1033C136.999 31.4353 137.406 31.7694 137.807 32.1117C140.217 34.1532 142.482 36.3659 144.547 38.7621C144.994 39.2797 145.43 39.8035 145.858 40.3356C146.071 40.6016 146.277 40.8717 146.49 41.1377C145.254 39.5891 146.279 40.8697 146.542 41.2285C147.373 42.3647 148.165 43.5319 148.916 44.7259C150.468 47.1922 151.844 49.7719 153.042 52.4321C153.202 52.7868 153.355 53.1456 153.511 53.5024C153.666 53.8591 153.902 54.5231 153.261 52.9023C153.333 53.0838 153.408 53.2632 153.482 53.4446C153.791 54.2138 154.086 54.9871 154.366 55.7687C154.913 57.2844 155.404 58.8227 155.841 60.3734C156.746 63.5842 157.413 66.8589 157.865 70.1666L157.657 68.5994C158.529 75.159 158.523 81.8074 157.646 88.3671L157.855 86.7999C157.419 89.9797 156.786 93.1286 155.939 96.2218C155.509 97.7911 155.026 99.3439 154.487 100.878C154.244 101.575 153.988 102.268 153.722 102.957C153.58 103.324 153.435 103.691 153.285 104.054C153.193 104.283 152.917 104.943 153.298 104.033C153.705 103.06 153.343 103.922 153.245 104.145C151.947 107.129 150.425 110.009 148.716 112.775C147.827 114.21 146.89 115.614 145.905 116.986C145.696 117.276 145.485 117.565 145.272 117.852C145.151 118.017 145.026 118.178 144.906 118.342C144.476 118.92 145.706 117.313 145.262 117.881C144.728 118.563 144.189 119.242 143.634 119.91C141.515 122.459 139.23 124.865 136.806 127.117C135.611 128.228 134.382 129.301 133.121 130.338C132.806 130.598 132.488 130.854 132.169 131.109C132.009 131.237 131.85 131.363 131.688 131.489C131.125 131.936 132.72 130.697 132.147 131.13C131.455 131.654 130.76 132.175 130.054 132.683C127.352 134.623 124.535 136.401 121.625 138.011C120.19 138.805 118.732 139.56 117.254 140.271C116.515 140.628 115.77 140.975 115.02 141.309C114.693 141.455 114.363 141.597 114.034 141.744C113.168 142.125 114.556 141.535 114.58 141.513C114.41 141.659 113.935 141.781 113.727 141.867C106.78 144.709 99.4851 146.65 92.0553 147.658L93.6113 147.448C85.7904 148.483 77.8753 148.423 70.0565 147.386L71.6124 147.596C66.1296 146.848 60.7164 145.631 55.4424 143.94C52.914 143.13 50.4326 142.197 47.9737 141.195C46.8006 140.717 49.2553 141.758 48.0965 141.249C47.7792 141.109 47.4619 140.972 47.1466 140.83C46.5139 140.548 45.8854 140.259 45.2589 139.962C44.008 139.37 42.7693 138.752 41.543 138.104C39.0943 136.811 36.701 135.409 34.3752 133.901C33.3085 133.211 32.2582 132.499 31.2202 131.763C30.6551 131.363 30.0942 130.955 29.5373 130.542C29.3059 130.369 29.0746 130.196 28.8453 130.022C28.5095 129.769 27.5186 128.829 28.7941 129.992C26.7181 128.099 24.4639 126.443 22.4616 124.453C21.5485 123.545 20.6661 122.607 19.8226 121.634C19.3845 121.128 18.9873 120.446 18.4857 120.011L18.9729 120.648C18.8317 120.462 18.6924 120.275 18.5553 120.085C18.2809 119.708 18.0107 119.326 17.7507 118.938C16.901 117.678 16.1292 116.363 15.4494 115.002C15.1362 114.377 14.87 113.729 14.565 113.101C15.3225 114.662 14.7697 113.585 14.6264 113.216C14.4585 112.783 14.2988 112.346 14.1453 111.907C13.1093 108.921 12.4398 105.825 12.016 102.695L12.2249 104.262C11.2974 97.057 11.6639 89.7261 12.6057 82.5436L12.3968 84.1108C13.4226 76.4623 15.2365 68.9107 18.0107 61.7097C18.1847 61.2581 18.3608 60.8106 18.543 60.3631C18.6208 60.1714 18.6884 59.9445 18.7866 59.7672C18.758 59.8167 18.1908 61.1632 18.5717 60.2848C18.9525 59.4063 19.3435 58.5216 19.753 57.6493C20.5678 55.913 21.4441 54.2076 22.3859 52.5373C23.3277 50.8669 24.3227 49.2482 25.3873 47.6665C25.8889 46.9221 26.4048 46.1859 26.9351 45.46C27.0559 45.295 27.9977 44.0495 27.3323 44.9156C26.6669 45.7817 27.3466 44.9011 27.4572 44.7609C27.621 44.5547 27.7847 44.3485 27.9506 44.1423C30.651 40.8037 33.6832 37.7517 37.0101 35.0482C38.1034 34.1594 38.7238 32.2334 38.7238 30.8827C38.7238 29.4371 38.087 27.7111 37.0101 26.7171C35.9332 25.7232 34.4325 24.921 32.8745 24.9911C31.2325 25.0654 30.0102 25.6819 28.7388 26.7171L28.7409 26.713Z" fill="#008D47"/>
<path d="M90.2249 125.389C91.398 108.366 92.5691 91.3429 93.7422 74.3198C94.0759 69.4655 94.4117 64.6112 94.7454 59.759C94.9583 56.6782 91.9037 53.7314 88.8961 53.8675C85.5446 54.018 83.2741 56.4575 83.0468 59.759C81.8737 76.782 80.7026 93.8051 79.5295 110.828C79.1958 115.682 78.86 120.537 78.5263 125.389C78.3133 128.47 81.368 131.417 84.3756 131.28C87.7271 131.13 89.9976 128.69 90.2249 125.389Z" fill="#008D47"/>
<path d="M88.3392 38.7807C91.3979 38.7807 94.3297 36.0711 94.1885 32.8892C94.0472 29.7073 91.619 26.9976 88.3392 26.9976C85.2804 26.9976 82.3486 29.7073 82.4899 32.8892C82.6312 36.0711 85.0593 38.7807 88.3392 38.7807Z" fill="#008D47"/>
</g>
<defs>
<clipPath id="clip0_217_141">
<rect width="170" height="160" fill="white"/>
</clipPath>
</defs>
</svg>
