<svg width="150" height="130" viewBox="0 0 150 130" fill="none" xmlns="http://www.w3.org/2000/svg">
<path d="M47.3705 124.686C47.3163 108.775 47.2621 92.8632 47.2097 76.9529C47.1947 72.4339 47.1798 67.9149 47.163 63.394C47.1536 60.6971 44.7169 57.8534 41.8202 58.0875C37.0666 58.4701 32.341 59.0589 27.6079 59.6328C24.1857 60.047 20.7673 60.3163 17.3189 60.177C14.7401 60.073 12.1726 59.7962 9.6162 59.4563L11.0374 59.6458C9.59376 59.4508 8.15383 59.2353 6.71576 59.0069L7.99113 68.7061C18.095 62.547 27.1161 54.8835 35.1666 46.2634C42.3981 38.5199 48.9732 30.2007 56.2383 22.4889C60.7283 17.7228 65.4707 13.202 70.5366 9.04143L64.0625 9.87168C74.8471 16.3632 85.123 23.6089 95.1726 31.1647C104.637 38.2803 113.959 45.5854 123.652 52.3946C129.628 56.5941 135.739 60.6042 142.002 64.3728C142.902 61.076 143.799 57.781 144.699 54.4841C132.014 54.6569 119.328 54.8278 106.643 55.0005C102.548 55.0562 98.4527 55.1119 94.3573 55.1677C92.6537 55.1899 91.1913 55.9366 90.1609 57.2591C89.2277 58.4589 88.5695 60.3795 89.2053 61.8858C93.0744 71.0575 95.7561 80.6862 97.1062 90.5433L96.9155 89.1317C98.2002 98.7381 98.2077 108.473 96.9136 118.077L97.1044 116.666C96.8257 118.681 96.4947 120.689 96.1095 122.687C98.2993 121.452 100.491 120.217 102.681 118.982C94.9108 116.677 86.6714 115.676 78.5722 115.967C80.3525 117.735 82.1347 119.505 83.9149 121.274C83.698 110.566 83.483 99.8581 83.266 89.1503C83.1931 85.5674 79.9205 83.2903 76.5021 84.0332C70.6451 85.3055 64.7881 86.5797 58.933 87.852C56.199 88.4464 54.3458 91.7544 55.2023 94.3788C56.1336 97.2336 58.8451 98.7214 61.7736 98.0843C67.6306 96.812 73.4876 95.5378 79.3427 94.2655C77.0874 92.5605 74.834 90.8535 72.5787 89.1484C72.7957 99.8563 73.0107 110.564 73.2276 121.272C73.2837 124.062 75.6306 126.684 78.5704 126.578C82.604 126.434 86.6359 126.621 90.6396 127.139L89.2184 126.95C92.8145 127.435 96.3601 128.181 99.8384 129.214C102.443 129.987 105.875 128.287 106.41 125.509C109.778 108.062 109.125 90.04 104.351 72.9056C103.038 68.1935 101.409 63.5742 99.5074 59.0644C97.7907 61.3044 96.0721 63.5426 94.3554 65.7826C107.04 65.6098 119.726 65.439 132.411 65.2662C136.506 65.2105 140.602 65.1548 144.697 65.0991C146.958 65.0675 149.327 63.4813 149.849 61.2041C150.371 58.927 149.486 56.4715 147.394 55.2122C136.609 48.7207 126.333 41.475 116.284 33.9192C106.819 26.8036 97.4971 19.4985 87.8046 12.6893C81.828 8.48978 75.7167 4.4797 69.4539 0.711071C67.2715 -0.602098 64.8106 0.036841 62.9798 1.54132C54.3308 8.64766 46.7759 16.8369 39.4864 25.2842C32.586 33.2803 25.7472 41.3543 17.807 48.3715C16.6382 49.4061 15.4489 50.4165 14.2371 51.4027C13.6387 51.8912 13.0346 52.3723 12.4269 52.8478C12.2623 52.9759 12.0978 53.1022 11.9332 53.2304C11.3965 53.6483 12.8158 52.5655 12.2679 52.9722C11.9294 53.2248 11.5947 53.4811 11.2562 53.7319C8.46238 55.8029 5.56943 57.7364 2.59979 59.5474C0.757801 60.6692 -0.238933 62.7086 0.0490543 64.8353C0.30525 66.7243 1.81999 68.9216 3.87517 69.2466C9.26276 70.101 14.7345 70.9164 20.2063 70.8328C24.139 70.7734 28.0361 70.1883 31.9333 69.7128C35.2227 69.3116 38.5177 68.9717 41.8221 68.7061C40.0418 66.9379 38.2597 65.1678 36.4794 63.3996C36.5336 79.3099 36.5879 95.2221 36.6402 111.132C36.6552 115.651 36.6701 120.17 36.687 124.691C36.6963 127.466 39.1386 130.126 42.0297 129.998C44.9208 129.87 47.3817 127.667 47.3724 124.691L47.3705 124.686Z" fill="#008D47"/>
</svg>
