<svg width="157" height="115" viewBox="0 0 157 115" fill="none" xmlns="http://www.w3.org/2000/svg">
<g clip-path="url(#clip0_217_126)">
<path d="M123.993 45.8334C115.717 45.4014 107.239 46.043 99.1608 47.9018C95.1336 48.8284 91.3607 50.4041 88.1727 53.0461C85.2817 55.4417 83.4102 58.8909 82.2274 62.3786C81.1134 65.6623 80.7086 69.1794 80.3985 72.612C80.1052 75.8589 79.8712 79.1297 79.8879 82.3913C79.9269 89.9735 81.6481 97.666 87.1366 103.266C92.38 108.615 99.976 111.255 107.137 112.933C115.277 114.842 123.874 115.632 132.177 114.434C138.953 113.456 145.386 110.218 149.692 104.871C153.897 99.648 156.144 93.5238 156.829 86.9068C158.237 73.3033 150.802 60.2073 139.76 52.4982C138.485 51.6065 137.148 50.8086 135.763 50.0952C133.304 48.8247 129.886 49.3892 128.505 51.9797C127.216 54.3956 127.781 57.8098 130.408 59.1666C131.624 59.7954 132.805 60.4849 133.939 61.2497C134.212 61.4336 134.483 61.623 134.753 61.8142C135.089 62.055 136.05 62.9559 134.81 61.8381C135.298 62.2775 135.839 62.6636 136.335 63.0975C137.326 63.9653 138.271 64.8882 139.159 65.859C139.602 66.3444 140.033 66.8426 140.451 67.3519C140.57 67.4971 140.689 67.6442 140.804 67.7913L140.321 67.1736C140.568 67.4512 140.776 67.7784 140.991 68.08C141.756 69.15 142.462 70.2605 143.102 71.4078C143.422 71.9814 143.726 72.5642 144.012 73.1544C144.176 73.4927 144.328 73.8347 144.486 74.1748C144.929 75.1382 144.01 72.965 144.391 73.956C145.278 76.2652 145.951 78.5928 146.296 81.0455L146.107 79.6482C146.463 82.3435 146.465 85.0627 146.12 87.7599L146.309 86.3626C145.964 88.9035 145.247 91.2624 144.376 93.6654C145.039 91.8341 144.332 93.7279 144.111 94.1691C143.825 94.7409 143.518 95.3035 143.19 95.8532C142.904 96.3313 142.603 96.8019 142.284 97.2597C142.102 97.5208 141.912 97.7764 141.725 98.0319C141.203 98.7435 142.655 96.8957 141.814 97.8995C141.051 98.8096 140.215 99.6609 139.313 100.437C139.071 100.645 138.815 100.834 138.576 101.042C139.918 99.8834 139.047 100.681 138.687 100.931C138.225 101.253 137.749 101.555 137.263 101.836C136.648 102.193 136.011 102.496 135.373 102.803C134.853 103.031 134.972 102.983 135.729 102.66C135.525 102.74 135.321 102.82 135.115 102.895C134.806 103.007 134.495 103.114 134.181 103.215C132.502 103.755 130.774 104.105 129.028 104.344L130.439 104.156C125.475 104.787 120.394 104.524 115.446 103.875L116.857 104.062C113.148 103.559 109.481 102.785 105.893 101.718C104.352 101.26 102.841 100.733 101.343 100.155C100.828 99.9459 100.979 100.01 101.794 100.347C101.614 100.269 101.433 100.19 101.253 100.111C100.895 99.9514 100.54 99.7859 100.188 99.6149C99.5303 99.295 98.8842 98.953 98.2529 98.5853C97.6216 98.2176 97.0126 97.8315 96.4203 97.416C96.2625 97.3057 96.1065 97.1935 95.9524 97.0777C96.6413 97.6109 96.7712 97.7102 96.3423 97.3719C96.049 97.1255 95.7519 96.8828 95.4678 96.6273C94.8996 96.1143 94.3593 95.5664 93.8599 94.9873C93.7336 94.842 93.6111 94.6931 93.4904 94.5442C94.0177 95.2318 94.1179 95.355 93.7893 94.9156C93.5702 94.5957 93.3455 94.2813 93.1376 93.954C92.7273 93.3032 92.3856 92.6247 92.0421 91.9389C91.8156 91.437 91.8787 91.5951 92.2315 92.4096C92.1591 92.2331 92.0885 92.0566 92.0198 91.8801C91.8843 91.5234 91.758 91.1649 91.6411 90.8027C91.1695 89.3337 90.8594 87.8243 90.6459 86.2982L90.8352 87.6956C90.436 84.6491 90.4398 81.5732 90.5901 78.5101C90.7405 75.4471 90.9392 72.6194 91.3273 69.6997L91.1379 71.097C91.4591 68.7805 91.9251 66.4694 92.7792 64.2833C93.2211 63.1508 92.2761 65.3037 92.718 64.4286C92.8387 64.1896 92.9482 63.9487 93.0726 63.7116C93.3195 63.2409 93.5888 62.7831 93.8821 62.34C93.9898 62.1782 94.7084 61.2185 94.0901 62.009C93.4718 62.7996 94.1365 61.9741 94.2739 61.8215C94.675 61.3729 95.115 60.9795 95.5569 60.5713C96.3405 59.8432 94.5376 61.2405 95.4325 60.6595C95.6832 60.4959 95.9264 60.3231 96.1826 60.1668C96.7359 59.8267 97.3115 59.5215 97.902 59.2494C99.0699 58.707 96.9123 59.5932 97.8853 59.2494C98.1712 59.1483 98.4534 59.0379 98.7412 58.9387C99.3187 58.7419 99.9035 58.5654 100.494 58.4055C103.316 57.6388 106.233 57.17 109.13 56.782L107.719 56.9696C113.114 56.2709 118.556 56.0595 123.989 56.3426C126.765 56.4879 129.418 53.8238 129.294 51.0899C129.16 48.1206 126.962 45.9915 123.989 45.8371L123.993 45.8334Z" fill="#010101"/>
<path d="M114.262 65.8958C114.236 69.4111 114.21 72.9246 114.182 76.4399C114.169 78.2582 114.154 80.0747 114.141 81.8931C114.126 84.0773 114.299 86.2045 115.296 88.1883C117.037 91.6448 121.223 93.3363 124.437 95.1785C127.496 96.9325 130.555 98.6846 133.614 100.439C136.017 101.816 139.53 101.069 140.872 98.5541C142.215 96.0389 141.535 92.838 138.969 91.3672C135.909 89.6132 132.851 87.861 129.791 86.107C128.315 85.2613 126.834 84.4192 125.361 83.568C125.014 83.3676 124.676 83.1506 124.333 82.9466C123.445 82.4207 125.151 83.6949 124.472 83.033C124.101 82.6322 124.188 82.759 124.739 83.4172C124.47 82.93 124.518 83.0808 124.884 83.8658C124.942 83.625 124.663 82.9668 124.626 82.6947L124.815 84.092C124.524 81.1613 124.778 78.113 124.801 75.1713C124.825 72.0807 124.847 68.9901 124.871 65.8994C124.891 63.1508 122.416 60.5198 119.566 60.6467C116.675 60.7754 114.284 62.9541 114.262 65.8994V65.8958Z" fill="#010101"/>
<path d="M135.284 40.884C135.438 31.3015 135.375 21.7171 135.098 12.1363C135.001 8.78833 131.778 6.08749 128.382 7.07111C125.729 7.83963 123.027 8.40407 120.287 8.76994L121.698 8.58241C117.008 9.1781 112.275 9.17443 107.587 8.56586L108.998 8.7534C107.173 8.50519 105.364 8.16873 103.572 7.74403C100.878 7.10421 97.6978 8.58425 97.0479 11.412C96.398 14.2397 97.8667 17.1887 100.752 17.8726C110.754 20.2462 121.323 20.0605 131.204 17.1997C128.965 15.5119 126.728 13.8223 124.489 12.1345C124.765 21.7152 124.828 31.2996 124.674 40.8822C124.63 43.6309 127.146 46.26 129.979 46.135C132.812 46.0099 135.237 43.8276 135.284 40.8822V40.884Z" fill="#010101"/>
<path d="M93.767 27.7917C94.2237 20.2793 94.064 12.7431 93.2879 5.25646C93.1394 3.8279 92.7959 2.59239 91.7338 1.54258C90.8129 0.630651 89.3034 -0.0551317 87.9832 0.0037022C85.3522 0.119531 82.3759 2.32948 82.6785 5.25646C83.4547 12.7431 83.6143 20.2793 83.1576 27.7917C82.9905 30.5403 85.7162 33.1658 88.4623 33.0444C91.4795 32.9102 93.5869 30.7352 93.767 27.7917Z" fill="#010101"/>
<path d="M74.2694 10.4246H51.5374C48.7635 10.4246 46.1046 12.8405 46.2327 15.6774C46.3608 18.5143 48.5629 20.9301 51.5374 20.9301H74.2694C77.0434 20.9301 79.7022 18.5143 79.5741 15.6774C79.446 12.8405 77.2439 10.4246 74.2694 10.4246Z" fill="#010101"/>
<path d="M43.5888 28.6576C44.027 21.1434 43.871 13.6108 43.1227 6.12054C42.9798 4.69382 42.627 3.45279 41.5687 2.40665C40.6477 1.49473 39.1382 0.808943 37.8181 0.867777C35.1778 0.985445 32.22 3.19172 32.5134 6.12054C33.2616 13.6108 33.4176 21.1434 32.9794 28.6576C32.8197 31.4062 35.5343 34.0317 38.2841 33.9104C41.2957 33.7761 43.418 31.6011 43.5888 28.6576Z" fill="#010101"/>
<path d="M22.8639 9.65614C17.2213 9.75358 11.5768 9.85286 5.93415 9.95031C3.05064 9.99995 0.651741 12.3165 0.62946 15.2031C0.466068 36.5064 0.302675 57.8098 0.139282 79.1132C0.0928637 85.1124 0.0464453 91.1116 2.68779e-05 97.1109C-0.0222539 100.106 2.45834 102.152 5.30472 102.364C23.484 103.717 41.6633 105.07 59.8408 106.423C64.9988 106.807 70.1586 107.192 75.3167 107.576C78.0906 107.782 80.7439 105.013 80.6213 102.323C80.4839 99.3006 78.2874 97.291 75.3167 97.0704C57.1374 95.7172 38.9581 94.3641 20.7806 93.0109C15.6226 92.6266 10.4627 92.2424 5.30472 91.8581C7.07233 93.6084 8.8418 95.3605 10.6094 97.1109C10.7728 75.8075 10.9362 54.5041 11.0996 33.2007C11.146 27.2015 11.1924 21.2023 11.237 15.2031C9.46938 16.9534 7.69991 18.7055 5.9323 20.4558C11.5749 20.3584 17.2194 20.2591 22.862 20.1617C25.6341 20.1139 28.2967 17.7807 28.1667 14.9089C28.0367 12.0371 25.8346 9.60466 22.862 9.65614H22.8639Z" fill="#010101"/>
<path d="M10.7134 49.6319C27.5224 49.3065 44.3426 49.5914 61.1293 50.5034C65.8622 50.7608 70.5913 51.0678 75.3185 51.4208C78.4471 51.6543 81.4383 48.5287 81.3009 45.497C81.1468 42.0864 78.6681 39.8232 75.3185 39.5731C58.5559 38.3174 41.7487 37.6721 24.9397 37.6518C20.1976 37.6463 15.4555 37.6904 10.7134 37.7824C7.58665 37.843 4.58431 40.463 4.73099 43.7062C4.87768 46.9494 7.36199 49.6962 10.7134 49.63V49.6319Z" fill="#010101"/>
<path d="M25.3408 67.738C36.9936 67.2269 48.6762 67.7435 60.2381 69.2806L58.827 69.093C59.4286 69.1739 60.0301 69.2567 60.6317 69.3431C62.1041 69.5527 63.3816 69.5895 64.7184 68.8136C65.8195 68.1756 66.8685 66.9272 67.1563 65.6752C67.4664 64.3312 67.3995 62.8217 66.6216 61.6285C65.9271 60.5621 64.7797 59.4038 63.4521 59.2145C50.8207 57.4145 38.0965 56.6736 25.3408 57.2343C22.5724 57.3557 19.9042 59.5638 20.0361 62.4871C20.1605 65.2284 22.3718 67.8704 25.3408 67.7399V67.738Z" fill="#010101"/>
<path d="M27.0991 86.8866C38.1931 86.0887 49.3465 86.416 60.3736 87.8592L58.9625 87.6717C60.3996 87.8629 61.8349 88.0725 63.2664 88.2986C64.698 88.5248 66.0348 88.534 67.3531 87.7691C68.4542 87.1312 69.5032 85.8828 69.791 84.6307C70.3703 82.11 69.0167 78.6333 66.0868 78.17C53.1862 76.1292 40.1334 75.4453 27.0972 76.3829C24.3363 76.5815 21.657 78.6572 21.7925 81.6357C21.9132 84.3108 24.1339 87.1017 27.0972 86.8885L27.0991 86.8866Z" fill="#010101"/>
</g>
<defs>
<clipPath id="clip0_217_126">
<rect width="157" height="115" fill="white"/>
</clipPath>
</defs>
</svg>
