<svg width="157" height="115" viewBox="0 0 157 115" fill="none" xmlns="http://www.w3.org/2000/svg">
<g clip-path="url(#clip0_219_156)">
<path d="M123.993 45.8335C115.717 45.4014 107.239 46.0431 99.1608 47.9019C95.1336 48.8285 91.3607 50.4041 88.1727 53.0461C85.2817 55.4418 83.4102 58.8909 82.2274 62.3787C81.1134 65.6623 80.7086 69.1795 80.3985 72.6121C80.1052 75.859 79.8712 79.1298 79.8879 82.3914C79.9269 89.9736 81.6481 97.6661 87.1366 103.266C92.38 108.615 99.976 111.255 107.137 112.934C115.277 114.842 123.874 115.632 132.177 114.434C138.953 113.456 145.386 110.218 149.692 104.871C153.897 99.6481 156.144 93.5238 156.829 86.9069C158.237 73.3034 150.802 60.2073 139.76 52.4983C138.485 51.6065 137.148 50.8086 135.763 50.0953C133.304 48.8248 129.886 49.3892 128.505 51.9798C127.216 54.3956 127.781 57.8098 130.408 59.1667C131.624 59.7955 132.805 60.485 133.939 61.2498C134.212 61.4336 134.483 61.623 134.753 61.8142C135.089 62.0551 136.05 62.956 134.81 61.8381C135.298 62.2775 135.839 62.6636 136.335 63.0975C137.326 63.9653 138.271 64.8883 139.159 65.8591C139.602 66.3444 140.033 66.8427 140.451 67.352C140.57 67.4972 140.689 67.6443 140.804 67.7914L140.321 67.1736C140.568 67.4512 140.776 67.7785 140.991 68.08C141.756 69.1501 142.462 70.2606 143.102 71.4078C143.422 71.9815 143.726 72.5643 144.012 73.1545C144.176 73.4928 144.328 73.8347 144.486 74.1749C144.929 75.1383 144.01 72.9651 144.391 73.9561C145.278 76.2653 145.951 78.5929 146.296 81.0455L146.107 79.6482C146.463 82.3436 146.465 85.0628 146.12 87.76L146.309 86.3627C145.964 88.9035 145.247 91.2624 144.376 93.6654C145.039 91.8342 144.332 93.7279 144.111 94.1692C143.825 94.741 143.518 95.3036 143.19 95.8533C142.904 96.3313 142.603 96.802 142.284 97.2598C142.102 97.5209 141.912 97.7764 141.725 98.032C141.203 98.7435 142.655 96.8958 141.814 97.8996C141.051 98.8097 140.215 99.661 139.313 100.437C139.071 100.645 138.815 100.834 138.576 101.042C139.918 99.8834 139.047 100.681 138.687 100.931C138.225 101.253 137.749 101.555 137.263 101.836C136.648 102.193 136.011 102.496 135.373 102.803C134.853 103.031 134.972 102.983 135.729 102.66C135.525 102.741 135.321 102.82 135.115 102.895C134.806 103.007 134.495 103.114 134.181 103.215C132.502 103.755 130.774 104.105 129.028 104.344L130.439 104.156C125.475 104.787 120.394 104.524 115.446 103.875L116.857 104.062C113.148 103.559 109.481 102.785 105.893 101.718C104.352 101.26 102.841 100.733 101.343 100.156C100.828 99.9459 100.979 100.01 101.794 100.347C101.614 100.27 101.433 100.19 101.253 100.111C100.895 99.9514 100.54 99.786 100.188 99.615C99.5303 99.2951 98.8842 98.9531 98.2529 98.5854C97.6216 98.2177 97.0126 97.8316 96.4203 97.4161C96.2625 97.3058 96.1065 97.1936 95.9524 97.0778C96.6413 97.611 96.7712 97.7102 96.3423 97.3719C96.049 97.1256 95.7519 96.8829 95.4678 96.6273C94.8996 96.1144 94.3593 95.5665 93.8599 94.9873C93.7336 94.8421 93.6111 94.6932 93.4904 94.5442C94.0177 95.2319 94.1179 95.355 93.7893 94.9156C93.5702 94.5957 93.3455 94.2813 93.1376 93.9541C92.7273 93.3032 92.3856 92.6248 92.0421 91.939C91.8156 91.4371 91.8787 91.5952 92.2315 92.4097C92.1591 92.2332 92.0885 92.0567 92.0198 91.8802C91.8843 91.5235 91.758 91.165 91.6411 90.8028C91.1695 89.3338 90.8594 87.8243 90.6459 86.2983L90.8352 87.6956C90.436 84.6491 90.4398 81.5732 90.5901 78.5102C90.7405 75.4471 90.9392 72.6194 91.3273 69.6998L91.1379 71.0971C91.4591 68.7805 91.9251 66.4695 92.7792 64.2834C93.2211 63.1509 92.2761 65.3038 92.718 64.4287C92.8387 64.1896 92.9482 63.9488 93.0726 63.7116C93.3195 63.2409 93.5888 62.7831 93.8821 62.3401C93.9898 62.1783 94.7084 61.2185 94.0901 62.0091C93.4718 62.7997 94.1365 61.9742 94.2739 61.8216C94.675 61.373 95.115 60.9795 95.5569 60.5714C96.3405 59.8433 94.5376 61.2406 95.4325 60.6596C95.6832 60.496 95.9264 60.3232 96.1826 60.1669C96.7359 59.8267 97.3115 59.5215 97.902 59.2494C99.0699 58.7071 96.9123 59.5932 97.8853 59.2494C98.1712 59.1483 98.4534 59.038 98.7412 58.9387C99.3187 58.742 99.9035 58.5655 100.494 58.4055C103.316 57.6389 106.233 57.17 109.13 56.7821L107.719 56.9696C113.114 56.271 118.556 56.0595 123.989 56.3427C126.765 56.4879 129.418 53.8239 129.294 51.0899C129.16 48.1206 126.962 45.9916 123.989 45.8372L123.993 45.8335Z" fill="#010101"/>
<path d="M114.262 65.8958C114.236 69.4112 114.21 72.9246 114.182 76.44C114.169 78.2583 114.154 80.0748 114.141 81.8931C114.126 84.0773 114.299 86.2046 115.296 88.1884C117.037 91.6448 121.223 93.3363 124.437 95.1786C127.496 96.9325 130.555 98.6847 133.614 100.439C136.017 101.816 139.53 101.069 140.872 98.5541C142.215 96.039 141.535 92.8381 138.969 91.3672C135.909 89.6132 132.851 87.8611 129.791 86.1071C128.315 85.2614 126.834 84.4193 125.361 83.5681C125.014 83.3677 124.676 83.1507 124.333 82.9466C123.445 82.4208 125.151 83.6949 124.472 83.033C124.101 82.6322 124.188 82.7591 124.739 83.4173C124.47 82.9301 124.518 83.0808 124.884 83.8659C124.942 83.625 124.663 82.9668 124.626 82.6947L124.815 84.092C124.524 81.1614 124.778 78.1131 124.801 75.1714C124.825 72.0807 124.847 68.9901 124.871 65.8995C124.891 63.1509 122.416 60.5199 119.566 60.6467C116.675 60.7754 114.284 62.9541 114.262 65.8995V65.8958Z" fill="#010101"/>
<path d="M135.284 40.884C135.438 31.3014 135.375 21.717 135.098 12.1363C135.001 8.78827 131.778 6.08742 128.382 7.07105C125.729 7.83957 123.027 8.40401 120.287 8.76988L121.698 8.58235C117.008 9.17804 112.275 9.17436 107.587 8.5658L108.998 8.75333C107.173 8.50513 105.364 8.16867 103.572 7.74397C100.878 7.10415 97.6978 8.58419 97.0479 11.4119C96.398 14.2396 97.8667 17.1886 100.752 17.8726C110.754 20.2462 121.323 20.0605 131.204 17.1997C128.965 15.5119 126.728 13.8222 124.489 12.1344C124.765 21.7152 124.828 31.2996 124.674 40.8821C124.63 43.6308 127.146 46.2599 129.979 46.1349C132.812 46.0099 135.237 43.8275 135.284 40.8821V40.884Z" fill="#010101"/>
<path d="M93.767 27.7916C94.2237 20.2793 94.064 12.743 93.2879 5.2564C93.1394 3.82784 92.7959 2.59233 91.7338 1.54251C90.8129 0.63059 89.3034 -0.0551927 87.9832 0.00364117C85.3522 0.11947 82.3759 2.32942 82.6785 5.2564C83.4547 12.743 83.6143 20.2793 83.1576 27.7916C82.9905 30.5403 85.7162 33.1657 88.4623 33.0444C91.4795 32.9102 93.5869 30.7351 93.767 27.7916Z" fill="#010101"/>
<path d="M74.2694 10.4247H51.5374C48.7635 10.4247 46.1046 12.8405 46.2327 15.6774C46.3608 18.5143 48.5629 20.9302 51.5374 20.9302H74.2694C77.0434 20.9302 79.7022 18.5143 79.5741 15.6774C79.446 12.8405 77.2439 10.4247 74.2694 10.4247Z" fill="#010101"/>
<path d="M43.5888 28.6576C44.027 21.1434 43.871 13.6108 43.1227 6.12054C42.9798 4.69382 42.627 3.45279 41.5687 2.40665C40.6477 1.49473 39.1382 0.808943 37.8181 0.867777C35.1778 0.985445 32.22 3.19172 32.5134 6.12054C33.2616 13.6108 33.4176 21.1434 32.9794 28.6576C32.8197 31.4062 35.5343 34.0317 38.2841 33.9104C41.2957 33.7761 43.418 31.6011 43.5888 28.6576Z" fill="#010101"/>
<path d="M22.8639 9.65608C17.2213 9.75352 11.5768 9.8528 5.93415 9.95025C3.05064 9.99989 0.651741 12.3165 0.62946 15.203C0.466068 36.5064 0.302675 57.8098 0.139282 79.1131C0.0928637 85.1124 0.0464453 91.1116 2.68779e-05 97.1108C-0.0222539 100.106 2.45834 102.152 5.30472 102.364C23.484 103.717 41.6633 105.07 59.8408 106.423C64.9988 106.807 70.1586 107.192 75.3167 107.576C78.0906 107.782 80.7439 105.013 80.6213 102.323C80.4839 99.3005 78.2874 97.291 75.3167 97.0703C57.1374 95.7172 38.9581 94.364 20.7806 93.0108C15.6226 92.6266 10.4627 92.2423 5.30472 91.858C7.07233 93.6083 8.8418 95.3605 10.6094 97.1108C10.7728 75.8074 10.9362 54.504 11.0996 33.2007C11.146 27.2014 11.1924 21.2022 11.237 15.203C9.46938 16.9533 7.69991 18.7055 5.9323 20.4558C11.5749 20.3583 17.2194 20.259 22.862 20.1616C25.6341 20.1138 28.2967 17.7807 28.1667 14.9088C28.0367 12.037 25.8346 9.6046 22.862 9.65608H22.8639Z" fill="#010101"/>
<path d="M10.7134 49.6319C27.5224 49.3065 44.3426 49.5914 61.1293 50.5034C65.8622 50.7608 70.5913 51.0678 75.3185 51.4208C78.4471 51.6543 81.4383 48.5287 81.3009 45.497C81.1468 42.0864 78.6681 39.8232 75.3185 39.5731C58.5559 38.3174 41.7487 37.6721 24.9397 37.6518C20.1976 37.6463 15.4555 37.6904 10.7134 37.7824C7.58665 37.843 4.58431 40.463 4.73099 43.7062C4.87768 46.9494 7.36199 49.6962 10.7134 49.63V49.6319Z" fill="#010101"/>
<path d="M25.3408 67.738C36.9936 67.2269 48.6762 67.7435 60.2381 69.2806L58.827 69.093C59.4286 69.1739 60.0301 69.2567 60.6317 69.3431C62.1041 69.5527 63.3816 69.5895 64.7184 68.8136C65.8195 68.1756 66.8685 66.9272 67.1563 65.6752C67.4664 64.3312 67.3995 62.8217 66.6216 61.6285C65.9271 60.5621 64.7797 59.4038 63.4521 59.2145C50.8207 57.4145 38.0965 56.6736 25.3408 57.2343C22.5724 57.3557 19.9042 59.5638 20.0361 62.4871C20.1605 65.2284 22.3718 67.8704 25.3408 67.7399V67.738Z" fill="#010101"/>
<path d="M27.0991 86.8866C38.1931 86.0886 49.3465 86.4159 60.3736 87.8592L58.9625 87.6716C60.3996 87.8628 61.8349 88.0724 63.2664 88.2986C64.698 88.5247 66.0348 88.5339 67.3531 87.7691C68.4542 87.1311 69.5032 85.8827 69.791 84.6307C70.3703 82.11 69.0167 78.6333 66.0868 78.17C53.1862 76.1292 40.1334 75.4452 27.0972 76.3829C24.3363 76.5814 21.657 78.6572 21.7925 81.6356C21.9132 84.3107 24.1339 87.1017 27.0972 86.8884L27.0991 86.8866Z" fill="#010101"/>
</g>
<defs>
<clipPath id="clip0_219_156">
<rect width="157" height="115" fill="white"/>
</clipPath>
</defs>
</svg>
