<svg width="76" height="114" viewBox="0 0 76 114" fill="none" xmlns="http://www.w3.org/2000/svg">
<g clip-path="url(#clip0_245_383)">
<path d="M18.7341 90.514C18.6257 90.6439 18.5158 90.7709 18.3956 90.8892C18.3312 90.9519 18.1978 91.0395 18.1553 91.1081C18.1568 91.1052 18.7649 90.7096 18.5041 90.8352C18.3678 90.9008 18.2301 91.0016 18.0982 91.0804C17.5341 91.4191 18.6945 90.8979 18.2315 91.0381C17.8857 91.1432 17.5473 91.2483 17.1912 91.3184C17.0198 91.3519 16.8469 91.3738 16.6755 91.4074C16.3253 91.476 17.1517 91.3505 17.1063 91.349C16.9583 91.3476 16.7942 91.3841 16.6462 91.3972C14.5949 91.5972 12.5348 91.6746 10.5128 92.1125C8.33263 92.584 6.24178 93.5198 4.38977 94.7519C2.53776 95.984 0.644716 97.654 0.149478 99.9329C-0.883489 104.699 3.62494 108.254 7.63519 109.666C11.9678 111.191 16.4513 112.301 20.9905 113.006C30.4425 114.471 40.0132 114.324 49.4081 112.495C53.8872 111.623 58.3341 110.375 62.5656 108.666C64.57 107.855 66.6227 106.828 68.0528 105.156C69.8447 103.06 70.5378 100.401 69.4359 97.7986C67.5517 93.3505 61.7128 92.4074 57.5326 91.4366C52.526 90.2731 47.4198 89.4906 42.2975 89.0585C41.0887 88.9564 39.8799 88.879 38.6682 88.8191L41.9649 92.1038C43.3656 80.1404 44.7004 68.1698 45.9737 56.1918L42.6769 59.4764C49.1473 59.9246 55.7627 58.1129 61.0198 54.3072C65.2777 51.2254 68.7693 47.1948 71.2953 42.5949C73.8432 37.9555 75.0022 32.9644 75.5942 27.725C76.0147 24.001 76.0601 20.2448 75.9487 16.5018C75.8931 14.6201 75.7978 12.7413 75.6879 10.8625C75.578 8.98365 75.6806 6.99974 75.0696 5.27859C74.6183 4.00853 73.8945 3.01731 72.7927 2.23921C71.7641 1.51222 70.5627 1.302 69.3465 1.15164C67.4652 0.919523 65.5649 0.795437 63.6747 0.655292C59.7451 0.364785 55.8095 0.172087 51.8711 0.0728182C43.9458 -0.12426 36.0103 0.0669788 28.1041 0.646533C24.1744 0.934121 20.252 1.31514 16.3414 1.79834C14.2022 2.06257 12.1978 2.35454 10.2476 3.32387C8.4894 4.19685 7.11651 5.66253 5.99856 7.23623C3.97658 10.0814 2.9231 13.75 2.26669 17.1368C1.53263 20.9295 1.28647 24.8024 1.40662 28.6608C1.52677 32.5191 1.97365 36.3205 2.5275 40.1161C3.03592 43.5993 3.81541 46.9759 5.24984 50.205C6.68428 53.4342 8.86889 56.1582 11.8008 58.0808C14.444 59.8137 17.8608 60.872 21.0374 60.5144C22.8352 60.3115 24.5158 59.8385 26.0748 58.8896L21.1136 56.0531C20.0117 65.8267 19.7905 75.6879 19.0623 85.4922C18.948 87.0381 18.803 88.5826 18.6784 90.1271C18.6476 90.5038 18.7458 89.679 18.7385 89.7155C18.7077 89.8483 18.6975 89.9899 18.6726 90.1242C18.633 90.3388 18.5744 90.5447 18.5231 90.7563C18.3605 91.422 18.8103 90.2673 18.6242 90.5578C18.466 90.806 18.0147 91.4439 18.7356 90.5154C18.1759 91.2381 17.77 91.8833 17.77 92.8381C17.77 93.6439 18.129 94.6059 18.7356 95.1607C19.9136 96.238 22.2711 96.6132 23.3978 95.1607C24.1319 94.2132 24.7224 93.2906 24.9861 92.0965C25.2762 90.7855 25.3509 89.4147 25.4579 88.079C25.6953 85.1272 25.8989 82.1725 26.085 79.2163C26.4147 73.977 26.6755 68.7347 27.0447 63.4983C27.2191 61.0136 27.4286 58.5305 27.7085 56.0546C27.8345 54.9407 26.992 53.7524 26.0762 53.2181C25.074 52.6342 23.7495 52.6094 22.7487 53.2181C22.5993 53.3086 21.9326 53.5641 21.855 53.7013C21.978 53.4853 22.4997 53.4648 22.0879 53.6006C21.9297 53.6517 21.7758 53.7101 21.6161 53.7597C21.3304 53.8459 21.0418 53.9086 20.7502 53.9729C20.0718 54.1218 21.4052 53.9203 20.9407 53.9568C20.7429 53.9729 20.5451 53.9933 20.3458 54.0021C20.0454 54.0152 19.7465 54.0137 19.4462 53.9991C19.2791 53.9904 19.1121 53.9714 18.9451 53.9612C18.4777 53.9349 19.811 54.1247 19.1194 53.986C18.4279 53.8473 17.7861 53.6999 17.137 53.4707C17.0125 53.4269 16.8748 53.3553 16.7487 53.3262C17.4139 53.4809 17.1942 53.5276 16.9612 53.4152C16.6462 53.2648 16.3326 53.1174 16.0264 52.9495C15.7509 52.7977 15.4813 52.6371 15.2176 52.4663C15.0711 52.3714 14.926 52.2751 14.7824 52.1743C14.5524 52.0123 14.2403 51.6152 14.781 52.186C14.3561 51.7364 13.8345 51.3714 13.4095 50.913C13.2923 50.7875 13.178 50.659 13.0667 50.5276C12.6843 50.078 13.1385 50.4634 13.0887 50.5787C13.1268 50.4911 12.4704 49.7101 12.403 49.605C11.9927 48.9758 11.6249 48.3204 11.2938 47.6459C11.2015 47.4576 10.6843 46.4474 11.0887 47.2401C10.8938 46.8591 10.7619 46.4182 10.6213 46.0153C10.1011 44.5365 9.71724 43.0139 9.41248 41.4781C9.27036 40.7643 9.14581 40.049 9.03153 39.3307C8.97439 38.973 8.92164 38.6139 8.86889 38.2548C8.84105 38.0577 8.80149 37.8577 8.78537 37.6592C8.86596 38.5964 8.78831 37.6811 8.76779 37.5249C8.54801 35.8329 8.35754 34.1366 8.21834 32.4359C7.93409 28.9557 7.85497 25.4491 8.18171 21.9689C8.21541 21.6156 8.25204 21.2609 8.29453 20.9076C8.31211 20.7601 8.3634 19.8769 8.31504 20.7251C8.3253 20.5543 8.36779 20.366 8.39417 20.1981C8.53189 19.3222 8.70039 18.4507 8.89966 17.5879C9.07988 16.8098 9.28647 16.0376 9.52091 15.2726C9.65131 14.8464 9.7905 14.423 9.93849 14.0026C10.0381 13.7208 10.129 13.1208 10.3458 12.9208L10.1861 13.2931C10.2301 13.1894 10.2755 13.0872 10.3224 12.9851C10.4 12.8143 10.4791 12.6449 10.5612 12.477C10.7092 12.1749 10.866 11.8785 11.0345 11.588C11.203 11.2975 11.3759 11.0143 11.5649 10.7398C11.5766 10.7223 11.7656 10.3982 11.8213 10.3793C11.5268 10.7515 11.4916 10.7997 11.7143 10.5267C11.7846 10.4435 11.8564 10.3603 11.9297 10.28C12.148 10.0377 12.3795 9.80554 12.6227 9.58949C12.6433 9.57197 12.8938 9.31649 12.9553 9.31066L12.6359 9.56321C12.7546 9.48 12.8762 9.39971 12.9993 9.32234C13.2279 9.18073 13.5356 8.93402 13.8037 8.89168C13.1326 8.99825 13.6117 8.97927 13.8433 8.90336C14.1246 8.81139 14.4103 8.73256 14.6975 8.66395C15.0286 8.58512 15.3627 8.52235 15.6982 8.46541C15.7334 8.45957 16.5656 8.32527 16.0191 8.4114C15.4726 8.49753 16.3033 8.37636 16.34 8.37198C17.2938 8.25374 18.2476 8.14425 19.203 8.03768C21.0183 7.83768 22.8352 7.65666 24.6535 7.49754C39.3905 6.20559 54.1876 6.32675 68.9143 7.67272C69.6469 7.73987 68.3253 7.53842 68.7912 7.65958C68.9627 7.70484 69.1429 7.74717 69.3158 7.78221C69.5121 7.82308 69.8623 8.04352 69.1136 7.68732C69.5883 7.91213 69.0389 7.60557 68.9583 7.53842C69.4887 7.97783 68.6022 6.9355 68.9231 7.53112C68.8747 7.44061 68.6989 6.80266 68.8103 7.32236C68.8396 7.45521 68.8718 7.59827 68.907 7.73111C69.0843 8.40556 68.8689 7.05521 68.8982 7.70338C68.9788 9.44496 69.1194 11.1851 69.2088 12.9252C69.389 16.4493 69.4872 19.9806 69.329 23.5076C69.2513 25.2258 69.1546 26.9732 68.8879 28.6739C69.0183 27.8418 68.8733 28.7498 68.8528 28.8797C68.8249 29.0593 68.7971 29.2389 68.7678 29.417C68.7019 29.8199 68.6315 30.2228 68.5553 30.6228C68.3854 31.5148 68.1905 32.4023 67.9663 33.2841C67.729 34.2169 67.4682 35.1454 67.1341 36.049C67.0271 36.338 66.9084 36.6242 66.7956 36.9118C66.6315 37.3278 67.0154 36.3745 66.9978 36.4359C66.9685 36.5424 66.9041 36.6534 66.8586 36.7541C66.7766 36.9395 66.6931 37.122 66.6081 37.3059C65.8198 38.9979 64.8865 40.6256 63.833 42.1686C63.5341 42.6066 63.2264 43.0358 62.9085 43.4591C62.8396 43.5496 62.7678 43.6387 62.7019 43.7321C63.2513 42.9642 62.992 43.3628 62.844 43.5453C62.6403 43.7949 62.4381 44.0474 62.2301 44.2927C61.4813 45.1773 60.6857 46.0211 59.8418 46.8167C59.4271 47.208 59.0008 47.5875 58.5641 47.954C58.3224 48.1569 58.0381 48.3423 57.8125 48.5627C58.507 47.8868 57.7846 48.5758 57.537 48.7525C56.4674 49.516 55.3407 50.1992 54.1656 50.7904C53.8857 50.9306 53.6044 51.0663 53.3202 51.1977C53.1605 51.2707 52.9993 51.3393 52.8381 51.4123C52.4044 51.6065 53.6191 51.113 52.9378 51.3656C52.2139 51.6357 51.4945 51.8999 50.7517 52.1159C49.959 52.3466 49.1531 52.5364 48.3414 52.6867C48.17 52.7174 47.9986 52.7481 47.8271 52.7758C47.6161 52.8094 46.8923 53.0532 47.7026 52.7991C47.3436 52.9116 46.885 52.8867 46.5085 52.9145C45.2337 53.0064 43.9561 52.9991 42.6813 52.9101C41.9077 52.8561 40.8704 53.3072 40.3502 53.8721C39.7246 54.551 39.4813 55.2809 39.3846 56.1947C38.1128 68.1727 36.7766 80.1433 35.3759 92.1067C35.2879 92.8541 35.8008 93.9344 36.3414 94.4293C37.0037 95.0351 37.7656 95.346 38.6726 95.3913C41.0022 95.5066 43.326 95.695 45.6425 95.9679C45.9209 96.0001 46.1978 96.0351 46.4762 96.0701C46.5993 96.0862 47.5312 96.1782 46.7092 96.0993C47.1722 96.1446 47.6352 96.2307 48.0938 96.2993C49.2923 96.4818 50.4879 96.6847 51.6791 96.9095C53.8784 97.3256 56.0645 97.8132 58.2301 98.3737C59.2323 98.6336 60.2389 98.892 61.2264 99.2059C61.4183 99.2672 61.6088 99.3314 61.7993 99.3986L61.9898 99.4686C62.318 99.5971 62.2432 99.562 61.7671 99.365C62.1099 99.6336 62.6315 99.7708 63.0081 100.01C63.0462 100.035 63.263 100.218 63.3304 100.228L62.9656 99.9475C63.0623 100.028 63.1561 100.111 63.2469 100.199L63.3788 100.331C63.6059 100.588 63.5517 100.508 63.2176 100.091C63.2337 100.15 63.455 100.527 63.5033 100.558L63.3202 100.111C63.3641 100.228 63.4022 100.347 63.4315 100.47C63.6513 101.088 63.4682 99.7124 63.4139 100.35V100.534C63.3846 100.889 63.4008 100.777 63.4623 100.197C63.4374 100.314 63.4066 100.429 63.37 100.542C63.2528 100.864 63.2953 100.768 63.4975 100.254C63.4037 100.328 63.2835 100.619 63.2205 100.727C62.8894 101.299 63.7539 100.187 63.2704 100.655C63.0345 100.885 62.803 101.114 62.5583 101.336C62.0308 101.815 63.1868 100.933 62.5758 101.315C62.4 101.425 62.2315 101.546 62.0542 101.654C61.641 101.907 61.2117 102.134 60.7737 102.34L60.5876 102.426C60.2638 102.569 60.34 102.537 60.8191 102.333C60.8205 102.368 60.1993 102.575 60.1509 102.594C59.6645 102.78 59.1766 102.961 58.6872 103.137C57.7085 103.489 56.7209 103.819 55.7275 104.128C53.6586 104.774 51.5619 105.328 49.4447 105.794C48.5128 105.998 47.578 106.185 46.6389 106.355C46.1275 106.447 45.6132 106.534 45.1004 106.616C44.844 106.657 44.5861 106.696 44.3297 106.736C44.1627 106.761 43.0095 106.927 43.918 106.8C41.8594 107.089 39.7758 107.263 37.6997 107.368C33.455 107.584 29.1912 107.452 24.9685 106.972C24.7106 106.943 24.4513 106.912 24.1934 106.88C24.0425 106.861 23.1634 106.775 24.0381 106.863C23.6074 106.82 23.178 106.74 22.7517 106.674C21.6381 106.502 20.5275 106.304 19.4227 106.082C17.3832 105.671 15.3597 105.178 13.3597 104.601C12.3605 104.312 11.3671 104.003 10.3795 103.673C9.92677 103.521 9.47988 103.353 9.02713 103.203C8.48354 103.023 9.82274 103.581 9.27915 103.307C9.10772 103.22 8.93482 103.139 8.76633 103.048C8.47622 102.892 8.19343 102.724 7.91798 102.544C7.78171 102.455 7.60442 102.276 7.45204 102.222L7.81395 102.504C7.71285 102.425 7.61468 102.343 7.51651 102.26C7.22494 102.009 6.96706 101.734 6.70186 101.457C6.23739 100.974 7.096 102.107 6.76779 101.537C6.65644 101.343 6.55094 101.098 6.42054 100.918C6.82787 101.477 6.65497 101.45 6.5319 101.057C6.46596 100.712 6.48354 100.838 6.58171 101.431C6.57585 101.314 6.57878 101.196 6.58904 101.079C6.67402 101.45 6.48208 101.804 6.57439 101.42C6.70625 100.876 6.22127 102.177 6.62274 101.384C6.91724 100.801 6.0938 101.928 6.55534 101.453C6.73116 101.27 6.89966 101.083 7.08721 100.912C7.21761 100.794 7.40809 100.68 7.51798 100.546C7.09307 100.867 7.01688 100.928 7.2894 100.727C7.38464 100.658 7.48135 100.591 7.57951 100.524C7.87841 100.321 8.18464 100.128 8.4938 99.9416C8.9568 99.6613 9.55021 99.2102 10.085 99.0934C9.48574 99.2248 9.84765 99.1825 10.0264 99.1183C10.3443 99.0029 10.6608 98.8862 10.9832 98.7869C11.518 98.6219 12.063 98.4891 12.6139 98.381C12.8396 98.3372 13.0667 98.3022 13.2923 98.2613C13.6601 98.2073 13.5898 98.2146 13.0813 98.2847C13.2264 98.2657 13.3715 98.2497 13.5165 98.2336C14.0059 98.1796 14.4967 98.1402 14.9876 98.1037C16.0528 98.0234 17.1063 97.9314 18.1656 97.784C20.129 97.5081 22.1041 96.7212 23.3993 95.1636C24.4982 93.8424 24.7942 91.7943 23.3993 90.5184C22.1846 89.4074 19.9121 89.1053 18.737 90.5184L18.7341 90.514Z" fill="#010101"/>
<path d="M6.68131 36.3674C7.31721 36.0098 7.96043 35.6653 8.61684 35.347C8.87765 35.22 9.13992 35.0989 9.40366 34.9806C9.51208 34.9324 9.99853 34.7397 9.55018 34.9135C9.07399 35.0974 9.68498 34.8638 9.78461 34.8259C10.7385 34.4609 11.7231 34.1587 12.7297 33.9806C12.8337 33.9616 12.9494 33.9529 13.0535 33.9281C13.0505 33.9281 12.1392 34.0244 12.6447 33.9865C12.8425 33.9719 13.0388 33.95 13.2366 33.9412C13.5971 33.9251 13.9546 33.9383 14.315 33.9587C14.296 33.9587 14.5612 33.9879 14.5641 33.9835C14.5524 34.004 13.6366 33.82 14.0454 33.9164C14.1949 33.9514 14.3472 33.9719 14.4952 34.0084C14.7736 34.0755 15.0359 34.1748 15.307 34.2609C15.6571 34.3719 14.4308 33.8244 14.9714 34.1266C15.0798 34.1865 15.1927 34.2375 15.3011 34.2989C15.5062 34.4156 15.6923 34.5602 15.893 34.6828C16.1831 34.8594 15.1223 34.0551 15.5853 34.4463C15.685 34.531 15.7875 34.6127 15.8886 34.6959C16.1216 34.8916 16.3531 35.0901 16.5861 35.2857C18.4498 36.8507 20.4352 38.3192 22.5172 39.5835C24.9685 41.071 27.6571 41.7659 30.4967 41.0272C32.082 40.6156 33.4667 39.7324 34.8762 38.9411C36.4542 38.055 38.0498 37.201 39.6718 36.3981C40.6139 35.931 41.5663 35.4813 42.5304 35.0609C42.6476 35.0098 42.7751 34.966 42.8864 34.9076C42.8439 34.9295 42.1245 35.2186 42.63 35.0171C42.8337 34.9354 43.0359 34.8521 43.2395 34.7733C43.7099 34.5908 44.1831 34.4171 44.6623 34.2594C45.115 34.112 45.5722 33.9762 46.0366 33.8697C46.2037 33.8317 46.3722 33.7967 46.5421 33.766C46.6256 33.7514 46.7106 33.7397 46.7927 33.7237C47.3392 33.6186 45.8696 33.8098 46.4396 33.7719C47.3641 33.712 48.2359 33.7558 49.159 33.8069C49.2088 33.8098 48.359 33.6697 48.7091 33.7514C48.8527 33.785 49.0022 33.7996 49.1472 33.8288C49.4227 33.8813 49.6952 33.9427 49.9663 34.0113C50.5626 34.1616 51.1487 34.347 51.7245 34.5616C51.8623 34.6127 51.9985 34.6697 52.1377 34.7208C52.5143 34.8594 51.5253 34.4419 52.0923 34.7018C52.4249 34.8536 52.756 35.0069 53.0828 35.1718C53.8461 35.5558 54.5861 35.9835 55.3113 36.4346C56.7765 37.3455 59.0066 36.7937 59.8212 35.2565C60.6359 33.7193 60.2022 31.7339 58.6388 30.7631C54.4586 28.1661 49.6703 26.5194 44.7282 27.4449C42.6579 27.8318 40.6623 28.7354 38.7546 29.588C36.8469 30.4405 35.0461 31.3617 33.2396 32.3368C32.0938 32.9558 30.9729 33.6157 29.8344 34.2463C29.6454 34.35 29.4535 34.4434 29.2615 34.5427C28.926 34.7164 29.1692 34.4142 29.5341 34.4346C29.4579 34.4302 29.2029 34.5558 29.1531 34.5719C28.9905 34.6259 28.4073 34.677 28.3018 34.7908C28.3209 34.7689 28.97 34.7456 28.589 34.7543C28.3795 34.7587 28.1714 34.7821 27.9604 34.7791C27.8461 34.7777 27.7333 34.766 27.619 34.7646C27.1077 34.7587 27.9575 34.8054 27.9971 34.8229C27.8037 34.7412 27.5487 34.7324 27.3436 34.6711C27.2337 34.639 27.1253 34.5967 27.0154 34.5646C26.5275 34.42 27.2557 34.6594 27.3011 34.6945C27.0857 34.5251 26.7516 34.4317 26.5084 34.2989C25.3055 33.6405 24.1685 32.8463 23.0549 32.0493C22.8205 31.8814 22.5861 31.7106 22.3546 31.5383C22.252 31.4624 22.1494 31.369 22.041 31.3018C22.0703 31.3208 22.6828 31.8055 22.2798 31.4843C21.9487 31.2201 21.6176 30.9544 21.2923 30.6829C20.293 29.8449 19.3157 28.9208 18.1187 28.3719C13.1751 26.1063 7.77875 28.2011 3.34651 30.6945C1.84322 31.5398 1.20879 33.7135 2.1641 35.1879C3.11941 36.6623 5.06666 37.2711 6.67399 36.366L6.68131 36.3674Z" fill="#010101"/>
</g>
<defs>
<clipPath id="clip0_245_383">
<rect width="76" height="114" fill="white"/>
</clipPath>
</defs>
</svg>
