<svg width="80" height="114" viewBox="0 0 80 114" fill="none" xmlns="http://www.w3.org/2000/svg">
<g clip-path="url(#clip0_792_498)">
<path d="M25.5271 83.9847C22.5693 80.36 21.9289 75.5254 22.0585 70.9674C22.1529 67.6483 22.607 64.3041 23.8652 61.2013C25.1233 58.0986 27.2344 55.2385 30.1721 53.3859C34.1188 50.8969 39.4495 50.4643 43.7988 52.2817C45.1148 52.8313 46.3616 53.5897 47.2561 54.6487C48.3242 55.9139 48.8187 57.515 49.1848 59.0896C50.2794 63.7909 50.4492 68.6797 49.6818 73.4351C49.0565 77.3138 47.6688 81.3134 44.5096 83.8841C42.7621 85.3066 40.583 86.192 38.3562 86.7907C36.1243 87.3906 33.764 87.7201 31.4768 87.3428C29.1895 86.9655 26.9765 85.8084 25.7649 83.9508" fill="#010101"/>
<path d="M19.1045 107.272C18.0439 106.748 17.0349 106.133 16.0774 105.439C15.9743 105.363 15.8711 105.287 15.7679 105.21C15.4295 104.96 15.8245 105.328 15.8975 105.31C15.8157 105.329 15.4245 104.928 15.3452 104.861C15.0168 104.587 14.696 104.304 14.3815 104.015C13.6254 103.317 12.9032 102.576 12.2402 101.789C12.1521 101.685 12.0653 101.579 11.9797 101.473C11.908 101.385 11.5331 100.903 11.8778 101.351C12.2225 101.799 11.8162 101.266 11.7495 101.175C11.6224 101.004 11.4991 100.831 11.3758 100.656C10.8348 99.8847 10.3354 99.0848 9.87113 98.2648C9.29742 97.2498 8.71617 96.1883 8.30351 95.0954C8.50229 95.6236 8.35509 95.2186 8.31232 95.1105C8.25067 94.9557 8.18776 94.8023 8.12863 94.6476C8.00911 94.3407 7.89336 94.0326 7.78265 93.7219C7.53857 93.0378 7.31463 92.3473 7.11081 91.6492C6.75225 90.4205 6.46036 89.1728 6.22887 87.9138C6.17477 87.6183 6.12445 87.3227 6.07664 87.0272C6.05273 86.88 6.03009 86.7341 6.0087 86.587C5.9936 86.4889 5.92692 86.0122 5.98228 86.4159C6.03764 86.8196 5.97473 86.348 5.96341 86.2486C5.9458 86.1053 5.92944 85.9606 5.91308 85.8172C5.87786 85.4978 5.8464 85.1771 5.81872 84.8564C5.63127 82.7006 5.60988 80.5311 5.73569 78.3716C5.79105 77.4208 5.87534 76.4725 5.98605 75.5267C6.00996 75.3242 6.04141 75.1204 6.06154 74.9179C6.06028 74.933 5.9546 75.6826 6.02002 75.2299C6.03386 75.1343 6.04644 75.0387 6.06028 74.9443C6.11187 74.5846 6.16848 74.2249 6.22887 73.8665C6.41004 72.7836 6.63147 71.7083 6.87051 70.6354C7.68074 67.0183 8.79795 63.4828 9.90761 59.9487C10.7279 57.3339 11.557 54.7216 12.4201 52.1207C12.7988 50.98 13.1812 49.8392 13.6128 48.7161C13.7159 48.4494 13.8241 48.1841 13.9298 47.9187C14.0783 47.5414 13.7273 48.3715 13.8946 48.003C13.9537 47.8734 14.0091 47.7414 14.0682 47.6118C14.3173 47.0622 14.584 46.5201 14.8759 45.9919C15.1489 45.4976 15.4421 45.0134 15.7604 44.5455C15.8396 44.4286 15.9239 44.3154 16.0032 44.1984C16.3114 43.7481 15.9604 44.2122 15.9428 44.2638C16.0296 44.0085 16.392 43.718 16.5731 43.518C17.055 42.9834 17.5746 42.4841 18.1256 42.0213C18.2842 41.888 18.4628 41.7698 18.6125 41.6276C18.025 42.1898 18.5308 41.6943 18.7283 41.5522C19.2227 41.1937 19.7297 40.8529 20.2431 40.5221C21.364 39.7989 22.514 39.1198 23.6815 38.4758C24.771 37.8746 25.8794 37.3049 27.0017 36.7666C27.5049 36.5251 28.0119 36.2912 28.5202 36.0623C28.763 35.9529 29.0071 35.8459 29.2524 35.739C29.3707 35.6875 29.4965 35.6435 29.611 35.5843C29.3506 35.7177 29.1782 35.7655 29.5494 35.6108C31.1421 34.9492 32.7613 34.348 34.4044 33.8198C37.4768 32.8325 40.6523 32.0137 43.8215 31.4163C44.2593 31.3333 44.7097 31.2893 45.1437 31.1949C44.2706 31.3861 44.9311 31.2239 45.1777 31.1962C45.4243 31.1685 45.6835 31.1459 45.9376 31.1283C46.7038 31.0767 47.4738 31.0742 48.2375 31.1446C48.3306 31.1534 48.4224 31.1648 48.5155 31.1736C48.9621 31.2151 48.1859 31.1295 48.1783 31.127C48.357 31.171 48.547 31.1861 48.7281 31.2226C49.1446 31.3044 49.5572 31.41 49.9636 31.5345C50.2743 31.6301 50.5788 31.7433 50.8845 31.8552C51.4834 32.0753 50.1297 31.5081 50.7436 31.7949C51.1991 32.0074 51.6432 32.2414 52.0722 32.5042C52.3477 32.6727 52.6182 32.8513 52.8837 33.0375C53.0334 33.1419 53.1793 33.2513 53.3265 33.3595C53.4826 33.4727 53.6574 33.6877 53.1013 33.1846C53.1957 33.2702 53.3026 33.3444 53.402 33.4261C54.9558 34.6989 56.3045 36.188 57.5639 37.7463C57.8621 38.1161 57.1324 37.1766 57.316 37.4244C57.3714 37.4986 57.4293 37.5728 57.4846 37.647C57.6092 37.813 57.7325 37.9815 57.8533 38.1501C58.1653 38.5852 58.466 39.0292 58.7566 39.4795C59.5089 40.6428 60.1959 41.8477 60.8274 43.0803C61.2175 43.8412 61.5848 44.6122 61.9333 45.3932C62.0239 45.597 62.112 45.802 62.2013 46.0057C62.3485 46.3415 61.9749 45.4599 62.117 45.8032C62.1611 45.9101 62.2063 46.017 62.2504 46.1252C62.4441 46.5968 62.6303 47.0723 62.8102 47.5489C63.6117 49.6795 64.2772 51.8604 64.8182 54.0702C65.1214 55.3052 65.3906 56.5516 65.6096 57.8043C65.6637 58.1124 65.714 58.4218 65.7605 58.7312C65.7832 58.8821 65.8209 59.0444 65.8285 59.1953C65.8234 59.0985 65.7555 58.5929 65.8197 59.14C65.8977 59.7978 65.9681 60.4555 66.021 61.1158C66.2286 63.713 66.2147 66.324 66.0247 68.9212C65.9794 69.5437 65.9228 70.1651 65.8587 70.7851C65.8297 71.0568 65.7995 71.3284 65.7681 71.6001C65.7492 71.7548 65.7303 71.9108 65.7115 72.0654C65.6737 72.3698 65.6737 72.5233 65.7052 72.1283C65.602 73.4452 65.295 74.7834 65.0421 76.0775C64.5402 78.6395 63.9098 81.1763 63.1927 83.6854C62.4731 86.2034 61.6654 88.6974 60.8061 91.1713C60.3657 92.4391 59.9115 93.7018 59.4473 94.962C59.3441 95.2438 59.2397 95.5255 59.134 95.806C59.0447 96.0437 58.9705 96.4336 58.8107 96.6335C58.856 96.5769 59.0636 96.0701 58.8371 96.5707C58.7755 96.7052 58.7163 96.8398 58.6534 96.9731C58.5113 97.2725 58.3603 97.5668 58.1967 97.8548C58.052 98.1101 57.8973 98.3604 57.73 98.6031C57.6582 98.7075 57.3576 99.0949 57.6683 98.7062C57.9451 98.3604 57.7627 98.5893 57.701 98.6597C57.3689 99.0471 57.0304 99.4206 56.6568 99.7677C56.4693 99.9413 56.2731 100.106 56.0781 100.27C55.9434 100.383 55.7887 100.614 56.1636 100.205C56.0793 100.296 55.9057 100.393 55.8126 100.458C55.3307 100.795 54.8275 101.102 54.3167 101.394C53.475 101.873 52.6082 102.308 51.7275 102.711C51.5098 102.81 51.2896 102.906 51.0707 103.003C50.6279 103.2 51.194 102.951 51.2494 102.93C51.1374 102.974 51.0267 103.023 50.9147 103.068C50.4115 103.274 49.9057 103.47 49.3962 103.66C46.0722 104.894 42.6313 105.815 39.1639 106.541C36.9597 107.002 34.7454 107.332 32.5147 107.645C32.2644 107.68 32.0153 107.715 31.7649 107.749C31.6253 107.768 31.4856 107.788 31.346 107.806C32.0354 107.719 31.6341 107.767 31.4843 107.787C30.9006 107.862 30.3156 107.937 29.7305 108.003C28.7656 108.114 27.7993 108.208 26.8306 108.271C25.9788 108.325 25.1246 108.355 24.2716 108.339C23.8903 108.331 23.5104 108.316 23.1304 108.289C22.9468 108.276 22.7631 108.26 22.5806 108.241C22.4901 108.232 22.4007 108.221 22.3101 108.211C21.788 108.159 22.9065 108.305 22.5957 108.251C21.9075 108.129 21.2269 108.006 20.5551 107.806C20.2242 107.708 19.8983 107.597 19.5763 107.475C19.4957 107.444 19.4152 107.411 19.3347 107.381C19.0202 107.262 19.9562 107.656 19.6492 107.514C19.4693 107.431 19.2881 107.352 19.1095 107.265C17.7771 106.624 15.9894 106.855 15.237 108.28C14.5677 109.545 14.8281 111.466 16.2523 112.151C19.5637 113.745 23.1065 114.161 26.7488 113.936C30.391 113.711 34.0597 113.165 37.6642 112.566C40.373 112.116 43.0616 111.511 45.7086 110.779C49.7824 109.655 53.8977 108.225 57.5475 106.065C59.7505 104.762 61.7383 103.038 63.0329 100.804C64.4219 98.4082 65.2397 95.6135 66.1505 93.0088C67.9408 87.8887 69.5223 82.678 70.5489 77.3466C71.5756 72.0151 72.1417 66.3039 71.6573 60.7624C71.2107 55.6498 70.0079 50.575 68.1761 45.7819C65.8121 39.5964 62.3925 33.3607 57.111 29.1788C54.5205 27.1275 51.7627 25.8648 48.4513 25.5038C46.5214 25.2938 44.56 25.5541 42.6602 25.8924C40.3868 26.2974 38.1511 26.9049 35.9205 27.4922C33.1438 28.2217 30.4363 29.1486 27.788 30.2579C23.0109 32.259 18.1885 34.6323 14.1865 37.9639C10.4411 41.0843 8.6281 45.636 7.12465 50.1373C5.44129 55.1757 3.77931 60.243 2.36267 65.3631C0.556014 71.8957 -0.470611 78.7074 0.225129 85.4877C1.08191 93.8351 4.21337 102.406 10.5505 108.16C12.2666 109.719 14.1714 111.121 16.2536 112.15C17.5796 112.805 19.3787 112.55 20.1261 111.135C20.8017 109.857 20.5274 107.964 19.1107 107.264L19.1045 107.272Z" fill="#010101"/>
<path d="M5.16328 13.8083C7.41657 17.6921 9.67112 21.5759 11.9244 25.4598C12.668 26.7401 14.5149 27.301 15.7969 26.4747C17.0789 25.6484 17.6073 23.9731 16.8122 22.6035C14.5589 18.7197 12.3044 14.8359 10.0511 10.9521C9.30752 9.67173 7.4606 9.11079 6.17858 9.93711C4.89656 10.7634 4.36815 12.4387 5.16328 13.8083Z" fill="#010101"/>
<path d="M74.7359 11.6829C72.4008 15.5189 70.0658 19.3549 67.7307 23.1897C66.9595 24.4562 67.4111 26.3566 68.746 27.0609C70.0809 27.7652 71.7969 27.3967 72.6185 26.0459C74.9536 22.2099 77.2886 18.3739 79.6237 14.5392C80.3949 13.2726 79.9433 11.3723 78.6084 10.6679C77.2735 9.96362 75.5575 10.3321 74.7359 11.6829Z" fill="#010101"/>
<path d="M39.1627 2.8324C39.2093 7.32242 39.2571 11.8124 39.3049 16.3025C39.32 17.7815 40.5957 19.2015 42.1357 19.1323C43.6756 19.0631 44.9828 17.8884 44.9665 16.3025C44.9186 11.8124 44.8721 7.32242 44.8243 2.8324C44.8092 1.35333 43.5335 -0.0666237 41.9935 0.00255028C40.4536 0.0717243 39.1464 1.24642 39.1627 2.8324Z" fill="#010101"/>
</g>
<defs>
<clipPath id="clip0_792_498">
<rect width="80" height="114" fill="white"/>
</clipPath>
</defs>
</svg>
