<svg width="67" height="113" viewBox="0 0 67 113" fill="none" xmlns="http://www.w3.org/2000/svg">
<g clip-path="url(#clip0_792_492)">
<path d="M0.0641148 79.9871C0.963847 86.5236 1.86358 93.0614 2.76331 99.5978C2.93444 100.844 4.47588 101.872 5.66438 101.818C6.97722 101.759 8.22187 100.924 8.56545 99.5978C8.71518 99.0185 8.88497 98.4446 9.08149 97.8787C9.1724 97.6139 9.27 97.3518 9.37026 97.091C9.42107 96.9606 9.47454 96.8316 9.52534 96.7026C9.66438 96.3504 9.27267 97.2658 9.5093 96.7523C10.0053 95.6716 10.5494 94.6192 11.159 93.5977C12.3957 91.525 13.8302 89.5814 15.2847 87.6593C16.7526 85.7211 18.2486 83.8031 19.6109 81.7882C21.1136 79.5664 22.3957 77.2129 23.5053 74.7693C25.9465 69.3901 27.766 63.7421 29.7165 58.1721C31.6671 52.6021 33.7286 46.7135 35.7339 40.9849C37.7393 35.2562 39.7459 29.5263 41.7513 23.7976C42.7513 20.9414 43.7713 18.0918 44.7513 15.2275C45.3168 13.5756 45.663 11.8108 45.2459 10.0796C44.897 8.63059 43.9933 7.34024 42.8435 6.41952C40.5708 4.59958 37.6457 3.60359 34.9171 2.68959C32.1884 1.77559 29.536 1.13445 26.7727 0.702986C23.8221 0.241954 20.8475 -0.0282137 17.8596 0.00270101C15.2205 0.0295834 12.3355 0.326633 10.1363 1.93554C7.68444 3.72994 6.58283 6.46388 6.15636 9.40212C5.71518 12.4425 5.36893 15.5031 5.01331 18.5542C4.77936 20.565 5.41706 22.3809 7.08684 23.5772C8.23524 24.3998 9.7847 24.6283 11.1256 24.9683C14.024 25.7036 16.9211 26.4402 19.8195 27.1754C21.2687 27.5437 22.7179 27.9106 24.1657 28.2789C25.6884 28.666 27.4999 27.7829 27.8663 26.1673C28.2326 24.5517 27.397 22.8621 25.766 22.4468C22.9959 21.7438 20.2259 21.0408 17.4558 20.3365C16.0922 19.9897 14.7286 19.6443 13.3649 19.2975C12.7259 19.1349 12.0868 18.9736 11.4478 18.8109C11.1577 18.737 10.8636 18.6685 10.5761 18.5851C10.5989 18.5919 10.2259 18.4642 10.2165 18.4722C10.2098 18.4776 10.8596 18.7249 10.3489 18.5058C10.0614 18.3835 10.647 18.7747 10.7192 18.8755C10.7767 18.9548 11.024 19.6443 10.9411 19.3002C10.8475 18.9077 10.9211 19.9051 10.9665 19.4964C10.9812 19.3593 10.9692 19.2155 10.9786 19.0757C11.0253 18.3781 11.139 17.6805 11.2245 16.987C11.3957 15.5945 11.5668 14.2033 11.7379 12.8108C11.8155 12.1858 11.8957 11.5608 11.9692 10.9344C12.0187 10.5137 11.881 11.5352 11.9451 11.1132C11.9665 10.9734 11.9852 10.8349 12.0066 10.6952C12.0561 10.382 12.1096 10.0688 12.1751 9.75831C12.2887 9.20991 12.4425 8.67898 12.6176 8.14806C12.7927 7.61713 12.3395 8.69511 12.6764 8.0244C12.7259 7.92493 13.0294 7.24346 13.1403 7.24078C13.1136 7.24078 12.7299 7.70584 13.0467 7.37384C13.1417 7.27438 13.2312 7.17223 13.3302 7.07679C13.3997 7.00959 13.5935 6.88055 13.6283 6.80797C13.5868 6.89131 13.0561 7.17895 13.4973 6.9276C13.7259 6.79722 13.9491 6.66146 14.1831 6.53915C14.258 6.50017 14.5748 6.34559 14.1871 6.53243C13.7526 6.74076 14.2834 6.51092 14.3876 6.47732C14.5868 6.4128 15.8288 5.97327 15.9665 6.11978C15.9692 6.12247 15.1791 6.19774 15.778 6.15204C15.9144 6.14129 16.0507 6.1265 16.1871 6.11575C16.4933 6.09156 16.8007 6.07677 17.1082 6.06602C18.3863 6.02301 19.6684 6.04989 20.9451 6.11709C21.5614 6.14935 22.1764 6.19371 22.7914 6.25016C23.1189 6.27973 23.4465 6.31334 23.774 6.34963C23.9371 6.36844 24.1015 6.38726 24.2646 6.40608C24.3502 6.41683 25.0414 6.50958 24.5989 6.4464C24.1871 6.38861 24.7112 6.46388 24.8101 6.47866C24.9732 6.50286 25.135 6.52839 25.2981 6.55393C25.6229 6.60501 25.9478 6.66012 26.2713 6.71791C26.9598 6.84157 27.6457 6.97867 28.3288 7.1319C29.6136 7.4182 30.8876 7.75692 32.1457 8.14402C33.4037 8.53113 34.647 8.96931 35.8716 9.45588C36.0467 9.52578 36.9171 9.88331 36.2941 9.62255C36.5815 9.74352 36.8663 9.86853 37.1497 9.99891C37.6283 10.218 38.1015 10.4532 38.5507 10.7288C38.6617 10.7973 38.77 10.8753 38.8823 10.9425C39.2874 11.1817 38.6818 10.8766 38.7446 10.8175C38.7727 10.7919 39.2526 11.2866 39.3048 11.3376C39.6216 11.6481 39.1189 11.2852 39.1898 11.1643C39.1871 11.1696 39.405 11.5043 39.3903 11.4815C39.4438 11.5635 39.5574 11.8632 39.401 11.4613C39.1911 10.921 39.4799 11.6468 39.4465 11.6898C39.4879 11.6374 39.4358 11.1199 39.4264 11.5903C39.4264 11.6253 39.4585 12.007 39.4157 12.0648C39.5775 11.8457 39.5133 11.6132 39.4237 11.9761C39.385 12.1334 39.3556 12.2933 39.3141 12.4519C39.1376 13.1415 38.885 13.8122 38.6497 14.4829C37.7058 17.1792 36.762 19.8755 35.8181 22.5704C33.9157 28.0047 32.0133 33.439 30.1096 38.8732C28.2058 44.3075 26.3048 49.7418 24.401 55.1761C23.4545 57.8791 22.5106 60.5834 21.5614 63.2851C21.1269 64.5217 20.6871 65.7583 20.2299 66.9868C20.016 67.5621 19.7967 68.1374 19.5735 68.7086C19.4545 69.0137 19.3328 69.3175 19.2112 69.6213C19.1497 69.7732 19.0882 69.9251 19.0267 70.0756C18.9104 70.3579 18.8515 70.5353 18.9999 70.1455C17.2406 74.7733 14.4237 78.8984 11.4558 82.8111C8.57214 86.6136 5.6978 90.3651 3.84486 94.806C3.41171 95.8437 3.0454 96.9015 2.76465 97.9916H8.56545C7.66572 91.4551 6.76599 84.9174 5.86625 78.3809C5.77 77.686 5.05342 76.9091 4.4839 76.5731C3.83952 76.194 2.88898 76.0327 2.16572 76.268C1.44246 76.5032 0.735238 76.9588 0.367591 77.6578C-0.0374895 78.4279 -0.0535322 79.1336 0.0641148 79.9885V79.9871Z" fill="#010101"/>
<path d="M3.60416 25.2493C3.62822 35.7495 3.21111 46.2498 2.34346 56.7151C2.1055 59.5888 1.83277 62.4598 1.52796 65.3268C1.36084 66.9048 3.03063 68.4183 4.53598 68.3511C6.3087 68.2718 7.36485 67.0177 7.544 65.3268C8.63491 55.043 9.30336 44.7148 9.53063 34.3745C9.59747 31.3328 9.62689 28.291 9.61886 25.2493C9.61485 23.6672 8.23785 22.1511 6.61084 22.225C4.98384 22.2989 3.59881 23.5543 3.60282 25.2493H3.60416Z" fill="#010101"/>
<path d="M4.84492 80.7613C4.99867 80.7075 5.15241 80.6578 5.3115 80.6188C5.40642 80.596 5.86364 80.4898 5.39171 80.592C4.91979 80.6941 5.45187 80.6269 5.57487 80.6162C6.11364 80.5745 5.11498 80.4925 5.45321 80.5826C5.57888 80.6162 5.70722 80.6363 5.83289 80.6726C6.32888 80.8151 5.90508 80.7774 5.75268 80.6067C5.81551 80.678 6.00936 80.7465 6.0976 80.7895C6.66979 81.0732 5.63236 80.3621 6.11631 80.7801C7.31016 81.8084 9.21391 82.0463 10.3703 80.7801C11.4037 79.6484 11.6457 77.6026 10.3703 76.5031C8.41711 74.819 5.74599 74.0528 3.24599 74.9265C1.76337 75.4453 0.621661 77.022 1.14572 78.647C1.62032 80.1229 3.25401 81.3151 4.84626 80.7586L4.84492 80.7613Z" fill="#010101"/>
<path d="M15.4651 104.649C22.5855 104.364 29.6683 102.121 35.5494 98.0426C38.8542 95.7509 42.1149 91.8731 40.0601 87.6419C38.29 83.9966 33.5828 83.8689 30.4397 85.5961C27.4839 87.2198 25.5921 90.6742 25.1363 93.9471C24.6363 97.5359 25.4143 101.13 27.4384 104.153C29.3208 106.964 31.9932 109.404 35.0962 110.778C38.5093 112.289 42.7111 112.816 45.9304 110.507C46.7954 109.886 47.5333 109.184 48.1951 108.352C48.5815 107.867 48.9531 107.369 49.3194 106.868C49.4491 106.692 49.5761 106.515 49.7058 106.339C49.7913 106.222 49.8782 106.105 49.9665 105.989C49.7379 106.283 49.6924 106.345 49.8288 106.172C50.1296 105.821 50.4224 105.472 50.7619 105.154C50.8101 105.109 51.0801 104.9 51.0814 104.871C50.7486 105.121 50.7138 105.149 50.9785 104.958C51.0935 104.879 51.2111 104.804 51.3314 104.732C51.3823 104.703 51.9544 104.34 51.524 104.607C51.0253 104.916 51.9143 104.392 51.9317 104.505L51.528 104.551C51.6617 104.537 51.7967 104.532 51.9304 104.535C52.5106 104.489 51.3355 104.382 51.9478 104.55C52.6082 104.731 51.4117 104.193 51.9972 104.554C52.175 104.662 52.3555 104.774 52.536 104.877C53.1496 105.23 52.0708 104.449 52.6055 104.92C52.7927 105.086 52.9839 105.247 53.1684 105.415C53.9678 106.142 54.7552 106.882 55.548 107.615C57.1737 109.12 58.7994 110.622 60.425 112.126C61.4143 113.04 62.8823 113.296 64.0708 112.599C65.4651 111.782 66.4665 110.47 66.8996 108.91C67.3328 107.349 66.3796 105.551 64.7994 105.189C63.2058 104.824 61.552 105.671 61.0988 107.301C60.9678 107.771 61.2098 107.171 61.1964 107.153C61.2285 107.199 60.7793 107.793 61.1055 107.363C61.3662 107.019 61.0587 107.368 61.0012 107.435C60.7793 107.697 61.5708 107.062 61.0333 107.376L64.679 107.849C62.1349 105.496 59.651 103.043 57.0226 100.782C55.528 99.497 53.7766 98.4082 51.7285 98.4862C49.7205 98.5628 47.9571 99.5225 46.5066 100.875C45.8488 101.488 45.3101 102.216 44.77 102.933C44.5507 103.223 44.3381 103.519 44.1229 103.812C44.0373 103.929 43.9504 104.045 43.8635 104.164C43.4665 104.707 44.2031 103.773 43.8034 104.24C43.5694 104.515 43.3435 104.79 43.0895 105.047C42.9892 105.148 42.8782 105.24 42.7806 105.344C42.302 105.849 43.3141 105.043 42.7165 105.406C42.4558 105.564 42.1937 105.714 41.9264 105.86C41.5547 106.063 42.6309 105.633 41.9999 105.816C41.8087 105.871 41.6229 105.931 41.4277 105.977C41.2766 106.012 40.7873 105.981 41.2419 106.028C41.7392 106.079 41.1523 106.028 41.0467 106.033C40.7098 106.051 40.3729 106.046 40.0373 106.021C39.905 106.012 39.7619 105.981 39.6296 105.981C40.3609 105.981 39.9598 106.023 39.7151 105.974C39.3395 105.899 38.9678 105.804 38.6015 105.689C38.29 105.593 37.8903 105.496 37.6095 105.329C38.1938 105.676 37.9036 105.458 37.7472 105.377C37.5601 105.281 37.3675 105.193 37.1817 105.094C36.5708 104.769 35.9879 104.395 35.4277 103.988C35.3809 103.954 34.8689 103.524 35.2379 103.849C35.6068 104.175 35.0988 103.728 35.0601 103.695C34.7967 103.472 34.54 103.242 34.29 103.002C34.0654 102.787 33.8475 102.567 33.6363 102.34C33.4063 102.092 33.171 101.673 32.8943 101.481C33.3381 101.79 33.1175 101.781 32.9277 101.519C32.8274 101.38 32.7285 101.239 32.6336 101.096C32.4438 100.812 32.2633 100.521 32.0948 100.223C31.9438 99.9553 31.802 99.6825 31.6697 99.4042C31.5667 99.1878 31.5093 98.7953 31.6831 99.4701C31.6336 99.2792 31.5306 99.0803 31.4665 98.8935C31.3542 98.5695 31.2539 98.2402 31.171 97.9082C31.1376 97.7725 31.0347 96.9539 30.9745 96.9324C31.0119 96.9458 31.044 97.716 31.0079 97.1421C30.9972 96.9754 30.9798 96.8101 30.9718 96.6434C30.9531 96.2765 30.9544 95.9095 30.9718 95.5439C30.9798 95.3773 31.0012 95.2119 31.0093 95.0453C31.032 94.6004 30.8702 95.8249 30.9919 95.1568C31.0507 94.8302 31.1149 94.5049 31.1991 94.1837C31.2753 93.896 31.3635 93.6124 31.4638 93.3315C31.552 93.0869 31.7833 92.8328 31.417 93.4122C31.5173 93.2535 31.5855 93.0466 31.6724 92.8799C31.8234 92.5896 31.9892 92.3059 32.171 92.0344C32.159 92.0519 32.3769 91.7105 32.3956 91.7132L32.1643 92.0143C32.2472 91.9121 32.3315 91.8127 32.4184 91.7145C32.6149 91.4928 32.8274 91.2885 33.0427 91.0841C33.3408 90.8032 33.3502 91.0546 32.8983 91.1796C33.0146 91.1473 33.2178 90.9645 33.3248 90.9027C33.4424 90.8328 33.5921 90.7817 33.7018 90.6997C34.0093 90.4712 32.9732 90.947 33.5347 90.7656C33.8074 90.6769 34.0788 90.603 34.3542 90.5263C34.6082 90.4551 34.7365 90.5922 34.052 90.5532C34.1844 90.5613 34.3301 90.5277 34.4638 90.5236C34.5975 90.5196 34.7339 90.5304 34.8689 90.529C35.4197 90.525 34.1817 90.3422 34.6951 90.5102C34.8074 90.5478 34.9478 90.5989 35.0641 90.6191C35.4143 90.6782 34.3823 90.2347 34.8288 90.5357C35.2151 90.7965 34.6042 90.3395 34.5921 90.322C34.6296 90.3825 34.8595 90.6177 34.921 90.6473C34.909 90.6419 34.4317 90.0263 34.7272 90.4296C35.0908 90.9255 34.6403 89.9887 34.6924 90.3314L34.7192 90.4215C34.7873 90.7481 34.7793 90.6621 34.6964 90.1648C34.7018 90.2575 34.7018 90.3489 34.6964 90.4403C34.6844 90.6782 34.7031 90.564 34.7526 90.0976C34.6951 90.1446 34.663 90.4699 34.6363 90.5572C34.4986 90.9914 34.3996 90.697 34.6844 90.4712C34.52 90.6016 34.3194 91.0855 34.2165 91.2656C33.9999 91.642 34.6964 90.7199 34.2379 91.2428C34.1429 91.3503 34.052 91.4592 33.9544 91.5653C33.6617 91.8825 33.3448 92.1635 33.0253 92.4525C32.6162 92.8207 33.1055 92.4162 33.1443 92.3691C32.9986 92.5492 32.7018 92.689 32.5106 92.8207C32.1643 93.06 31.8141 93.2939 31.4598 93.521C30.7512 93.9753 30.0253 94.4028 29.286 94.8033C28.5467 95.2039 27.7232 95.6125 26.921 95.9714C26.7472 96.0493 26.5734 96.13 26.3956 96.2012C27.1135 95.9109 26.3756 96.2039 26.2659 96.2469C25.8395 96.4163 25.4103 96.5776 24.9785 96.7308C23.3929 97.2913 21.7673 97.7389 20.1189 98.0668C19.6697 98.1569 19.2178 98.2375 18.7646 98.3088C18.7018 98.3182 18.3194 98.3585 18.3114 98.3773C18.7325 98.3222 18.7726 98.3168 18.429 98.3612L18.2018 98.3894C17.2913 98.497 16.3769 98.5642 15.4611 98.6005C13.8903 98.6636 12.3782 99.9459 12.4531 101.625C12.524 103.209 13.7766 104.716 15.4611 104.649H15.4651Z" fill="#010101"/>
</g>
<defs>
<clipPath id="clip0_792_492">
<rect width="67" height="113" fill="white"/>
</clipPath>
</defs>
</svg>
