<svg width="369" height="489" viewBox="0 0 369 489" fill="none" xmlns="http://www.w3.org/2000/svg">
<g clip-path="url(#clip0_448_832)">
<path d="M331.654 426.252C328.586 422.313 325.524 418.364 322.471 414.415C320.988 412.497 319.505 410.573 318.022 408.655C317.341 407.772 316.661 406.884 315.975 406.002C315.691 405.634 314.645 404.277 316.026 406.068C315.64 405.568 315.259 405.073 314.878 404.573C309.281 397.282 303.704 389.975 298.158 382.649C288.427 369.796 278.777 356.882 269.243 343.887C254.702 324.064 240.405 304.053 226.656 283.67C217.615 270.266 208.788 256.705 200.54 242.791C195.613 234.484 190.859 226.045 186.684 217.325C185.973 215.846 185.287 214.356 184.617 212.856C184.327 212.208 184.048 211.56 183.769 210.907C182.971 209.065 185.089 214.096 184.51 212.672C184.383 212.361 184.251 212.05 184.129 211.738C181.976 206.432 180.122 200.983 178.451 195.508C177.577 192.646 176.765 189.753 176.155 186.819C176.028 186.202 175.922 185.579 175.805 184.962C175.439 183.084 176.074 188.033 175.911 185.819C175.876 185.309 175.82 184.798 175.81 184.288C175.8 183.65 176.038 181.39 175.708 183.972C175.424 186.176 175.495 185.334 175.622 184.87C175.983 183.559 174.611 187.105 174.753 186.839C173.651 188.865 169.817 191.635 166.556 191.462C165.373 191.401 164.311 191.202 163.234 190.727C161.228 189.845 162.477 190.334 162.874 190.63C163.072 190.778 163.31 190.916 163.524 191.044C165.215 192.039 161.995 189.61 162.863 190.528C165.581 193.38 168.613 196.059 171.447 198.804C182.423 209.432 195.659 216.841 209.992 221.882C223.283 226.555 237.657 228.969 251.736 229.009C265.165 229.05 278.731 226.805 290.88 220.902C296.05 218.392 301.028 214.866 304.867 210.56C306.345 208.902 307.676 207.095 309.022 205.33C309.469 204.743 309.916 204.146 310.358 203.554C310.612 203.213 310.876 202.876 311.125 202.529C311.912 201.427 309.256 204.84 310.713 203.065C311.678 201.886 312.643 200.717 313.72 199.636C314.198 199.156 315.406 198.447 315.686 197.85C315.665 197.896 313.73 199.197 314.726 198.626C315.224 198.34 315.686 197.983 316.189 197.692C316.635 197.432 318.992 196.222 317.443 196.998C315.894 197.773 318.632 196.697 319.145 196.574C319.49 196.493 320.424 196.187 320.851 196.238C320.638 196.212 318.144 196.391 320.257 196.406C321.283 196.416 322.299 196.386 323.325 196.442C327.652 196.692 331.532 197.233 335.875 196.35C346.343 194.227 352.773 184.416 355.759 174.854C358.101 167.359 359.132 159.18 359.578 151.363C360.025 143.547 359.477 136.108 357.796 128.735C354.032 112.219 342.239 98.2132 325.178 94.9631C316.097 93.2334 306.869 93.5804 297.747 94.7845C289.056 95.9325 280.539 97.6775 272.22 100.499C255.494 106.163 240.196 114.892 226.717 126.316C220.713 131.403 215.238 137.077 210.332 143.236C208.371 145.7 206.985 148.067 206.985 151.353C206.985 154.17 208.229 157.532 210.332 159.471C214.522 163.333 222.445 164.43 226.493 159.471C240.049 142.848 247.292 122.628 248.247 101.193C249.141 81.0186 244.163 60.3545 234.325 42.7568C229.475 34.083 223.238 25.9245 215.949 19.1742C208.199 11.9953 199.153 5.64303 189.025 2.41331C178.466 -0.949077 166.52 -1.05112 156.383 3.66336C151.624 5.87774 147.327 9.74014 144.803 14.3883C140.876 21.6182 140.76 29.8634 142.949 37.6801C145.138 45.4967 148.211 52.7215 150.882 60.1606C153.731 68.0793 156.576 75.9929 159.425 83.9116C165.119 99.7439 170.812 115.576 176.506 131.408C182.103 127.087 187.695 122.765 193.292 118.444C150.582 90.1108 104.12 67.4823 55.6 51.1194C49.5407 49.0785 43.451 47.1346 37.3308 45.2977C31.2106 43.4609 25.1818 41.1649 19.0006 41.4455C10.3257 41.8384 2.31101 47.155 0.513045 56.1196C-0.822734 62.8087 0.772074 69.6712 2.40751 76.1715C7.77095 97.4632 18.7619 117.117 33.3031 133.434C49.4899 151.598 70.6694 165.298 93.8804 172.42C92.9713 165.425 92.0621 158.43 91.153 151.44C50.3838 181.752 24.7653 228.668 19.8031 279.262C18.4013 293.533 19.087 307.747 21.2354 321.906C21.6214 324.452 24.293 327.6 26.4871 328.769C29.1942 330.208 32.2822 330.789 35.2941 329.927C65.4431 321.268 91.6761 300.982 108.284 274.328C113.059 266.669 116.858 258.409 119.9 249.913C112.556 247.878 105.207 245.842 97.8624 243.811C87.3844 282.874 89.5328 325.753 104.821 363.265C106.928 368.439 108.914 373.48 112.825 377.597C117.549 382.577 124.344 384.516 130.977 383.246C141.181 381.291 147.301 370.429 149.821 361.209C154.214 345.111 154.082 327.748 153.574 311.202C153.01 292.783 151.842 274.374 152.797 255.939C153.051 251.016 153.442 246.092 154.006 241.194C154.077 240.566 154.158 239.944 154.229 239.316C154.483 237.117 154.229 239.137 154.189 239.541C154.326 238.27 154.549 237.005 154.742 235.744C155.169 233.015 155.646 230.295 156.185 227.586C157.566 220.626 159.369 213.805 161.584 207.07C166.419 192.386 170.289 177.671 173.265 162.476C173.926 159.109 174.54 155.716 175.404 152.389C175.688 151.302 176.033 150.246 176.384 149.18C177.034 147.21 174.926 151.812 175.967 150.221C176.054 150.093 176.551 148.96 176.714 148.981C176.876 149.001 174.677 151.481 175.48 150.624C175.607 150.491 175.739 150.348 175.881 150.236C176.165 150.006 173.067 152.246 174.215 151.542C174.367 151.45 174.52 151.348 174.682 151.277C174.185 151.501 171.371 152.445 173.215 151.991C173.052 152.032 169.735 152.501 172.194 152.256C173.794 152.098 170.096 152.221 170.355 151.996C170.396 151.96 171.066 152.139 171.188 152.175C171.762 152.353 172.336 152.542 172.91 152.721C174.53 153.236 170.066 151.297 172.412 152.568C173.103 152.945 173.788 153.323 174.454 153.746C174.992 154.088 175.51 154.466 176.038 154.818C177.481 155.782 175.129 154.098 175.068 154.042C175.327 154.302 175.668 154.527 175.952 154.767C177.207 155.833 178.39 156.981 179.492 158.2C179.787 158.527 181.564 160.787 180.269 159.032C178.974 157.277 180.64 159.593 180.869 159.945C181.224 160.486 181.559 161.037 181.879 161.599C182.057 161.915 182.225 162.231 182.387 162.553C183.047 163.869 182.448 164.053 182.088 161.726C182.174 162.282 182.489 162.849 182.636 163.4C182.722 163.711 182.758 164.042 182.86 164.349C183.291 165.614 182.682 161.379 182.661 162.701C182.651 163.287 182.651 163.94 182.677 164.522C182.448 159.553 183.317 163.838 182.58 163.854C182.321 163.854 184.317 160.66 183.068 162.548C182.824 162.915 182.595 163.343 182.372 163.721C181.676 164.91 181.859 163.471 182.971 163.017C182.768 163.099 182.189 163.905 182.088 164.007C181.707 164.405 179.792 165.986 181.27 164.874C182.748 163.762 181.463 164.726 181.082 164.956C180.604 165.247 180.137 165.558 179.65 165.833C179.253 166.058 178.842 166.247 178.446 166.466C176.831 167.379 179.04 166.226 179.294 166.155C178.41 166.4 177.547 166.818 176.663 167.094C174.723 167.701 172.752 168.048 170.761 168.441C169.497 168.691 172.092 168.277 172.021 168.282C171.554 168.298 171.066 168.395 170.599 168.436C169.654 168.527 168.709 168.594 167.765 168.64C165.296 168.762 162.813 168.752 160.339 168.706C157.866 168.66 155.438 168.558 152.99 168.39C150.542 168.221 148.079 167.578 145.752 167.686C146.032 167.67 148.444 168.083 146.387 167.767C145.996 167.706 145.605 167.65 145.219 167.589C144.213 167.43 143.208 167.257 142.202 167.073C140.231 166.706 138.266 166.282 136.321 165.787C134.695 165.374 133.085 164.915 131.49 164.389C130.861 164.18 130.231 163.966 129.606 163.736C128.743 163.42 125.843 162.165 129.672 163.823C126.737 162.553 124.085 161.777 120.865 162.665C118.214 163.4 115.339 165.456 114.034 167.941C111.433 172.885 112.271 181.11 118.133 183.645C125.548 186.86 133.095 188.88 141.1 190.018C151.009 191.426 161.314 192.416 171.31 191.314C181.148 190.232 191.479 187.543 198.477 179.987C205.38 172.533 207.305 163.15 203.358 153.761C200.128 146.077 194.465 139.99 187.801 135.138C181.879 130.827 173.809 127.776 166.51 130.005C159.009 132.296 155.235 139.103 153.371 146.266C151.263 154.348 150.069 162.68 148.221 170.828C146.479 178.502 144.427 186.094 141.994 193.579C140.231 198.988 138.337 204.35 136.844 209.84C131.45 229.698 129.591 250.556 129.56 271.093C129.535 289.14 131.049 307.156 130.927 325.202C130.896 329.452 130.769 333.698 130.47 337.938C130.343 339.764 130.18 341.586 129.977 343.402C129.931 343.8 129.571 347.188 129.784 345.111C129.972 343.274 129.804 344.902 129.733 345.366C129.642 345.958 129.55 346.55 129.449 347.137C129.134 349.014 128.773 350.882 128.352 352.739C127.895 354.76 127.011 356.709 126.579 358.709C126.635 358.449 127.778 356.229 126.884 357.913C126.665 358.326 126.472 358.755 126.249 359.168C126 359.632 124.791 361.02 124.806 361.505C124.796 361.24 126.686 359.459 125.365 360.729C125.071 361.015 124.756 361.336 124.481 361.637C123.577 362.627 123.968 361.143 125.365 360.974C125.06 361.01 123.141 362.137 125.182 361.194C126.752 360.469 125.909 360.867 125.462 360.979C128.443 360.219 127.691 360.816 126.767 360.755C129.906 360.979 128.799 361.143 127.966 360.903C126.117 360.372 128.59 361.173 128.794 361.265C127.133 360.515 129.378 361.464 129.474 361.836C129.505 361.954 128.575 360.816 128.519 360.826C129.068 360.724 129.88 362.867 129.047 361.423C128.682 360.79 128.306 360.178 127.966 359.525C127.564 358.75 127.29 357.571 126.752 356.903C126.955 357.153 127.681 359.199 126.863 357.147C126.64 356.586 126.411 356.03 126.193 355.474C125.253 353.096 124.365 350.698 123.532 348.28C120.296 338.892 117.858 329.233 116.238 319.432C116.04 318.243 115.857 317.054 115.685 315.86C115.629 315.467 115.38 313.523 115.578 315.151C115.776 316.778 115.547 314.835 115.497 314.437C115.192 311.896 114.943 309.35 114.745 306.798C114.369 301.844 114.191 296.875 114.222 291.91C114.252 286.946 114.486 281.976 114.928 277.032C115.141 274.639 115.354 272.231 115.715 269.853C115.273 272.766 115.827 269.2 115.949 268.435C116.157 267.098 116.385 265.761 116.624 264.429C117.508 259.541 118.61 254.699 119.895 249.898C121.449 244.107 117.955 237.158 111.916 235.775C105.491 234.306 100.026 237.734 97.8573 243.791C97.3037 245.332 96.7044 246.847 96.1152 248.373C95.5616 249.811 97.0192 246.306 96.3945 247.714C96.2422 248.056 96.0949 248.408 95.9425 248.75C95.5362 249.669 95.1197 250.582 94.688 251.49C93.2354 254.551 91.6355 257.546 89.9137 260.465C88.1919 263.383 86.333 266.225 84.3624 268.975C83.8494 269.69 83.3161 270.389 82.8031 271.098C82.0565 272.129 83.4583 270.241 83.4481 270.271C83.3059 270.623 82.7218 271.195 82.5187 271.455C81.4216 272.828 80.2941 274.18 79.1411 275.501C74.5954 280.7 69.6028 285.502 64.2292 289.828C63.9448 290.058 63.6095 290.277 63.3454 290.532C63.3353 290.543 65.184 289.134 64.1733 289.89C63.4673 290.415 62.7715 290.951 62.0655 291.466C60.6485 292.502 59.206 293.502 57.7433 294.471C54.8178 296.41 51.8059 298.216 48.7179 299.88C47.0621 300.773 45.3911 301.62 43.6948 302.426C42.7907 302.854 41.8816 303.273 40.9673 303.681C38.565 304.747 42.3844 303.14 40.5864 303.849C36.8483 305.319 33.0847 306.656 29.2247 307.763C33.9126 310.436 38.5954 313.11 43.2834 315.778C43.2377 315.482 43.1665 313.661 42.9481 313.508L43.1513 315.044C43.0853 314.539 43.0243 314.033 42.9634 313.528C42.8161 312.263 42.679 310.998 42.5621 309.727C42.2777 306.686 42.0847 303.635 41.9781 300.584C41.7851 294.992 41.8866 289.39 42.2777 283.803C42.4707 281.012 42.7399 278.226 43.0802 275.445C43.1411 274.94 43.2173 274.435 43.2732 273.93C42.9024 277.333 43.1869 274.649 43.2884 273.955C43.5119 272.445 43.7608 270.94 44.03 269.435C45.0305 263.792 46.3206 258.199 47.8849 252.689C49.4493 247.179 51.293 241.74 53.4007 236.408C53.6344 235.816 53.8731 235.224 54.1118 234.632C54.513 233.647 54.3759 232.51 53.9899 234.908C54.188 233.668 55.1632 232.209 55.6863 231.061C56.9002 228.392 58.1801 225.759 59.526 223.157C62.1011 218.188 64.925 213.34 67.9724 208.646C69.4961 206.299 71.0808 203.993 72.7213 201.728C73.4069 200.779 74.0977 199.422 74.9916 198.666C72.9041 200.427 74.4837 199.325 75.0729 198.58C75.7027 197.784 76.3375 196.988 76.9826 196.202C80.9239 191.391 85.1445 186.804 89.6141 182.487C91.8945 180.283 94.2461 178.145 96.6586 176.084C97.8167 175.094 98.9899 174.119 100.178 173.165C100.702 172.747 102.54 170.961 100.26 173.073C100.991 172.395 101.895 171.829 102.692 171.237C106.487 168.415 108.813 164.757 108.147 159.797C107.538 155.241 104.358 151.603 99.96 150.251C97.6135 149.532 95.2873 148.751 92.9865 147.884C92.0672 147.537 91.153 147.18 90.2439 146.812L89.5633 146.532C88.4256 146.057 88.6592 146.154 90.2591 146.827C90.2337 146.629 88.4103 146.001 88.2427 145.93C84.0068 143.991 79.8878 141.802 75.9058 139.383C73.9148 138.174 71.9543 136.904 70.0345 135.587C69.1253 134.96 68.2213 134.322 67.3274 133.674C66.8296 133.312 66.337 132.949 65.8443 132.577C63.5232 130.832 67.3121 133.791 65.5294 132.347C61.8928 129.403 58.3782 126.347 55.0463 123.056C51.7145 119.765 48.4132 116.117 45.3962 112.382C45.0102 111.903 44.6293 111.418 44.2484 110.938C42.9126 109.26 44.6496 111.51 44.6852 111.505C44.4007 111.53 42.6993 108.811 42.5012 108.53C41.074 106.525 39.7027 104.479 38.3923 102.397C35.8375 98.3357 33.5164 94.1314 31.4442 89.8047C30.9668 88.8047 30.4995 87.8046 30.0525 86.7893C29.8037 86.228 29.5599 85.6617 29.3161 85.1004C28.6507 83.58 30.3827 87.8097 29.4786 85.4576C28.5746 83.1054 27.7111 80.8707 26.929 78.5338C25.451 74.0949 24.232 69.5743 23.2975 64.9873C23.1502 64.2628 23.0283 63.5281 22.8759 62.8087C22.6829 61.9158 23.0029 61.1453 22.9419 63.625C22.9521 63.1403 22.8353 62.5995 22.815 62.1097L22.7946 61.3545C22.8556 60.0739 22.7743 60.3494 22.5559 62.1913C22.6067 62.1607 22.8962 60.6964 22.9013 60.7933C22.9521 61.6811 21.9515 62.7679 21.3827 63.3903C22.6778 61.9719 19.859 64.6761 19.0717 64.5128L19.6965 64.3087C20.9002 64.0434 20.5548 64.0689 18.6502 64.3853C18.9803 64.6098 22.8556 64.3139 20.6716 64.3649C18.7822 64.4108 20.8189 64.4465 21.2963 64.5588C21.7738 64.671 22.2258 64.7833 22.688 64.9057C25.5576 65.6659 28.4069 66.5435 31.2512 67.4007C37.0819 69.1508 42.8821 70.9978 48.657 72.9316C59.7698 76.6562 70.7659 80.7278 81.6299 85.1259C84.3116 86.2127 86.9933 87.2995 89.6496 88.4424C87.4301 87.4832 88.9741 88.1567 89.4414 88.3557C90.1423 88.6567 90.8381 88.9577 91.539 89.2588C93.0779 89.9221 94.6118 90.5956 96.1406 91.2742C101.57 93.6773 106.959 96.1672 112.312 98.7388C136.331 110.28 159.542 123.495 181.757 138.23C185.562 140.756 191.021 139.996 194.45 137.332C197.878 134.669 200.088 129.561 198.544 125.265C189.208 99.3 179.868 73.3346 170.533 47.3693C169.395 44.2008 168.252 41.0374 167.115 37.8689C165.977 34.7004 164.255 31.1849 164.159 27.8736C164.24 30.5931 164.26 28.6032 164.291 28.1593V27.2358C164.372 25.9092 164.331 26.0061 164.159 27.5215C164.275 27.4807 164.895 25.0061 164.915 24.8581C164.895 24.9806 163.554 27.5419 164.413 26.1592C164.682 25.7255 164.936 25.2765 165.195 24.8377C165.865 23.7101 165.566 25.4857 164.316 25.95C164.656 25.8224 165.261 24.9704 165.525 24.6846C167.069 23.0417 163.143 26.1592 165.403 24.7816C166.139 24.3326 166.942 23.9958 167.673 23.5468C164.534 25.4551 166.744 23.9448 167.953 23.5979C169.029 23.2866 170.137 23.1591 171.218 22.8784C167.582 23.8224 170.34 23.0009 171.63 22.9397C172.62 22.8938 173.611 22.8887 174.601 22.9193C175.591 22.9499 176.612 23.0468 177.618 23.1387C178.517 23.2152 179.269 23.7203 176.394 22.9703C177.075 23.1489 177.811 23.2101 178.507 23.3479C180.401 23.7356 182.27 24.251 184.094 24.8887C184.637 25.0826 185.221 25.399 185.785 25.5214C185.683 25.4959 183.083 24.2765 184.698 25.0673C185.765 25.5877 186.821 26.1082 187.857 26.6949C189.701 27.7409 191.494 28.8685 193.241 30.0675C194.11 30.6645 194.958 31.2921 195.811 31.9094C196.426 32.3533 197.218 33.2666 194.998 31.2666C195.542 31.7564 196.151 32.185 196.71 32.6544C200.006 35.4045 203.079 38.4301 205.898 41.67C206.584 42.4609 207.259 43.2619 207.919 44.0783C208.173 44.3946 208.422 44.762 208.702 45.063C206.441 42.6191 207.93 44.0579 208.437 44.7416C209.748 46.5172 210.987 48.3438 212.165 50.2112C214.466 53.8746 216.508 57.6962 218.286 61.6454C218.504 62.1301 218.702 62.6199 218.926 63.0995C219.581 64.5077 217.803 60.2882 218.631 62.4107C219.017 63.4005 219.408 64.3853 219.774 65.3802C220.541 67.4721 221.237 69.5947 221.861 71.7325C223.08 75.9164 224.03 80.1819 224.7 84.4933C224.756 84.8657 225.036 87.0189 224.771 84.8606C224.507 82.7024 224.766 84.8606 224.812 85.2331C224.934 86.2893 225.041 87.3454 225.132 88.4067C225.32 90.6313 225.437 92.861 225.472 95.0906C225.513 97.5295 225.472 99.9684 225.33 102.402C225.259 103.668 225.158 104.933 225.036 106.198C224.995 106.617 224.949 107.04 224.904 107.459C224.858 107.877 224.807 108.3 224.756 108.719C225.015 106.821 225.081 106.326 224.954 107.234C224.142 112.025 223.227 116.74 221.775 121.388C221.054 123.694 220.084 125.908 219.322 128.194C220.531 124.577 219.119 128.582 218.692 129.48C218.194 130.526 217.676 131.556 217.138 132.577C216.005 134.72 214.776 136.807 213.45 138.832C212.755 139.894 212.033 140.939 211.287 141.965C211.043 142.302 210.743 142.639 210.53 142.991C212.369 140.001 210.916 142.47 210.342 143.174L226.503 159.41C231.491 153.144 237.073 147.384 243.193 142.23C243.904 141.628 244.625 141.036 245.352 140.455C247.591 138.659 244.234 141.261 245.875 140.036C247.515 138.812 249.308 137.511 251.071 136.312C254.377 134.067 257.795 131.985 261.3 130.072C262.935 129.179 264.591 128.322 266.267 127.5C267.105 127.092 267.948 126.689 268.791 126.301C269.462 125.99 273.078 124.643 270.081 125.684C273.855 124.372 277.507 122.775 281.331 121.587C285.156 120.398 288.752 119.474 292.531 118.689C294.481 118.28 296.446 117.923 298.417 117.612C298.813 117.551 299.204 117.5 299.601 117.433C301.19 117.173 297.335 117.699 298.935 117.52C299.992 117.403 301.048 117.27 302.104 117.168C306.264 116.76 310.465 116.53 314.65 116.668C315.686 116.704 316.722 116.76 317.758 116.852C318.083 116.882 319.368 116.887 319.52 117.035C319.566 117.081 317.291 116.607 318.667 116.954C319.663 117.204 320.683 117.347 321.674 117.612C322.238 117.76 322.801 117.928 323.36 118.107C323.675 118.209 326.047 119.005 324.457 118.464C323.137 118.015 325.397 118.969 325.844 119.224C326.494 119.592 327.108 120.01 327.743 120.398C329.983 121.75 326.301 119.056 327.682 120.291C328.373 120.908 329.064 121.51 329.719 122.168C330.222 122.679 330.679 123.224 331.161 123.75C332.457 125.158 329.714 121.597 331.05 123.612C331.964 124.99 332.822 126.383 333.559 127.868C334.021 128.801 334.422 130.806 333.564 127.699C333.757 128.403 334.107 129.092 334.346 129.781C334.874 131.312 335.316 132.868 335.687 134.444C335.885 135.302 336.068 136.164 336.225 137.026C336.312 137.506 336.703 140.251 336.439 138.138C336.174 136.026 336.494 138.746 336.55 139.291C336.637 140.195 336.703 141.098 336.753 142.006C336.946 145.44 336.901 148.889 336.667 152.318C336.555 153.915 336.393 155.506 336.22 157.103C336.007 159.053 336.332 156.241 336.367 156.078C336.276 156.512 336.24 156.981 336.169 157.415C336.032 158.297 335.89 159.18 335.728 160.058C335.534 161.129 333.848 170.874 332.98 170.828C332.929 170.828 334.244 168.196 333.254 170.17C333.086 170.502 332.929 170.839 332.756 171.17C332.452 171.747 331.558 172.737 331.436 173.385C331.685 172.073 332.817 171.869 331.878 172.793C331.537 173.13 331.192 173.497 330.867 173.844C330.638 174.089 329.623 174.864 330.897 173.895C332.629 172.579 330.222 174.247 330.222 174.221C330.176 173.941 333.005 173.456 331.07 173.834C330.816 173.885 330.349 173.946 330.12 174.063C329.226 174.533 331.349 173.773 331.563 173.875C331.39 173.788 330.537 173.915 330.262 173.915C328.429 173.915 326.611 173.665 324.787 173.507C320.094 173.104 315.152 173.456 310.703 175.068C305.914 176.798 301.739 179.324 298.036 182.855C295.227 185.538 292.952 188.778 290.631 191.875C290.377 192.217 290.113 192.549 289.869 192.896C289.153 193.896 290.788 191.732 290.697 191.829C290.143 192.442 289.661 193.141 289.123 193.768C288.295 194.733 287.411 195.646 286.471 196.508C286.065 196.881 285.623 197.222 285.217 197.6C284.171 198.58 287.746 195.824 285.618 197.279C284.592 197.978 283.576 198.671 282.505 199.299C281.433 199.927 280.422 200.462 279.351 200.983C278.802 201.248 278.228 201.478 277.69 201.753C281.143 199.988 278.645 201.35 277.7 201.707C275.084 202.697 272.397 203.488 269.675 204.131C268.344 204.442 267.009 204.718 265.668 204.957C264.982 205.08 264.296 205.197 263.611 205.299C260.568 205.769 265.871 205.08 263.347 205.33C260.335 205.631 257.333 205.866 254.311 205.932C251.071 205.998 247.825 205.922 244.595 205.702C242.944 205.59 241.294 205.447 239.648 205.264C238.876 205.177 238.104 205.034 237.332 204.988C237.489 204.998 240.298 205.427 238.378 205.126C237.936 205.054 237.494 204.993 237.053 204.922C230.369 203.866 223.771 202.258 217.361 200.09C215.868 199.585 214.385 199.049 212.917 198.483C212.11 198.171 211.251 197.707 210.418 197.483C210.327 197.457 212.734 198.508 211.602 197.983C211.094 197.748 210.581 197.534 210.068 197.304C207.046 195.937 204.09 194.421 201.225 192.753C198.361 191.084 195.735 189.294 193.099 187.385C191.519 186.242 195.212 189.135 193.139 187.411C192.571 186.936 191.992 186.472 191.433 185.987C189.792 184.574 188.228 183.079 186.684 181.564C180.274 175.262 173.133 166.512 163.056 168.874C152.868 171.262 152.38 182.451 153.731 190.722C155.118 199.223 158.196 207.575 161.253 215.601C162.523 218.927 163.92 222.208 165.388 225.453C168.923 233.26 173.021 240.806 177.283 248.23C184.551 260.893 192.383 273.231 200.423 285.41C212.816 304.186 225.752 322.595 238.922 340.825C257.81 366.974 277.222 392.741 296.883 418.308C303.069 426.354 309.276 434.38 315.508 442.391C317.184 444.544 321.014 445.753 323.589 445.753C326.392 445.753 329.739 444.503 331.669 442.391C336.276 437.35 335.616 431.227 331.669 426.155L331.654 426.252Z" fill="#F17BB0"/>
<path d="M269.751 332.907C270.172 331.131 270.65 329.376 271.209 327.641C271.468 326.835 271.747 326.034 272.036 325.238C272.204 324.784 272.382 324.335 272.549 323.881C273.088 322.447 272.473 324.131 272.224 324.611C273.906 321.376 275.338 318.095 277.288 315.003C278.258 313.467 279.325 312.008 280.361 310.518C281.077 309.493 279.65 311.421 279.67 311.396C279.99 311.044 280.275 310.63 280.574 310.258C281.26 309.411 281.966 308.584 282.692 307.768C285.11 305.048 287.72 302.502 290.499 300.161C290.773 299.926 292.515 298.732 292.469 298.548C292.49 298.63 290.179 300.257 291.89 299.018C292.185 298.803 292.474 298.584 292.769 298.375C294.343 297.237 295.954 296.16 297.609 295.15C299.158 294.201 300.738 293.308 302.353 292.471C303.105 292.084 303.862 291.706 304.628 291.344C304.954 291.186 305.284 291.033 305.614 290.885C305.812 290.793 308.031 289.823 306.239 290.589C304.446 291.354 307.143 290.247 307.564 290.089C308.468 289.747 309.377 289.425 310.292 289.124C312.008 288.553 313.745 288.053 315.498 287.614C317.25 287.175 319.017 286.813 320.8 286.517C321.156 286.456 321.516 286.41 321.872 286.349C323.395 286.094 319.444 286.614 320.983 286.476C321.943 286.39 322.898 286.277 323.863 286.206C325.671 286.078 327.484 286.022 329.292 286.048C330.14 286.058 330.994 286.15 331.837 286.134C333.34 286.109 329.561 285.522 330.994 285.986C332.055 286.328 332.583 286.941 330.608 285.721C330.892 285.895 327.261 282.068 328.21 283.466C329.038 284.685 327.58 281.323 327.936 282.777C328.185 283.787 328.551 284.782 328.845 285.777C329.612 288.349 330.374 290.92 331.141 293.492C334.01 303.135 336.875 312.778 339.745 322.422C341.177 327.243 342.614 332.065 344.047 336.887C344.702 339.086 345.159 341.524 346.053 343.637L346.312 344.56C346.632 342.759 346.957 340.963 347.277 339.162C348.862 335.744 351.127 335.999 349.308 336.902C349.588 336.764 351.823 336.085 349.999 336.55C349.517 336.672 349.039 336.83 348.552 336.953C347.587 337.198 346.617 337.381 345.636 337.57C343.59 337.963 348.267 337.33 345.367 337.575C343.518 337.734 341.654 337.764 339.801 337.703C337.947 337.642 336.047 337.443 334.173 337.244C332.873 337.106 335.361 337.407 335.326 337.397C334.859 337.269 334.3 337.239 333.818 337.162C332.807 336.994 331.796 336.815 330.79 336.616C314.426 333.458 297.944 327.452 281.163 331.58C262.783 336.101 250.898 353.03 239.963 367.245C228.118 382.633 217.168 398.654 207.376 415.441C197.614 432.181 185.125 453.84 195.912 473.096C200.036 480.459 207.731 486.699 216.045 488.434C226.772 490.668 236.951 486.25 242.715 476.831C247.479 469.045 248.632 459.131 250.567 450.376C252.736 440.549 254.91 430.722 257.079 420.9C258.166 415.987 259.248 411.073 260.334 406.16C261.625 400.313 258.577 393.46 252.355 392.037C246.57 390.715 239.683 393.787 238.297 400.052C233.99 419.558 230.064 439.197 225.34 458.606C224.924 460.32 224.35 461.968 223.857 463.662C223.43 465.127 224.858 461.637 224.172 462.984C224.004 463.31 223.862 463.652 223.694 463.973C223.471 464.402 223.237 464.831 222.983 465.244C222.775 465.586 221.622 467.412 222.628 465.841C223.801 464.004 221.526 466.856 221.521 466.749C221.495 466.392 223.832 465.387 222.211 466.096C221.952 466.208 221.297 466.509 221.135 466.662C221.267 466.54 223.4 465.999 222.476 466.035C222.14 466.05 221.648 466.198 221.338 466.326C220.398 466.713 222.851 466.101 222.928 466.127C222.623 466.04 221.815 466.142 221.46 466.162C218.996 466.29 223.522 466.749 221.841 466.239C221.272 466.065 220.078 465.535 219.504 465.54C219.54 465.54 221.724 466.678 220.805 466.086C220.459 465.861 220.053 465.708 219.687 465.504C219.149 465.203 216.99 463.621 218.448 464.82C220.007 466.101 217.97 464.366 217.635 464.045C217.158 463.586 216.442 462.427 215.878 462.132C215.944 462.167 217.183 464.132 216.691 463.157C216.498 462.78 216.208 462.433 215.985 462.07C215.67 461.55 214.471 459.055 215.253 460.851C216.076 462.744 215.04 459.938 214.933 459.483C214.903 459.356 214.73 458.284 214.689 458.279C215.06 458.325 214.796 460.509 214.766 458.647C214.75 457.601 214.679 456.565 214.72 455.519C214.74 454.922 214.816 454.33 214.842 453.733C214.908 452.121 214.268 456.453 214.877 453.672C215.334 451.585 215.842 449.539 216.533 447.519C216.731 446.937 216.955 446.361 217.163 445.784L217.33 445.35C217.569 444.748 217.554 444.774 217.28 445.432L217.061 445.947C217.244 445.519 217.432 445.095 217.625 444.672C217.945 443.962 218.275 443.258 218.61 442.559C222.669 434.166 227.544 426.115 232.425 418.186C237.337 410.201 242.507 402.379 247.916 394.731C250.623 390.909 253.391 387.128 256.22 383.394C256.596 382.899 256.967 382.388 257.353 381.904C257.094 382.225 255.966 383.69 257.282 382.001C257.952 381.138 258.623 380.276 259.298 379.414C260.746 377.572 262.209 375.745 263.687 373.929C266.526 370.439 269.375 366.944 272.443 363.658C273.763 362.245 275.125 360.872 276.557 359.576C276.775 359.377 278.72 358.035 278.741 357.704C278.71 358.28 277.019 358.913 278.38 358.01C278.949 357.632 279.492 357.229 280.066 356.862C280.869 356.347 281.687 355.862 282.53 355.413C282.779 355.28 283.932 354.821 283.992 354.678C283.977 354.709 281.9 355.479 283.053 355.066C284.907 354.403 286.745 353.801 288.68 353.408C289.153 353.311 289.635 353.244 290.108 353.153C291.362 352.903 288.817 353.316 288.863 353.321C289.772 353.387 290.839 353.142 291.758 353.107C293.592 353.035 295.425 353.081 297.254 353.209C298.117 353.27 298.981 353.362 299.844 353.443C301.926 353.642 299.179 353.438 299.036 353.316C299.194 353.454 300.433 353.525 300.53 353.54C302.414 353.841 304.293 354.204 306.162 354.596C310.093 355.418 313.989 356.387 317.9 357.285C326.011 359.153 334.432 360.888 342.792 360.673C347.206 360.561 351.858 360.03 356.084 358.683C363.25 356.403 369.574 350.637 368.959 342.443C368.543 336.866 366.247 331.284 364.657 325.952C363.225 321.131 361.788 316.309 360.355 311.488C357.486 301.844 354.621 292.201 351.751 282.558C349.877 276.251 348.298 269.94 342.437 266.103C338.058 263.235 332.563 263.001 327.484 263.077C294.059 263.577 263.697 285.757 251.055 316.437C249.669 319.809 248.551 323.264 247.708 326.81C246.327 332.641 249.531 339.519 255.687 340.933C261.553 342.275 268.263 339.162 269.746 332.917L269.751 332.907Z" fill="#F17BB0"/>
</g>
<defs>
<clipPath id="clip0_448_832">
<rect width="369" height="489" fill="white"/>
</clipPath>
</defs>
</svg>
