<svg width="444" height="473" viewBox="0 0 444 473" fill="none" xmlns="http://www.w3.org/2000/svg">
<g clip-path="url(#clip0_448_810)">
<path d="M294.015 63.5719C292.336 67.323 290.547 71.0166 288.624 74.6466C288.105 75.628 287.575 76.6012 287.04 77.5703C286.811 77.9822 285.041 81.2444 286.296 78.9197C285.238 80.8803 283.996 82.7648 282.797 84.6482C277.939 92.2821 272.495 99.5234 266.555 106.35L279.27 102.924C270.068 98.456 259.591 96.1275 249.357 97.4378C239.679 98.6773 230.295 103.279 223.176 109.9C216.058 116.521 209.601 124.488 203.068 131.892C195.873 140.046 188.748 148.258 181.695 156.532C153.483 189.631 126.429 223.709 100.589 258.677C87.6684 276.158 75.0497 293.869 62.7444 311.787C56.6161 320.712 50.2137 329.505 45.7197 339.393C44.5148 342.048 43.2621 344.565 42.4997 347.382C41.5559 350.855 41.3915 354.159 41.6184 357.781C42.0943 365.33 45.0599 372.916 48.2995 379.675C51.8655 387.126 56.2238 394.219 60.5989 401.223C68.3915 413.7 77.5272 425.246 88.7649 434.834C102.344 446.422 118.58 453.494 135.907 457.387C156.037 461.915 177.172 457.879 193.303 444.741C203.621 436.335 210.764 425.562 217.539 414.323C221.585 407.609 225.679 400.927 229.778 394.245C242.121 374.114 254.543 354.036 266.976 333.965C280.914 311.459 294.884 288.972 308.875 266.497C319.483 249.46 330.091 232.423 340.762 215.425C343.273 211.426 345.768 207.42 348.326 203.448C352.416 197.09 355.443 190.702 357.001 183.257C359.176 172.876 357.375 161.806 353.509 152.043C350.43 144.265 345.872 136.983 340.081 130.937L341.543 141.682C351.715 121.697 361.887 101.708 372.06 81.723C374.62 76.6957 371.432 69.5687 366.249 67.6811C360.42 65.5539 354.892 68.1227 352.161 73.4866C341.988 93.4714 331.816 113.461 321.643 133.446C320.06 136.557 320.66 141.641 323.105 144.19C324.89 146.053 326.572 148.003 328.101 150.079C328.701 150.894 329.278 151.726 329.828 152.571C329.76 152.465 330.581 153.775 330.59 153.769C329.815 152.438 329.626 152.122 330.026 152.819C330.184 153.096 330.343 153.374 330.497 153.656C331.878 156.167 333.058 158.796 334.066 161.478C334.375 162.299 334.662 163.127 334.931 163.968C335.058 164.37 335.16 164.799 335.311 165.198C334.347 162.621 334.909 163.667 335.08 164.391C335.606 166.618 336.041 168.857 336.264 171.135C336.333 171.824 336.379 172.512 336.414 173.201C336.431 173.57 336.427 175.387 336.456 173.899C336.489 172.116 336.374 175.038 336.372 175.096C336.334 175.699 336.276 176.304 336.207 176.901C336.072 178.072 335.882 179.239 335.643 180.395C335.556 180.816 335.472 181.555 335.278 181.977C336.37 179.592 335.345 181.616 335.138 182.227C334.539 184 333.817 185.732 332.981 187.407C332.625 188.125 332.21 188.808 331.854 189.526C331.823 189.588 333.373 187.05 332.552 188.299C332.347 188.606 332.163 188.925 331.964 189.237C331.545 189.891 331.122 190.541 330.703 191.196C329.619 192.89 328.549 194.587 327.476 196.29C318.463 210.585 309.534 224.931 300.594 239.274C287.335 260.551 274.1 281.839 260.883 303.144C247.666 324.449 235.079 344.776 222.236 365.63C213.312 380.12 204.709 394.841 195.6 409.217C193.905 411.89 192.125 414.508 190.211 417.034C189.186 418.387 188.124 419.712 187.019 421C186.481 421.627 185.932 422.251 185.377 422.862C185.024 423.252 184.66 423.629 184.301 424.015C183.104 425.306 183.988 424.019 184.668 423.652C183.131 424.469 181.655 426.486 180.29 427.611C178.717 428.905 177.084 430.124 175.386 431.252C175.001 431.507 174.608 431.748 174.222 432.003C172.684 433.022 174.596 431.764 174.829 431.665C173.865 432.076 172.946 432.711 172.008 433.176C170.035 434.158 168 435.018 165.919 435.744C165.278 435.966 164.628 436.166 163.985 436.378C163.342 436.591 162.329 437.245 164.205 436.324C163.24 436.798 161.885 436.857 160.828 437.049C158.398 437.485 155.945 437.752 153.479 437.851C153.291 437.857 150.698 437.844 152.566 437.893C154.176 437.934 152.481 437.876 152.079 437.863C150.952 437.828 149.826 437.76 148.701 437.662C146.579 437.479 144.465 437.188 142.364 436.809C140.556 436.486 138.758 436.095 136.972 435.654C136.197 435.465 133.031 434.469 136.524 435.56C135.666 435.292 134.791 435.073 133.93 434.824C129.994 433.678 126.128 432.368 122.369 430.745C120.515 429.946 118.691 429.081 116.902 428.154C116.075 427.726 115.26 427.278 114.446 426.835C112.666 425.867 115.053 427.143 115.039 427.178C115.053 427.143 113.517 426.262 113.285 426.116C109.9 424.013 106.655 421.693 103.568 419.178C102.242 418.101 100.944 416.981 99.6764 415.838C98.9759 415.201 98.2883 414.552 97.5959 413.904C97.0139 413.357 96.1684 412.152 97.994 414.308C97.6656 413.919 97.2609 413.574 96.9066 413.208C94.4529 410.699 92.1192 408.077 89.8985 405.362C85.8118 400.372 82.1099 395.083 78.6482 389.641C77.1779 387.326 75.7478 384.985 74.3401 382.633C74.0081 382.075 73.6768 381.523 73.3448 380.966C73.1567 380.649 72.6205 379.763 73.3883 381.037C74.456 382.81 72.9066 380.197 72.8243 380.054C71.5511 377.837 70.3269 375.589 69.1755 373.307C67.3554 369.7 65.7007 365.993 64.4105 362.159C64.1352 361.343 63.9374 360.493 63.639 359.686C63.6537 359.722 64.3576 362.552 63.988 360.901C63.9132 360.564 63.8248 360.234 63.75 359.897C63.4421 358.522 63.2047 357.133 63.0718 355.729C63.0112 355.106 63.0035 354.481 62.9619 353.855C62.8735 352.566 62.8071 357.052 62.9748 355.372C62.9996 355.127 62.9987 354.872 63.0187 354.628C63.0559 354.156 63.108 353.686 63.1845 353.218C63.4014 351.863 64.293 350.884 62.8859 353.972C63.9242 351.691 64.8709 349.341 65.9181 347.054C66.7423 345.26 67.6346 343.505 68.5472 341.757C69.4598 340.009 68.5931 341.596 68.4289 341.917C68.7736 341.254 69.2102 340.626 69.613 339.997C70.426 338.726 71.2869 337.486 72.1269 336.234C75.0438 331.915 77.9822 327.612 80.9361 323.316C86.9294 314.608 92.9922 305.947 99.1352 297.344C123.606 263.039 149.227 229.551 175.952 196.959C189.359 180.606 203.044 164.475 217.002 148.582C223.422 141.266 229.918 134.017 236.454 126.805C237.458 125.695 235.381 127.876 235.438 127.83C235.747 127.581 236.018 127.265 236.305 126.994C236.819 126.51 237.345 126.038 237.882 125.58C239.367 124.308 240.939 123.179 242.56 122.091C243.18 121.674 244.133 121.462 241.903 122.45C242.322 122.263 242.729 121.986 243.14 121.771C244.002 121.321 244.882 120.898 245.778 120.516C246.842 120.058 247.937 119.725 249.017 119.313C250.538 118.731 246.34 119.813 248.943 119.333C249.64 119.205 250.324 119.039 251.023 118.925C252.276 118.716 253.524 118.618 254.786 118.509C255.455 118.452 256.664 118.071 254.34 118.464C254.788 118.389 255.509 118.498 255.938 118.521C258.101 118.646 260.251 118.961 262.364 119.43C262.773 119.519 264.355 119.742 262.781 119.504C261.048 119.243 263.191 119.641 263.473 119.727C264.331 119.996 265.184 120.295 266.029 120.608C267.736 121.249 269.397 121.986 271.033 122.781C275.515 124.956 280.726 122.83 283.748 119.354C296.112 105.134 306.272 88.9962 313.964 71.8114C316.266 66.6696 313.518 59.7236 308.153 57.7695C302.787 55.8153 296.518 58.0897 294.064 63.5749L294.015 63.5719Z" fill="#F17BB0"/>
<path d="M301.429 63.5946C311.93 69.0136 322.401 74.4945 332.937 79.8462C343.197 85.057 353.856 89.6402 365.345 91.272C370.92 92.0653 376.951 87.7944 377.471 82.052C377.99 76.3096 374.202 70.8205 368.233 69.9701C366.838 69.7743 365.453 69.5387 364.075 69.2492C363.527 69.1309 362.982 68.9979 362.434 68.8796C360.421 68.4355 363.543 69.2492 362.285 68.8517C359.865 68.0822 357.465 67.3196 355.101 66.3932C350.092 64.4291 345.25 62.0568 340.46 59.6098C330.186 54.3672 319.958 49.0364 309.71 43.7419C304.688 41.153 297.509 44.4139 295.622 49.5474C293.469 55.4011 296.078 60.8241 301.433 63.5893L301.429 63.5946Z" fill="#F17BB0"/>
<path d="M332.069 57.0506C335.601 45.3902 339.138 33.7245 342.67 22.0641L331.277 28.5969C334.617 28.634 337.926 29.0126 341.188 29.7495L341.932 29.923C343.083 30.2145 342.922 30.1689 341.454 29.7856C342.132 29.7946 343.027 30.2608 343.654 30.4646C345.117 30.9498 346.564 31.4951 347.987 32.0821C350.993 33.3212 353.912 34.7697 356.76 36.3388C357.104 36.528 357.449 36.7172 357.79 36.9118C356.657 36.2564 356.431 36.1281 357.109 36.5226C357.898 36.9983 358.692 37.4638 359.477 37.9401C360.826 38.7636 362.159 39.6087 363.485 40.4692C366.103 42.1658 368.746 43.8639 371.285 45.6822C371.696 45.9684 372.1 46.2701 372.486 46.5886C371.923 46.2123 371.522 45.7175 371.275 45.1102C370.874 44.4756 370.653 43.7732 370.611 43.0031C370.729 41.2763 370.738 40.8415 370.645 41.6925C370.533 42.4981 370.651 42.1206 370.989 40.5567C370.611 41.3647 370.636 41.3709 371.074 40.5788C371.556 39.7904 371.537 39.7882 371.02 40.5717C370.735 40.9623 370.428 41.3366 370.11 41.6979C368.834 43.3364 371.729 40.4512 369.959 41.8003C369.333 42.2758 368.739 42.8144 368.12 43.3083C366.624 44.5044 365.128 45.691 363.632 46.8824C360.392 49.4628 357.151 52.0432 353.907 54.629C349.502 58.1388 348.25 65.2773 352.058 69.713C355.866 74.1487 362.471 75.2982 367.185 71.5438C370.927 68.5627 374.665 65.587 378.406 62.6058C382.148 59.6247 385.974 56.873 388.573 52.9873C391.996 47.8715 393.211 41.8849 390.791 36.0653C388.75 31.1531 384.055 28.3414 379.835 25.5279C366.241 16.4577 351.027 7.49222 334.164 7.29021C329.739 7.23688 324.238 8.97791 322.77 13.823C319.238 25.4833 315.701 37.1491 312.168 48.8094C310.54 54.1775 312.141 60.7254 317.979 62.8513C323.004 64.6832 330.331 62.7901 332.068 57.0459L332.069 57.0506Z" fill="#F17BB0"/>
<path d="M124.58 260.073C126.931 259.126 129.293 258.227 131.697 257.418C132.848 257.03 134.008 256.675 135.168 256.319C136.137 256.019 136.156 255.52 134.584 256.466C135.133 256.136 136.092 256.073 136.7 255.928C140.132 255.109 143.628 254.513 147.155 254.327C147.597 254.306 148.043 254.312 148.483 254.277C149.813 254.178 145.816 254.22 147.124 254.278C147.849 254.31 148.566 254.318 149.289 254.374C150.592 254.471 151.892 254.642 153.17 254.906C154.259 255.129 155.699 255.907 152.39 254.646C152.849 254.82 153.342 254.931 153.804 255.09C154.829 255.447 155.803 255.888 156.776 256.363C158.687 257.298 155.35 255.477 155.751 255.755C156.237 256.094 156.751 256.395 157.233 256.739C157.999 257.29 158.71 257.897 159.435 258.502C160.821 259.662 159.071 258.166 158.922 257.96C159.275 258.456 159.837 258.929 160.243 259.389C162.724 262.208 164.8 265.352 167.385 268.084C171.394 272.324 175.911 275.926 181.3 278.301C186.688 280.676 192.524 281.217 198.292 280.837C209.542 280.102 219.496 274.112 228.71 268.146C235.898 263.491 243.055 258.792 250.267 254.173C252.174 252.95 254.087 251.73 256.018 250.543C257.017 249.925 260.115 248.217 255.997 250.526C256.554 250.214 257.103 249.884 257.662 249.582C259.823 248.411 262.051 247.703 264.403 246.973C264.825 246.843 265.247 246.714 265.669 246.584C265.995 246.487 266.32 246.39 266.645 246.297C267.46 246.066 267.082 246.165 265.513 246.605C266.39 246.727 268.049 245.99 268.93 245.822C269.976 245.622 271.022 245.461 272.08 245.35C272.667 245.29 273.257 245.263 273.846 245.216C275.843 245.046 272.085 245.065 273.422 245.226C274.596 245.37 275.735 245.494 276.903 245.692C278.297 245.926 274.968 244.938 276.245 245.55C276.881 245.854 277.58 246.125 278.231 246.398C279.558 246.95 276.607 245.192 277.567 246.026C277.934 246.342 278.383 246.589 278.762 246.889C279.06 247.124 280.351 248.48 279.116 247.111C277.881 245.742 279.116 247.145 279.381 247.456C279.961 248.133 280.52 249.469 281.217 249.938C280.216 249.265 280.188 248.059 280.758 249.196C281.05 249.783 281.347 250.364 281.612 250.964C282.068 252.001 282.44 253.068 282.794 254.143C283.106 255.088 282.661 255.365 282.591 253.399C282.617 254.046 282.924 254.882 283.04 255.521C283.265 256.748 283.424 257.989 283.535 259.232C283.58 259.741 283.616 260.257 283.642 260.769C283.687 261.558 284.233 263.691 283.695 261.046C284.193 263.499 283.306 266.891 282.901 269.317C281.978 274.864 286.463 280.899 292.138 281.399C298.102 281.927 303.278 278.115 304.264 272.179C305.966 261.919 305.551 250.126 300.577 240.746C295.135 230.48 285.676 223.878 273.793 223.9C266.337 223.917 258.764 225.848 251.829 228.56C248.896 229.706 246.167 231.533 243.507 233.152C238.515 236.188 233.631 239.401 228.731 242.579C224.414 245.378 220.103 248.195 215.781 250.995C214.795 251.635 213.808 252.271 212.816 252.897C212.197 253.29 211.561 253.661 210.943 254.058C209.596 254.921 212.482 253.213 211.078 253.982C208.64 255.316 206.208 256.63 203.624 257.675C202.456 258.147 201.266 258.531 200.073 258.934C198.549 259.455 202.77 258.432 200.279 258.848C199.778 258.931 199.283 259.056 198.778 259.144C197.777 259.319 196.765 259.452 195.751 259.527C195.511 259.545 193.058 259.522 194.92 259.606C196.783 259.69 194.072 259.519 193.724 259.485C192.842 259.397 191.259 258.774 190.395 258.926C190.725 258.866 192.699 259.73 190.943 259.01C190.478 258.823 190.011 258.66 189.548 258.458C189.486 258.428 187.261 257.347 188.623 258.053C189.819 258.671 188.284 257.83 188.002 257.642C186.823 256.867 185.698 256.023 184.634 255.093C184.283 254.789 183.951 254.405 183.58 254.133C185.415 255.507 184.604 255.16 184.102 254.592C183.445 253.852 182.789 253.118 182.163 252.35C180.887 250.789 179.695 249.168 178.424 247.606C175.674 244.231 172.497 240.953 168.771 238.65C152.535 228.6 132.638 233.639 116.078 240.32C110.85 242.429 107.914 249.271 110.404 254.431C112.894 259.59 118.948 262.338 124.552 260.077L124.58 260.073Z" fill="#F17BB0"/>
</g>
<defs>
<clipPath id="clip0_448_810">
<rect width="390" height="424" fill="white" transform="translate(0 52.5728) rotate(-7.74716)"/>
</clipPath>
</defs>
</svg>
