<svg width="801" height="168" viewBox="0 0 801 168" fill="none" xmlns="http://www.w3.org/2000/svg">
<g clip-path="url(#clip0_430_190)">
<path d="M422.195 114.345C418.304 109.589 417.479 103.221 417.636 97.2073C417.754 92.8442 418.344 88.4417 420.034 84.3538C421.724 80.2658 424.475 76.4923 428.327 74.0552C433.515 70.7927 440.55 70.2031 446.249 72.6008C447.978 73.3084 449.629 74.3304 450.808 75.7061C452.223 77.357 452.852 79.4796 453.363 81.5629C454.817 87.7342 455.014 94.1806 454.031 100.47C453.206 105.58 451.398 110.847 447.232 114.227C444.913 116.114 442.044 117.254 439.135 118.04C436.187 118.826 433.082 119.259 430.095 118.748C427.108 118.237 424.161 116.743 422.588 114.267" fill="#231F20"/>
<path d="M88.5109 59.5508C89.4149 54.1656 90.2009 48.4268 88.1965 43.1596C86.192 37.8924 81.8293 35.0622 76.7199 33.1755C66.1866 29.2447 55.339 26.8077 44.0589 27.6331C32.661 28.4586 21.8133 30.8563 14.3457 40.2115C7.07458 49.3308 -0.471642 61.5948 -3.05474e-06 73.6621C0.196513 78.9686 2.04377 84.3931 6.32782 87.7735C11.5158 91.8615 18.1188 90.8002 24.1715 89.6996C38.0062 87.1446 51.7624 81.8381 66.0687 83.2925C78.8423 84.6289 90.083 93.0407 89.8079 106.68C89.5721 117.765 89.3756 135.257 76.2876 138.873C67.7981 141.232 57.933 139.62 49.5614 137.537C36.0804 134.156 23.071 128.693 10.7298 122.403C5.50245 119.73 0.903971 127.592 6.1313 130.265C23.8964 139.345 43.8624 148.032 64.1036 148.975C73.3791 149.408 83.4015 148.11 90.083 140.956C98.1402 132.309 98.9262 117.215 98.9655 105.973C99.0049 94.7309 92.9521 84.9041 83.1263 79.2831C71.6891 72.7581 57.9723 73.3084 45.4345 75.6668C38.7923 76.9247 32.2287 78.7328 25.6257 80.1479C19.9267 81.3664 11.7124 84.0393 9.58999 76.6102C7.97855 70.9499 10.1795 64.6607 12.7736 59.6687C15.3676 54.6766 18.5904 48.7412 22.6387 44.4567C31.0889 35.5339 47.2425 35.3767 58.4832 37.3421C63.8678 38.2854 69.1737 39.9757 74.2831 41.941C81.1612 44.6139 80.7682 50.7459 79.707 57.1137C78.7244 62.8526 87.5283 65.329 88.4716 59.5508H88.5109Z" fill="#231F20"/>
<path d="M118.342 22.2873C113.429 39.1895 111.267 57.4282 114.176 74.8807C115.198 81.0912 117.084 87.1839 117.988 93.4338C118.971 100.431 118.106 107.27 116.062 113.992C114.372 119.613 123.137 122.01 124.827 116.429C126.832 109.746 127.853 102.75 127.303 95.7922C126.832 89.7389 125.181 83.9214 123.962 77.986C120.307 60.2583 122.076 42.0197 127.107 24.7244C128.757 19.1034 119.953 16.6664 118.342 22.2873Z" fill="#231F20"/>
<path d="M119.167 46.5007C127.618 48.1516 135.518 41.7445 142.789 38.2068C151.317 34.0796 160.003 30.3847 168.729 26.6898C174.113 24.4099 169.476 16.5484 164.13 18.8283C156.938 21.8942 149.706 24.9602 142.592 28.262C139.173 29.8737 135.753 31.4853 132.413 33.2148C129.504 34.7085 125.063 38.3641 121.604 37.6958C115.866 36.5559 113.429 45.3608 119.167 46.4614V46.5007Z" fill="#231F20"/>
<path d="M133.985 72.0898C142.435 74.3697 150.924 76.6495 159.375 78.9293C165.034 80.4623 167.471 71.6575 161.811 70.1638C153.361 67.8839 144.872 65.6041 136.422 63.3243C130.762 61.7913 128.325 70.5962 133.985 72.0898Z" fill="#231F20"/>
<path d="M123.962 118.787C130.88 113.166 138.976 113.756 147.033 116.153C155.248 118.551 163.148 121.106 171.716 119.023C177.415 117.647 175.017 108.882 169.279 110.257C159.532 112.616 149.981 106.562 140.43 105.383C131.941 104.361 124.08 106.995 117.517 112.341C112.957 116.036 119.443 122.443 123.962 118.787Z" fill="#231F20"/>
<path d="M194.944 134.274C197.027 127.435 202.254 122.168 203.63 114.974C205.124 107.231 204.141 99.0154 204.613 91.154C205.635 74.1731 209.133 57.5068 214.674 41.43C216.6 35.8877 207.796 33.4899 205.91 38.993C200.446 54.7946 197.027 71.2251 195.73 87.9307C195.101 96.0281 196.162 104.558 194.865 112.537C193.726 119.573 188.223 125.037 186.179 131.837C184.489 137.458 193.254 139.856 194.944 134.274Z" fill="#231F20"/>
<path d="M208.74 50.8245C210.587 66.5868 214.714 81.3271 220.884 95.9101C228.941 114.974 237.863 133.645 246.117 152.631C247.768 156.444 253.388 154.95 254.449 151.53C261.052 130.265 261.681 107.82 264.707 85.8868C266.79 70.7141 266.083 56.2489 262.939 41.1156C261.76 35.3767 252.956 37.8138 254.174 43.5526C257.043 57.4675 257.593 71.343 255.746 84.8255C252.838 106.287 252.13 128.299 245.685 149.093L254.017 147.993C246.038 129.597 237.431 111.476 229.531 93.0407C223.714 79.4796 219.587 65.4862 217.897 50.7852C217.229 45.0463 208.111 44.9677 208.779 50.7852L208.74 50.8245Z" fill="#231F20"/>
<path d="M365.284 53.9691C351.253 40.8797 332.938 26.5718 313.168 37.3028C305.229 41.6266 299.098 48.9378 294.145 56.3276C288.8 64.307 285.656 73.3477 285.97 83.0173C286.285 91.7829 289.154 101.688 295.128 108.331C298.39 111.948 302.517 112.459 307.155 113.048C312.736 113.756 318.317 114.149 323.937 114.188C329.558 114.227 335.139 113.992 340.72 113.363C343.235 113.088 345.79 112.773 348.266 112.38C350.585 112.026 355.419 110.179 357.542 111.044C360.764 112.38 359.585 122.207 359.585 124.84C359.585 130.304 360.096 136.593 357.227 141.507C354.594 145.988 349.602 149.683 345.358 152.513C340.366 155.815 334.903 155.304 329.322 154.007C318.907 151.609 309.867 145.87 303.028 137.694C299.255 133.213 292.848 139.659 296.582 144.14C302.438 151.098 309.867 156.483 318.238 159.981C326.217 163.283 336.789 165.995 345.2 162.851C349.602 161.2 353.375 157.937 356.991 154.989C360.607 152.041 364.027 148.582 366.07 144.258C368.232 139.738 368.625 134.707 368.704 129.793C368.782 124.369 369.018 118.669 368.271 113.284C367.721 109.196 365.992 105.265 362.297 103.103C357.935 100.548 352.865 102.435 348.266 103.182C337.104 105.069 325.667 105.462 314.347 104.597C311.36 104.361 308.334 104.125 305.386 103.614C302.831 103.182 301.849 102.278 300.473 100.155C297.801 95.9888 296.071 91.2719 295.403 86.3584C294.028 76.2171 297.486 67.255 303.264 59.0791C309.081 50.9031 317.374 42.2948 328.182 42.5306C340.641 42.8058 350.349 52.3968 358.839 60.3762C363.123 64.3856 369.568 57.9392 365.284 53.9298V53.9691Z" fill="#231F20"/>
<path d="M503.042 151.923C511.885 137.026 517.427 120.477 519.196 103.261C520.139 93.9055 520.061 84.4717 520.65 75.0772C521.279 65.1717 522.222 55.2663 523.48 45.4001C524.227 39.5826 515.108 39.6612 514.362 45.4001C512.082 63.6387 511.728 81.8381 510.353 100.077C509.095 116.782 503.75 132.938 495.182 147.324C492.194 152.356 500.055 156.955 503.042 151.923Z" fill="#231F20"/>
<path d="M522.379 56.3276C527.607 53.9691 533.62 50.1563 539.319 50.0777C545.018 49.9991 550.599 52.043 555.276 54.9518C559.678 57.7033 563.805 61.6341 565.809 66.5082C569.583 75.5489 566.91 85.7295 561.722 93.591C559.128 97.5611 555.158 100.941 550.324 101.728C546.433 102.357 543.171 100.352 539.869 98.5831C535.939 96.4998 532.048 94.4165 528.157 92.3725C523.008 89.621 518.449 97.3252 523.558 100.234C528.864 103.261 537.079 104.99 538.847 111.515C539.633 114.424 539.948 117.333 540.97 120.202C545.214 131.994 552.053 142.922 558.617 153.496C561.683 158.488 569.583 153.889 566.478 148.897C560.032 138.519 552.682 127.513 549.066 115.721C547.926 112.026 547.808 108.174 545.922 104.676C542.345 98.0327 534.328 95.9101 528.157 92.3725C526.624 95.0061 525.091 97.6004 523.558 100.234C530.004 103.654 536.804 108.489 543.917 110.336C549.499 111.79 555.473 110.454 560.307 107.467C567.381 103.143 572.019 95.4778 574.613 87.7735C580.666 70.0065 572.412 52.5147 555.669 44.8498C549.852 42.2162 543.328 40.4474 536.921 41.0763C530.24 41.7445 523.834 45.7145 517.781 48.4268C512.436 50.8245 517.073 58.686 522.379 56.2882V56.3276Z" fill="#231F20"/>
<path d="M603.855 164.973C606.803 157.387 605.584 148.503 605.466 140.563C605.348 131.365 604.877 122.05 605.427 112.852C605.938 104.204 607.982 95.7136 608.846 87.1053C609.79 77.7501 609.868 68.3556 609.239 59.0005C608.846 53.183 599.728 53.1437 600.121 59.0005C600.711 67.8053 600.671 76.6495 599.885 85.4544C599.099 94.2592 597.095 102.553 596.387 111.201C595.68 119.848 596.152 129.125 596.269 138.048C596.387 145.87 597.881 155.146 595.012 162.576C592.889 168.039 601.693 170.398 603.776 165.013L603.855 164.973Z" fill="#231F20"/>
<path d="M630.66 48.2695C638.167 63.3636 638.167 80.5803 637.223 97.0501C636.712 106.051 636.044 115.053 635.415 124.054C634.865 131.955 633.686 140.249 635.573 148.071C637.538 156.129 642.49 160.492 650.822 160.885C658.172 161.2 665.482 158.291 670.828 153.338C676.055 148.464 679.121 141.821 681.597 135.218C684.741 126.845 687.492 118.276 690.44 109.825C693.741 100.273 697.829 90.643 699.716 80.6982C701.563 71.0679 699.991 62.0271 697.672 52.6327C696.257 46.9331 687.492 49.3701 688.907 55.0697C690.754 62.4988 692.366 69.8493 691.108 77.5143C689.85 85.0613 686.903 92.3725 684.387 99.5657C681.675 107.427 678.963 115.289 676.251 123.111C674.051 129.479 672.125 136.082 668.548 141.821C664.972 147.56 659.194 151.648 652.198 151.805C648.15 151.923 645.949 150.941 644.73 147.01C643.63 143.59 643.63 139.974 643.748 136.397C644.259 121.028 646.145 105.737 646.656 90.4071C647.167 74.3697 645.792 58.2536 638.52 43.7099C635.887 38.482 628.026 43.081 630.66 48.3088V48.2695Z" fill="#231F20"/>
<path d="M714.494 146.027C715.162 136.947 720.389 128.968 723.612 120.595C727.267 111.161 726.756 101.177 727.778 91.2719C728.879 80.8161 730.962 70.4782 733.87 60.3762C735.324 55.2663 737.014 50.1956 738.94 45.2036C740.866 40.2115 742.753 35.2195 742.871 29.6771C743.028 23.8203 733.909 23.8203 733.752 29.6771C733.634 35.0622 731.119 40.015 729.311 45.007C727.503 49.9991 725.852 55.0697 724.437 60.219C721.647 70.3603 719.8 80.7768 718.699 91.2326C717.599 101.688 718.031 110.729 714.061 120.084C710.445 128.614 706.122 136.554 705.415 145.949C704.982 151.805 714.101 151.766 714.533 145.949L714.494 146.027Z" fill="#231F20"/>
<path d="M733.005 34.9443C730.333 46.8938 731.708 58.9218 734.224 70.7927C736.818 82.9387 740.001 94.9275 742.91 106.995C744.05 111.751 750.181 110.886 751.674 106.995C756.587 94.3378 760.596 81.7202 767.396 69.8493C773.684 58.8432 783.903 53.576 795.065 48.4268C792.786 47.1296 790.506 45.7932 788.226 44.496C787.244 53.065 785.986 61.7127 785.947 70.3603C785.947 78.6542 787.715 86.6729 789.012 94.7702C791.685 111.751 792.393 129.007 791.528 146.184C791.213 152.041 800.332 152.041 800.646 146.184C801.511 129.243 800.725 112.341 798.288 95.5564C797.07 87.1446 795.065 78.89 795.065 70.321C795.065 61.6734 796.362 53.0257 797.345 44.4567C797.777 40.6832 793.257 39.2681 790.506 40.526C778.479 46.0683 767.317 52.2396 760.321 63.9139C752.657 76.7674 748.294 90.6823 742.91 104.518H751.674C749.002 93.5124 746.211 82.5063 743.696 71.5002C741.18 60.4941 739.215 48.7412 741.77 37.3421C743.067 31.6425 734.263 29.2054 733.005 34.905V34.9443Z" fill="#231F20"/>
<path d="M414.177 144.298C397.238 135.414 394.683 113.402 398.574 96.4605C399.517 92.3332 400.775 88.2452 402.033 84.1965C403.841 78.3397 405.374 72.1685 407.928 66.5868C412.291 57.0744 424.043 52.3968 433.436 49.2915C436.895 48.1516 440.471 47.2475 444.009 46.4221C446.052 45.9504 448.057 45.518 450.179 45.518C451.005 45.518 451.791 45.518 452.577 45.6752C452.97 45.7539 455.878 46.7365 454.856 46.2649C460.948 48.8985 464.486 54.4015 467.433 59.8652C479.303 81.9167 475.019 107.899 465.508 130.068C461.499 139.463 447.192 141.9 438.113 143.629C430.881 145.005 421.173 147.521 414.177 144.298C408.872 141.861 404.273 149.722 409.579 152.159C418.658 156.326 428.798 154.36 438.31 152.788C447.821 151.216 458.354 148.7 466.333 143.158C471.875 139.306 473.958 133.724 476.119 127.553C478.674 120.32 480.954 112.93 482.408 105.344C485.12 90.8395 484.255 76.2957 478.713 62.5381C475.333 54.1263 470.499 45.8325 462.953 40.4474C454.738 34.5512 445.424 36.5952 436.305 38.993C425.929 41.7052 414.924 46.1862 406.71 53.183C402.111 57.1137 399.635 62.6168 397.709 68.2377C395.273 75.2344 393.032 82.3098 391.028 89.4244C384.936 111.358 387.216 140.406 409.658 152.12C414.846 154.832 419.444 146.971 414.256 144.258L414.177 144.298Z" fill="#231F20"/>
<path d="M394.683 22.3266C397.631 27.4366 400.618 32.5466 403.566 37.6565C406.513 42.7665 414.374 38.1282 411.426 33.0576C408.479 27.9869 405.492 22.8376 402.544 17.7277C399.596 12.6177 391.735 17.256 394.683 22.3266Z" fill="#231F20"/>
<path d="M486.26 18.7103C483.194 23.7417 480.128 28.8124 477.023 33.8437C473.918 38.8751 481.858 43.4347 484.884 38.4427C487.95 33.4113 491.015 28.3407 494.12 23.3093C497.186 18.278 489.286 13.7183 486.26 18.7103Z" fill="#231F20"/>
<path d="M439.843 4.40243C439.921 10.2985 439.96 16.234 440.039 22.1301C440.118 28.0262 449.197 27.9869 449.157 22.1301C449.118 16.2733 449.039 10.2985 448.961 4.40243C448.882 -1.49368 439.803 -1.45437 439.843 4.40243Z" fill="#231F20"/>
</g>
<defs>
<clipPath id="clip0_430_190">
<rect width="801" height="168" fill="white"/>
</clipPath>
</defs>
</svg>
