<svg width="768" height="162" viewBox="0 0 768 162" fill="none" xmlns="http://www.w3.org/2000/svg">
<g clip-path="url(#clip0_209_424)">
<path d="M404.818 110.24C401.083 105.64 400.278 99.5028 400.441 93.7089C400.563 89.4944 401.132 85.2472 402.719 81.311C404.306 77.3747 406.975 73.7413 410.677 71.3844C415.657 68.2256 422.386 67.6773 427.878 69.985C429.538 70.6806 431.117 71.6463 432.24 72.9884C433.59 74.5923 434.209 76.63 434.673 78.6268C436.056 84.5925 436.267 90.8038 435.299 96.8432C434.51 101.77 432.76 106.843 428.773 110.109C426.568 111.917 423.818 113.038 421.011 113.799C418.195 114.56 415.217 114.978 412.329 114.503C409.44 114.02 406.649 112.555 405.119 110.199" fill="black"/>
<path d="M84.8678 57.4316C85.7465 52.2269 86.4951 46.6949 84.5586 41.6293C82.622 36.5637 78.4559 33.8387 73.5738 32.0056C63.484 28.2166 53.0769 25.8516 42.2467 26.6454C31.3108 27.4474 20.92 29.7551 13.7595 38.7815C6.59905 47.8078 -0.439358 59.3956 0.0244441 71.0325C0.227866 76.139 2.00171 81.3928 6.1027 84.6416C11.0987 88.5943 17.4292 87.5631 23.2227 86.4829C36.5021 84.0115 49.692 78.8968 63.4027 80.3208C75.6649 81.5974 86.43 89.7318 86.1534 102.874C85.9256 113.578 85.7465 130.42 73.1832 133.906C65.0219 136.173 55.5912 134.618 47.5439 132.605C34.5981 129.356 22.1568 124.078 10.3013 117.997C5.30528 115.436 0.878817 123.014 5.89114 125.584C22.9379 134.324 42.084 142.728 61.4742 143.604C70.3841 144.005 79.9938 142.761 86.3812 135.87C94.1194 127.515 94.8599 112.989 94.9005 102.146C94.9412 91.1802 89.1396 81.8183 79.709 76.4091C68.7404 70.1078 55.575 70.6479 43.5649 72.9393C37.1856 74.1586 30.9121 75.9017 24.5653 77.2683C19.0892 78.4468 11.2289 81.0245 9.18658 73.8558C7.63243 68.4056 9.7643 62.3335 12.2542 57.5216C14.7441 52.7097 17.8442 46.9977 21.7255 42.8732C29.8136 34.2724 45.3062 34.1005 56.1039 36.0318C61.2789 36.9566 66.3482 38.5769 71.2466 40.4754C77.8538 43.0369 77.4713 48.9535 76.438 55.0911C75.5103 60.6232 83.9239 62.9964 84.8596 57.4234L84.8678 57.4316Z" fill="black"/>
<path d="M113.477 21.4816C108.766 37.7585 106.683 55.3694 109.474 72.1864C110.466 78.1849 112.273 84.0442 113.119 90.0673C114.063 96.7941 113.233 103.423 111.288 109.896C109.661 115.321 118.091 117.637 119.71 112.228C121.638 105.788 122.623 99.0527 122.094 92.3259C121.63 86.4829 120.052 80.8691 118.88 75.1488C115.373 58.0617 117.074 40.4836 121.899 23.8139C123.469 18.3801 115.047 16.056 113.477 21.4816Z" fill="black"/>
<path d="M114.258 44.8454C122.371 46.4494 129.938 40.2463 136.911 36.8584C145.081 32.8894 153.429 29.3132 161.769 25.7452C166.928 23.5357 162.477 15.966 157.359 18.1591C150.443 21.1215 143.527 24.084 136.708 27.2673C133.42 28.8058 130.158 30.3934 126.927 32.0547C124.144 33.4949 119.864 37.022 116.569 36.3755C111.077 35.2953 108.725 43.757 114.25 44.8454H114.258Z" fill="black"/>
<path d="M128.473 69.494C136.586 71.6872 144.706 73.8804 152.819 76.0735C158.254 77.5384 160.573 69.0685 155.138 67.6037C147.025 65.4105 138.905 63.2173 130.792 61.0241C125.357 59.5593 123.038 68.0292 128.473 69.494Z" fill="black"/>
<path d="M118.855 114.528C125.487 109.102 133.233 109.683 140.98 111.983C148.84 114.307 156.415 116.754 164.634 114.765C170.093 113.439 167.783 104.969 162.315 106.295C152.965 108.554 143.819 102.735 134.665 101.606C126.529 100.599 118.978 103.161 112.68 108.325C108.318 111.893 114.535 118.079 118.855 114.536V114.528Z" fill="black"/>
<path d="M186.912 129.463C188.898 122.858 193.935 117.777 195.253 110.853C196.669 103.39 195.749 95.4602 196.197 87.8987C197.173 71.5317 200.525 55.443 205.855 39.9599C207.694 34.6079 199.264 32.3083 197.433 37.6276C192.193 52.8734 188.906 68.7248 187.677 84.8135C187.083 92.6042 188.084 100.837 186.831 108.521C185.724 115.313 180.46 120.583 178.491 127.13C176.863 132.556 185.285 134.872 186.912 129.463Z" fill="black"/>
<path d="M200.135 49.019C201.901 64.2321 205.847 78.4222 211.779 92.4896C219.517 110.853 228.052 128.881 235.962 147.172C237.556 150.854 242.935 149.389 243.944 146.124C250.258 125.624 250.893 103.963 253.773 82.8331C255.767 68.2092 255.075 54.2564 252.089 39.6816C250.958 34.1496 242.536 36.4901 243.667 42.0139C246.417 55.4185 246.93 68.823 245.172 81.802C242.373 102.498 241.706 123.71 235.522 143.784L243.504 142.736C235.839 125.003 227.597 107.523 220.038 89.7481C214.472 76.6546 210.509 63.1928 208.866 49.0108C208.223 43.4624 199.484 43.3969 200.135 49.0108V49.019Z" fill="black"/>
<path d="M350.236 52.0387C336.778 39.4116 319.234 25.6306 300.284 35.9664C292.659 40.1236 286.801 47.1777 282.041 54.3055C276.914 61.9816 273.896 70.7297 274.221 80.0507C274.514 88.4961 277.256 98.0544 283.001 104.454C286.142 107.956 290.096 108.439 294.523 109.004C299.86 109.683 305.223 110.06 310.601 110.109C315.98 110.158 321.35 109.904 326.696 109.331C329.121 109.069 331.537 108.75 333.946 108.382C336.159 108.046 340.797 106.238 342.831 107.105C345.907 108.415 344.776 117.858 344.784 120.387C344.809 125.674 345.289 131.705 342.53 136.435C340.008 140.764 335.232 144.324 331.139 147.057C326.37 150.249 321.122 149.749 315.752 148.505C305.768 146.206 297.102 140.649 290.536 132.793C286.915 128.464 280.763 134.7 284.36 139.004C289.966 145.707 297.086 150.911 305.133 154.258C313.181 157.605 322.92 160.069 330.992 157.024C335.223 155.429 338.836 152.294 342.294 149.447C345.753 146.599 349.04 143.268 351.001 139.111C353.059 134.749 353.434 129.913 353.515 125.158C353.605 119.921 353.808 114.438 353.108 109.241C352.579 105.297 350.928 101.516 347.372 99.4374C343.173 96.9741 338.324 98.7827 333.913 99.5274C323.205 101.344 312.229 101.737 301.407 100.902C298.55 100.681 295.646 100.444 292.822 99.9447C290.389 99.5192 289.421 98.6599 288.103 96.5895C285.531 92.5551 283.88 88.0214 283.237 83.275C281.911 73.4794 285.214 64.8622 290.788 56.9815C296.362 49.1008 304.303 40.811 314.661 41.0237C326.606 41.2692 335.907 50.5575 344.076 58.2172C348.185 62.0716 354.37 55.8686 350.252 52.006L350.236 52.0387Z" fill="black"/>
<path d="M482.306 146.476C490.801 132.13 496.09 116.156 497.782 99.5437C498.702 90.5337 498.628 81.4255 499.19 72.3828C499.784 62.8163 500.703 53.2744 501.891 43.7652C502.591 38.1677 493.852 38.225 493.16 43.7652C490.963 61.3351 490.654 78.8805 489.32 96.4995C488.107 112.613 482.973 128.186 474.763 142.049C471.882 146.918 479.425 151.337 482.306 146.484V146.476Z" fill="black"/>
<path d="M500.858 54.2973C505.887 52.0141 511.647 48.3316 517.091 48.2661C522.535 48.2006 527.889 50.1647 532.388 52.9798C536.595 55.6149 540.55 59.4447 542.494 64.1093C546.123 72.8165 543.552 82.6367 538.589 90.2309C536.082 94.0608 532.283 97.3097 527.669 98.0789C523.926 98.7008 520.801 96.745 517.636 95.0592C513.885 93.0624 510.134 91.0575 506.391 89.0607C501.436 86.4175 497.082 93.8235 501.981 96.6468C507.058 99.5765 514.935 101.254 516.643 107.506C517.408 110.313 517.693 113.104 518.686 115.87C522.754 127.228 529.313 137.761 535.594 147.974C538.548 152.769 546.107 148.366 543.137 143.538C536.978 133.53 529.898 122.94 526.44 111.557C525.35 107.981 525.22 104.274 523.422 100.902C519.988 94.4782 512.307 92.465 506.383 89.0525L501.973 96.6386C508.149 99.9365 514.682 104.601 521.501 106.377C526.839 107.768 532.575 106.475 537.23 103.619C544.008 99.4701 548.442 92.0395 550.949 84.6253C556.742 67.4727 548.841 50.6148 532.787 43.2415C527.221 40.6882 520.956 39.0024 514.796 39.6162C508.637 40.2299 502.233 44.068 496.44 46.7031C491.33 49.0272 495.764 56.5969 500.85 54.2891L500.858 54.2973Z" fill="black"/>
<path d="M578.988 159.046C581.804 151.738 580.64 143.162 580.542 135.502C580.428 126.623 579.973 117.662 580.502 108.791C580.998 100.452 582.967 92.2686 583.797 83.9624C584.7 74.9442 584.782 65.8851 584.171 56.8506C583.797 51.2449 575.058 51.1958 575.441 56.8506C576.01 65.3532 575.978 73.8804 575.213 82.3748C574.448 90.8693 572.536 98.8563 571.877 107.179C571.193 115.772 571.665 124.471 571.779 133.08C571.877 140.608 573.333 149.553 570.567 156.713C568.532 161.984 576.97 164.267 578.988 159.046Z" fill="black"/>
<path d="M604.693 46.5394C611.91 61.0896 611.878 77.7102 610.999 93.578C610.519 102.252 609.851 110.927 609.257 119.593C608.737 127.204 607.589 135.215 609.42 142.736C611.251 150.257 616.044 154.725 624.05 155.077C631.089 155.38 638.119 152.589 643.245 147.785C648.372 142.982 651.203 136.664 653.587 130.305C656.614 122.228 659.259 113.979 662.066 105.82C665.239 96.6141 669.145 87.3258 670.968 77.7184C672.79 68.111 671.22 59.7148 668.998 50.6639C667.656 45.1809 659.226 47.505 660.577 52.9962C662.334 60.1649 663.897 67.2436 662.668 74.6414C661.464 81.9329 658.632 88.9461 656.24 95.9103C653.636 103.48 651.024 111.058 648.42 118.628C646.313 124.757 644.449 131.116 641.024 136.664C637.598 142.212 632.049 146.124 625.352 146.296C621.479 146.402 619.372 145.453 618.175 141.68C617.134 138.391 617.118 134.88 617.232 131.459C617.728 116.655 619.534 101.909 620.014 87.0967C620.511 71.6381 619.176 56.1059 612.227 42.0876C609.721 37.0302 602.187 41.4738 604.685 46.523L604.693 46.5394Z" fill="black"/>
<path d="M702.815 33.7077C700.244 45.2464 701.554 56.826 703.995 68.2665C706.436 79.707 709.528 91.5567 712.336 103.177C713.442 107.744 719.309 106.925 720.757 103.177C725.477 90.9756 729.325 78.815 735.843 67.3663C741.889 56.7442 751.653 51.6786 762.353 46.7113L755.787 42.9223C754.851 51.1958 753.622 59.5266 753.606 67.8737C753.59 76.2208 755.315 83.586 756.535 91.4257C759.09 107.809 759.782 124.454 758.936 141.001C758.643 146.648 767.382 146.631 767.666 141.001C768.505 124.675 767.731 108.366 765.421 92.1868C764.265 84.077 762.32 76.1063 762.337 67.8737C762.353 59.6411 763.582 51.204 764.517 42.9223C764.932 39.2725 760.587 37.9058 757.951 39.1334C746.429 44.4853 735.713 50.4184 729.024 61.6952C721.669 74.085 717.503 87.5059 712.344 100.845H720.765C718.202 90.2309 715.525 79.6415 713.1 68.9948C710.676 58.3481 708.788 47.0386 711.237 36.0482C712.466 30.5407 704.044 28.1921 702.815 33.7159V33.7077Z" fill="black"/>
<path d="M397.113 139.119C380.863 130.567 378.414 109.348 382.149 93.0052C383.06 89.0116 384.264 85.0917 385.485 81.18C387.234 75.5498 388.707 69.5922 391.156 64.2157C395.339 55.042 406.608 50.5248 415.591 47.5296C418.911 46.4248 422.329 45.5574 425.73 44.78C427.675 44.338 429.628 43.9125 431.637 43.888C432.41 43.8798 433.175 43.9043 433.94 44.0353C434.306 44.1007 437.105 45.05 436.105 44.6081C441.931 47.1532 445.356 52.4561 448.163 57.7262C459.531 79.0032 455.43 104.045 446.316 125.404C442.459 134.446 428.741 136.795 420.059 138.464C413.126 139.798 403.834 142.221 397.104 139.111C392.035 136.77 387.592 144.34 392.694 146.697C401.409 150.715 411.108 148.833 420.221 147.319C429.286 145.821 439.449 143.366 447.073 138.022C452.395 134.291 454.364 128.914 456.455 122.989C458.92 116.001 461.101 108.881 462.468 101.59C465.08 87.6204 464.234 73.5694 458.912 60.3204C455.649 52.2024 451.019 44.2153 443.818 39.0106C435.95 33.3231 426.999 35.3035 418.26 37.6031C408.301 40.2218 397.747 44.5263 389.871 51.3022C385.444 55.1075 383.109 60.3777 381.229 65.7951C378.902 72.5219 376.73 79.3633 374.842 86.2292C369.016 107.359 371.172 135.371 392.694 146.697C397.666 149.316 402.092 141.738 397.104 139.111L397.113 139.119Z" fill="black"/>
<path d="M378.43 21.5471C381.278 26.4817 384.118 31.4082 386.966 36.3428C389.814 41.2774 397.332 36.8093 394.509 31.9074C391.685 27.0055 388.821 22.0463 385.973 17.1116C383.125 12.177 375.607 16.6452 378.43 21.5471Z" fill="black"/>
<path d="M466.235 18.0446C463.29 22.9137 460.344 27.7829 457.399 32.6521C454.453 37.5212 462.021 41.9157 464.942 37.0875C467.863 32.2592 470.833 27.3492 473.778 22.48C476.724 17.6108 469.157 13.2163 466.235 18.0446Z" fill="black"/>
<path d="M421.727 4.23904C421.784 9.94291 421.849 15.6386 421.906 21.3425C421.963 26.9891 430.702 27.0055 430.637 21.3425C430.571 15.6795 430.515 9.94291 430.458 4.23904C430.401 -1.46484 421.662 -1.42393 421.727 4.23904Z" fill="black"/>
</g>
<defs>
<clipPath id="clip0_209_424">
<rect width="768" height="162" fill="white"/>
</clipPath>
</defs>
</svg>
