<svg width="307" height="439" viewBox="0 0 307 439" fill="none" xmlns="http://www.w3.org/2000/svg">
<path d="M50.8264 311.138C44.2983 329.048 43.4285 349.443 47.3628 367.987C52.3203 391.33 67.4947 411.817 87.4065 424.6C97.0759 430.808 108.449 435.011 119.796 436.784C126.043 437.758 132.316 438.517 138.639 438.537C145.024 438.558 151.317 437.804 157.63 436.902C178.186 433.965 199.669 424.77 213.917 409.259C223.433 398.905 229.189 386.435 231.394 372.549C234.054 355.798 233.138 338.879 235.272 322.107L234.586 327.218C235.558 320.037 237.308 313.096 240.091 306.402L238.157 310.995C242.255 301.4 248.042 292.727 254.365 284.475L251.367 288.365C261.558 275.166 273.269 262.978 282.493 249.046C288.351 240.204 292.47 229.958 296.071 220.05C301.556 204.965 304.656 189.173 306.15 173.206C307.644 157.25 306.447 141.356 303.684 125.594C300.221 105.855 293.181 86.3673 283.015 69.1092C265.104 38.6934 236.443 15.592 202.478 5.69948C186.408 1.01974 169.187 -0.671729 152.494 0.235515C140.118 0.906979 127.859 2.95725 115.698 5.27918C84.8792 11.1635 54.9858 23.26 33.8513 47.4481C12.2409 72.1897 1.90645 103.595 0.279536 136.097C-0.221841 146.143 -0.114433 156.487 1.14413 166.456C2.40268 176.425 4.34162 185.682 8.1173 194.852C11.4479 202.941 15.1673 210.696 20.0276 217.979C29.6816 232.439 41.5049 244.515 55.4258 254.833C67.0137 263.423 80.7659 270.348 94.917 273.367C109.288 276.432 124.145 276.176 137.641 269.995C144.722 266.755 150.217 260.492 155.896 255.315C160.495 251.122 165.289 247.155 170.195 243.331L166.312 246.335C178.319 237.042 190.905 228.518 203.997 220.845C211.682 216.344 219.934 212.228 226.426 206.001C230.064 202.51 232.576 198.44 234.504 193.868C237.124 187.646 238.49 180.746 237.809 173.97C236.914 165.041 234.54 157.353 230.478 149.321C227.071 142.591 222.451 136.563 217.754 130.699C211.037 122.324 203.255 114.846 195.151 107.829C183.794 97.9975 172.252 87.9973 158.305 82.1028C148.887 78.1201 138.516 76.485 128.478 79.2478C121.863 81.0674 115.898 85.0039 111.406 90.1706C101.281 101.811 93.9143 116.055 86.368 129.418C78.9548 142.55 70.7485 158.501 79.7375 173.073C89.4325 188.783 109.488 192.781 126.586 192.976C130.771 193.022 134.95 192.776 139.115 192.351C144.333 191.818 148.846 190.562 152.683 186.723C156.008 183.391 158.515 177.917 158.3 173.13C158.085 168.342 156.448 163.001 152.683 159.536C149.153 156.292 144.093 153.396 139.115 153.908C131.732 154.662 124.294 154.816 116.916 153.878L122.017 154.564C117.945 154.001 113.939 153.114 110.127 151.551C111.657 152.196 113.181 152.842 114.711 153.488C112.823 152.673 111.043 151.709 109.395 150.474L113.279 153.478C112.25 152.658 111.335 151.766 110.516 150.736L113.514 154.626C112.966 153.878 112.511 153.109 112.122 152.268C112.767 153.801 113.412 155.328 114.056 156.861C113.754 156.128 113.55 155.415 113.437 154.631L114.123 159.741C114.031 158.808 114.072 157.891 114.194 156.963L113.509 162.074C113.852 159.962 114.568 157.963 115.381 155.994C114.737 157.527 114.092 159.055 113.447 160.587C117.013 152.268 121.945 144.503 126.493 136.707C130.709 129.479 134.833 122.057 139.944 115.409L136.946 119.3C138.506 117.306 140.179 115.404 142.174 113.836L138.291 116.839C139.233 116.132 140.22 115.522 141.299 115.051L136.715 116.988C138.22 116.378 139.785 116.014 141.381 115.778L136.281 116.465C138.368 116.224 140.42 116.255 142.507 116.517L137.406 115.83C140.312 116.271 143.08 117.111 145.802 118.213C144.272 117.567 142.747 116.921 141.218 116.276C147.551 118.972 153.256 122.862 158.694 127.055L154.811 124.051C168.205 134.487 181.374 146.02 191.841 159.459L188.843 155.569C192.803 160.715 196.349 166.184 198.932 172.161C198.288 170.628 197.643 169.101 196.998 167.568C198.395 170.91 199.454 174.35 199.981 177.943L199.296 172.832C199.613 175.318 199.664 177.789 199.377 180.28L200.063 175.17C199.771 177.297 199.275 179.378 198.462 181.367C199.106 179.834 199.751 178.307 200.395 176.774C199.822 178.132 199.101 179.398 198.216 180.572L201.214 176.682C200.037 178.194 198.646 179.48 197.136 180.654L201.02 177.65C197.612 180.249 193.826 182.335 190.122 184.473C184.239 187.866 178.391 191.305 172.671 194.97C157.134 204.924 142.011 215.985 128.392 228.461C125.25 231.337 122.283 234.458 118.922 237.083L122.805 234.079C121.321 235.217 119.735 236.175 118.016 236.914L122.6 234.976C119.689 236.181 116.568 236.837 113.458 237.262L118.558 236.575C113.959 237.144 109.344 237.052 104.75 236.452L109.851 237.139C103.451 236.242 97.2704 234.397 91.3101 231.911L95.8941 233.848C87.734 230.373 80.1314 225.765 73.0917 220.373L76.9748 223.377C68.784 217.031 61.4372 209.681 55.0574 201.51L58.0555 205.401C52.1209 197.697 47.1071 189.342 43.3058 180.382L45.2397 184.975C42.1445 177.522 39.9804 169.767 38.8651 161.766L39.5507 166.876C37.6884 152.56 37.9236 137.399 39.8268 123.093C39.5966 124.795 39.3716 126.501 39.1413 128.203C40.7222 116.706 43.6282 105.435 48.1252 94.7324C47.4806 96.265 46.836 97.7925 46.1913 99.325C49.8545 90.7703 54.5049 82.7179 60.1787 75.3471L57.1807 79.2375C62.4759 72.4716 68.5333 66.408 75.307 61.1388L71.4238 64.1424C78.7603 58.5349 86.7721 53.968 95.2649 50.3544L90.6809 52.2919C107.359 45.3056 125.639 41.7842 143.505 39.3444L138.404 40.0312C152.038 38.2116 165.821 37.8682 179.476 39.6827L174.375 38.9959C184.837 40.4516 195.044 43.1579 204.811 47.2123L200.227 45.2748C209.589 49.2472 218.378 54.3831 226.436 60.5955L222.553 57.5918C230.473 63.7785 237.543 70.9237 243.713 78.8582L240.715 74.9678C247.939 84.3632 253.807 94.6966 258.432 105.609C257.788 104.077 257.143 102.549 256.498 101.017C262.182 114.569 265.892 128.839 267.851 143.396C267.621 141.694 267.396 139.987 267.166 138.285C268.951 152.191 268.838 166.23 266.976 180.121L267.662 175.011C265.636 189.593 261.778 203.904 256.064 217.472C256.708 215.939 257.353 214.412 257.998 212.879C254.232 221.731 249.669 229.594 243.816 237.211L246.814 233.32C235.876 247.457 223.556 260.563 213.723 275.546C208.453 283.578 204.181 292.307 201.096 301.41C197.75 311.277 196.584 321.913 195.96 332.272C195.31 343.092 195.453 353.953 194.092 364.722L194.778 359.612C193.959 365.681 192.721 371.77 190.388 377.449L192.322 372.857C190.854 376.301 188.961 379.5 186.705 382.488L189.703 378.597C186.736 382.442 183.257 385.804 179.425 388.777L183.308 385.773C178.207 389.659 172.615 392.775 166.732 395.281C168.261 394.636 169.786 393.99 171.316 393.344C163.452 396.63 155.195 398.787 146.758 399.93L151.859 399.244C143.54 400.315 135.14 400.387 126.816 399.315L131.916 400.002C125.133 399.074 118.497 397.388 112.168 394.748L116.752 396.686C111.37 394.384 106.357 391.412 101.711 387.849L105.594 390.853C100.678 386.998 96.2727 382.565 92.4408 377.624L95.4389 381.514C91.8167 376.778 88.834 371.637 86.4754 366.147C87.1201 367.68 87.7647 369.207 88.4093 370.74C85.9434 364.799 84.2857 358.618 83.3802 352.251L84.0658 357.362C83.0528 349.637 83.1449 341.846 84.1783 334.127C83.9481 335.829 83.7229 337.536 83.4927 339.237C84.3471 333.169 85.708 327.13 87.8055 321.369C89.4325 316.91 88.1892 310.528 85.8717 306.556C83.5541 302.584 78.9803 298.765 74.4065 297.725C69.4951 296.602 63.9851 296.848 59.6211 299.662C55.2571 302.476 52.5967 306.223 50.8061 311.149L50.8264 311.138Z" fill="#E6E6E6"/>
</svg>
