<svg width="606" height="877" viewBox="0 0 606 877" fill="none" xmlns="http://www.w3.org/2000/svg">
<g clip-path="url(#clip0_209_416)">
<path d="M187.93 652.74C164.42 623.92 159.33 585.48 160.36 549.24C161.11 522.85 164.72 496.26 174.72 471.59C184.72 446.92 201.5 424.18 224.85 409.45C256.22 389.66 298.59 386.22 333.16 400.67C343.62 405.04 353.53 411.07 360.64 419.49C369.13 429.55 373.06 442.28 375.97 454.8C384.67 492.18 386.02 531.05 379.92 568.86C374.95 599.7 363.92 631.5 338.81 651.94C324.92 663.25 307.6 670.29 289.9 675.05C272.16 679.82 253.4 682.44 235.22 679.44C217.04 676.44 199.45 667.24 189.82 652.47" fill="#E6E7E8"/>
<path d="M187.93 652.74C164.42 623.92 159.33 585.48 160.36 549.24C161.11 522.85 164.72 496.26 174.72 471.59C184.72 446.92 201.5 424.18 224.85 409.45C256.22 389.66 298.59 386.22 333.16 400.67C343.62 405.04 353.53 411.07 360.64 419.49C369.13 429.55 373.06 442.28 375.97 454.8C384.67 492.18 386.02 531.05 379.92 568.86C374.95 599.7 363.92 631.5 338.81 651.94C324.92 663.25 307.6 670.29 289.9 675.05C272.16 679.82 253.4 682.44 235.22 679.44C217.04 676.44 199.45 667.24 189.82 652.47" stroke="#E6E6E6" stroke-width="15" stroke-linecap="round" stroke-linejoin="round" stroke-dasharray="15 34"/>
<path d="M125.52 857.32C97.81 843.82 77.87 822.79 71.93 816.43C66.11 810.19 45.86 787.71 29.41 747.18C-7.72 655.71 12.36 565.68 17.87 540.98C20.88 527.49 25.4 508.98 36.76 472.67C45.43 444.94 54.11 417.22 63.31 389.66C72.08 363.38 81.75 336.52 100.18 315.83C108.83 306.12 118.92 297.33 140.98 283.69C203.61 244.96 261.28 229.32 270.78 226.81C330.49 211.08 360.34 203.22 394.74 216.32C403.12 219.51 426.49 229.54 457.08 267.45C470.44 284.01 508.39 337.42 526.84 431.25C547.71 537.35 516 646.34 478.56 747.78C474.09 759.88 469.45 772.13 461.77 782.5C455.7 790.69 446.71 799.51 432.2 808.23C371.55 844.68 274.12 859.02 274.12 859.02C199.85 869.95 161.97 875.06 125.53 857.31L125.52 857.32Z" stroke="#E6E6E6" stroke-width="15" stroke-linecap="round" stroke-linejoin="round" stroke-dasharray="15 34"/>
<path d="M45.5 83.41C63.41 114.29 81.33 145.17 99.24 176.05" stroke="#E6E6E6" stroke-width="15" stroke-linecap="round" stroke-linejoin="round" stroke-dasharray="15 34"/>
<path d="M598.48 89.23C579.92 119.73 561.36 150.23 542.8 180.72" stroke="#E6E6E6" stroke-width="15" stroke-linecap="round" stroke-linejoin="round" stroke-dasharray="15 34"/>
<path d="M318.81 7.5C319.18 43.2 319.56 78.9 319.94 114.6" stroke="#E6E6E6" stroke-width="15" stroke-linecap="round" stroke-linejoin="round" stroke-dasharray="15 34"/>
<path d="M46.7976 72.7021C48.6801 83.997 54.3561 96.4042 62.4279 108.27C67.6761 117.311 74.3218 126.838 83.3349 137.748C87.6418 143.01 91.4068 147.716 103.843 161.122" stroke="#F17BB0" stroke-width="71" stroke-linecap="round"/>
</g>
<defs>
<clipPath id="clip0_209_416">
<rect width="605.98" height="876.47" fill="white"/>
</clipPath>
</defs>
</svg>
