<svg width="288" height="451" viewBox="0 0 288 451" fill="none" xmlns="http://www.w3.org/2000/svg">
<path d="M253.057 249.514C251.962 255.173 250.325 260.76 248.652 266.27C246.703 272.698 244.539 279.064 242.201 285.363C240.743 289.3 239.213 293.211 237.627 297.096C237.213 298.116 236.757 299.126 236.363 300.156C237.735 296.594 236.236 300.453 235.924 301.171C234.89 303.57 233.836 305.963 232.757 308.342C222.98 329.931 211.402 350.7 198.361 370.485C194.852 375.811 191.25 381.08 187.5 386.236C186.615 387.456 185.709 388.666 184.809 389.871C182.982 392.321 186.308 388.015 184.404 390.404C184.031 390.875 183.658 391.352 183.284 391.818C181.217 394.402 179.074 396.923 176.838 399.363C174.807 401.572 172.699 403.715 170.499 405.755C169.399 406.775 168.273 407.775 167.127 408.743C166.667 409.133 166.196 409.512 165.731 409.902C163.7 411.598 167.143 408.912 165.188 410.343C160.021 414.12 154.624 417.493 148.95 420.45C146.254 421.855 143.501 423.136 140.749 424.423C140.273 424.648 138.789 425.412 140.989 424.341C140.181 424.735 139.286 425.022 138.447 425.335C136.886 425.909 135.3 426.422 133.694 426.847C132.538 427.155 130.926 427.816 129.713 427.708L130.977 427.544C130.343 427.616 129.708 427.667 129.074 427.703C128.44 427.739 127.805 427.76 127.171 427.765C125.58 427.78 123.994 427.698 122.408 427.555C121.85 427.503 118.847 427.539 121.671 427.488C120.76 427.503 119.717 427.16 118.837 426.996C106.036 424.556 93.4199 420.584 81.3357 415.735C80.5938 415.437 79.8622 415.125 79.1204 414.833C77.3451 414.125 81.6171 415.935 78.7878 414.694C77.4219 414.095 76.0559 413.5 74.7001 412.875C71.7686 411.527 68.878 410.091 66.0641 408.508C63.6442 407.144 61.2806 405.678 59.0142 404.069C58.4207 403.648 57.8016 403.243 57.2491 402.777C59.1676 404.397 57.9091 403.295 57.5203 402.946C56.2054 401.777 54.8701 400.645 53.6167 399.404C51.6061 397.416 49.3294 395.237 47.7946 392.849C49.1759 394.996 48.1322 393.279 47.7281 392.736C47.2932 392.146 46.8634 391.552 46.4388 390.947C45.4207 389.502 44.4384 388.036 43.4817 386.549C40.279 381.582 37.3373 376.441 34.4058 371.311C32.9119 368.696 31.4487 366.067 30.0622 363.396C29.3715 362.064 28.6962 360.716 28.0516 359.357C27.7293 358.681 27.4172 357.999 27.1102 357.317C26.926 356.907 26.7418 356.497 26.5679 356.087C27.146 357.466 27.1869 357.558 26.7009 356.364C25.6777 353.581 24.6852 350.818 23.974 347.937C23.6568 346.656 23.4573 345.349 23.1708 344.062C22.7769 342.299 23.3703 346.938 23.1708 344.078C23.1094 343.196 23.0173 342.32 22.9815 341.438C22.8536 338.414 23.0736 335.39 23.3857 332.381C23.6824 329.495 22.8997 334.944 23.4215 332.232C23.5136 331.74 23.5903 331.243 23.6773 330.751C23.9178 329.439 24.2043 328.137 24.5215 326.845C25.4833 322.955 26.793 319.172 27.6627 315.261C32.2877 294.472 30.9729 273.051 28.7371 252.051C27.7446 242.718 26.5423 233.404 25.8005 224.045C25.4782 219.975 25.2479 215.9 25.2479 211.815C25.2479 210.016 25.294 208.222 25.4117 206.428C25.4679 205.582 25.5447 204.736 25.6265 203.896C25.6572 203.578 25.7289 203.235 25.7391 202.912C25.6317 206.874 25.4833 204.721 25.6777 203.604C25.9233 202.194 26.2354 200.8 26.6446 199.426C26.8493 198.744 27.1102 198.088 27.3251 197.412C27.7395 196.135 25.9028 200.415 26.7163 198.837C26.9004 198.478 27.059 198.109 27.2432 197.75C27.5451 197.171 27.8725 196.602 28.2306 196.053C29.8013 193.655 26.9363 197.427 27.8111 196.551C28.2613 196.1 28.6604 195.618 29.1259 195.187C31.3105 193.173 27.1256 196.402 28.7218 195.469C29.1925 195.192 29.6376 194.875 30.1185 194.603C30.5994 194.331 33.0909 193.086 31.2235 193.988C29.3562 194.89 31.3617 193.993 31.7352 193.88C32.3235 193.701 32.9374 193.598 33.5258 193.424C34.989 192.983 30.6301 193.368 33.2239 193.48C33.5974 193.496 35.4852 193.209 35.782 193.557L34.2165 193.373C34.7025 193.47 35.1885 193.588 35.6643 193.721C36.0685 193.839 36.6824 194.157 37.0661 194.183L35.6745 193.588C36.1196 193.793 36.5545 194.013 36.9843 194.244C37.4089 194.475 37.8284 194.726 38.2377 194.987C38.6982 195.279 39.9362 196.653 38.8465 195.341C37.6698 193.926 39.0614 195.561 39.3428 195.813C40.3916 196.761 41.3074 197.796 42.2436 198.852C43.5175 200.292 41.7166 198.304 41.6757 198.109C41.7729 198.565 42.4943 199.298 42.7501 199.708C43.2771 200.549 43.717 201.42 44.1775 202.297C44.4742 202.855 45.1393 203.803 43.8296 201.446C44.2184 202.148 44.4538 203.009 44.7454 203.762C45.4002 205.469 46.0193 207.186 46.6128 208.914C48.2141 213.568 52.4707 217.617 57.7147 217.381C62.9587 217.146 67.2408 213.937 68.8166 208.914C74.0913 192.045 77.9079 174.808 80.2562 157.288C82.0366 144.002 83.1723 130.506 82.2668 117.103C81.9394 112.259 81.2385 107.456 81.0082 102.602C80.8548 99.373 80.8496 96.1336 81.0338 92.9044C81.1259 91.2744 81.4533 89.6189 81.4738 87.9889C81.4738 87.9735 81.0901 90.4236 81.3305 89.1217C81.4022 88.7321 81.4533 88.3426 81.5198 87.953C81.6989 86.9022 81.9035 85.8515 82.1338 84.811C82.5482 82.9401 83.0496 81.0897 83.643 79.2701C83.9039 78.4705 84.2007 77.6914 84.4821 76.8969C85.0909 75.1696 84.4309 77.348 84.2825 77.2967C84.2877 77.2967 84.9374 75.8564 84.9937 75.7385C85.7918 74.0727 86.6769 72.4427 87.6745 70.8845C88.0991 70.2233 88.9893 69.3519 89.2503 68.6036C89.2247 68.6805 87.8331 70.2848 88.6773 69.3827C89.1275 68.906 89.5316 68.3729 89.9819 67.8911C91.1534 66.6199 92.458 65.5282 93.7166 64.3493C94.6682 63.4574 92.9236 64.9439 92.939 64.9234C93.159 64.6209 93.9673 64.175 94.2282 64.0007C94.9905 63.4779 95.7682 62.9807 96.5663 62.5143C97.3644 62.0479 98.1778 61.607 99.0015 61.197C99.3545 61.0227 99.7229 60.8689 100.076 60.6895C101.478 59.9822 98.0244 61.4174 99.5183 60.9356C100.828 60.5153 102.107 60.0745 103.468 59.8028C103.795 59.7362 104.302 59.7362 104.599 59.5978C103.468 60.136 102.69 59.7874 104.517 59.7208C104.977 59.7054 105.432 59.7208 105.893 59.7054C107.3 59.6593 106.486 59.3876 105.714 59.5619C106.323 59.4286 107.709 59.9976 108.344 60.2077C108.686 60.3205 109.08 60.5307 109.418 60.5973C109.111 60.5358 106.937 59.3671 108.246 60.1462C108.922 60.546 109.623 60.8946 110.277 61.3302C110.523 61.4943 110.763 61.6942 111.014 61.8428C112.048 62.4323 108.83 59.8848 110.359 61.361C111.515 62.4733 112.569 63.6471 113.685 64.7952C114.488 65.6204 112.907 63.7803 112.907 63.7752C113.03 64.2365 113.618 64.7747 113.879 65.1694C114.329 65.846 114.759 66.5431 115.163 67.2453C115.639 68.0808 116.084 68.9316 116.504 69.7979C116.703 70.213 116.877 70.7615 117.123 71.1408C116.8 70.6487 116.299 69.0188 116.821 70.4745C117.532 72.4478 118.187 74.4264 118.693 76.4664C118.924 77.3941 119.123 78.3219 119.307 79.2599C119.415 79.8032 119.481 80.3568 119.599 80.9001C119.937 82.4788 119.261 77.9733 119.594 80.7668C119.972 83.9294 120.627 86.5793 122.965 88.9218C124.961 90.9208 128.24 92.4277 131.105 92.2996C133.97 92.1714 137.168 91.1873 139.245 88.9218C141.45 86.5127 142.207 83.9806 142.616 80.7668C142.744 79.7571 142.872 78.7473 143.005 77.7375C143.072 77.2301 143.138 76.7278 143.205 76.2203C143.44 74.4161 142.949 78.0605 143.205 76.2562C143.506 74.0676 143.808 71.884 144.12 69.6954C144.75 65.3232 145.415 60.9612 146.111 56.5993C146.765 52.5192 147.492 48.4648 147.993 44.3643C148.06 43.8158 148.3 41.9552 147.993 44.2003C147.686 46.4453 147.973 44.4155 148.06 43.8825C148.321 42.3396 148.648 40.8122 149.068 39.3104C149.277 38.562 149.502 37.8239 149.753 37.0909C149.886 36.7014 150.771 34.2923 150.224 35.7429C149.676 37.1935 150.766 34.7178 150.981 34.3128C151.513 33.3184 152.091 32.3497 152.71 31.4117C152.961 31.0324 153.222 30.6531 153.488 30.2789C153.682 30.0073 153.892 29.7407 154.081 29.4639C154.777 28.4542 152.173 31.8371 153.007 30.8581C153.196 30.6326 153.375 30.4019 153.56 30.1764C155.064 28.3568 156.803 26.8652 158.476 25.225C159.295 24.4254 157.258 26.1271 157.335 26.0912C157.601 25.9631 157.842 25.7119 158.087 25.5531C158.614 25.2096 159.126 24.856 159.668 24.533C160.313 24.1486 160.978 23.8257 161.638 23.4772C163.193 22.657 159.228 24.1845 161.612 23.5643C162.226 23.4054 162.958 23.2978 163.541 23.0671C164.559 22.6673 162.277 23.2619 162.155 23.2209C162.41 23.308 163.336 23.1337 163.536 23.1286C163.904 23.1184 164.308 23.1747 164.672 23.1389C165.9 23.021 163.904 23.0415 163.705 22.9287C164.395 23.3131 165.608 23.3234 166.386 23.5694C166.672 23.6617 167.153 23.9333 167.45 23.9333C167.383 23.9333 165.367 22.8672 166.334 23.472C166.974 23.8718 167.7 24.164 168.35 24.5535C169.327 25.1379 170.212 25.835 171.149 26.4705C171.829 26.9267 169.665 25.3737 169.691 25.3378C169.691 25.3326 170.54 26.0502 170.478 25.9939C170.867 26.3322 171.246 26.6807 171.614 27.0446C172.428 27.8391 173.123 28.7258 173.891 29.5613C174.658 30.3968 172.801 28.1005 172.903 28.2748C173.072 28.5721 173.328 28.8591 173.528 29.1461C173.835 29.5921 174.136 30.0431 174.423 30.4993C175.114 31.5911 175.743 32.7136 176.331 33.8618C176.848 34.8715 177.268 35.9274 177.774 36.9423C177.861 37.1217 176.766 34.3641 177.165 35.5174C177.257 35.789 177.38 36.0556 177.482 36.3272C177.759 37.0551 178.025 37.7829 178.275 38.521C179.109 40.9506 179.805 43.4212 180.399 45.9174C180.992 48.4136 181.488 50.9456 181.898 53.4828C181.99 54.062 182.082 54.6413 182.164 55.2205C182.205 55.5075 182.24 55.7945 182.286 56.0816C182.486 57.3425 182.046 54.2004 182.066 54.4465C182.194 55.7586 182.384 57.0657 182.517 58.3779C183.258 65.7588 183.55 73.2526 183.171 80.6643C182.936 85.2159 186.256 89.5163 190.247 91.2027C194.678 93.0736 199.272 91.9408 202.822 88.8192C203.308 88.3784 203.81 87.953 204.321 87.5378C203.329 88.3016 203.16 88.4451 203.815 87.9786C204.639 87.5019 205.406 86.9227 206.24 86.4563C206.854 86.1129 207.57 85.8515 208.164 85.4773C205.59 87.0765 206.736 86.0565 207.693 85.7336C208.65 85.4107 209.668 85.2313 210.66 84.9647C211.653 84.6982 207.227 84.9084 208.895 85.2262C209.207 85.2159 209.514 85.2159 209.826 85.2313C211.172 85.3338 211.003 85.2928 209.325 85.1134C209.586 84.893 211.351 85.6567 211.617 85.7233C213.986 86.3333 209.53 84.5598 211.474 85.6567C212.001 85.954 212.543 86.2205 213.07 86.5281C213.699 86.8971 214.303 87.3123 214.922 87.6967C216.759 88.85 213.111 86.0104 214.799 87.5737C215.874 88.5732 216.881 89.5881 217.884 90.6594C216.733 88.8295 219.757 92.6686 217.884 90.6594C218.227 91.2027 218.606 91.7255 218.938 92.2739C219.654 93.4375 220.248 94.6574 220.867 95.8722C222.095 98.2864 220.053 93.6117 220.78 95.6261C220.979 96.1797 221.194 96.7282 221.384 97.2817C221.778 98.4248 222.12 99.5832 222.427 100.752C222.944 102.73 223.266 104.724 223.624 106.733C223.839 107.938 223.21 103.038 223.42 105.283C223.445 105.585 223.486 105.888 223.512 106.19C223.558 106.692 223.599 107.195 223.63 107.697C223.926 112.377 226.285 116.365 230.705 118.235C234.834 119.978 240.098 119.22 243.28 115.852C244.007 115.083 244.749 114.33 245.542 113.622C245.813 113.381 247.338 112.182 246.145 113.069C245.02 113.904 246.294 112.982 246.473 112.874C246.442 112.895 247.783 111.982 247.931 112.049C248.192 112.162 245.624 112.659 246.882 112.566C247.23 112.541 247.634 112.377 247.972 112.279C248.105 112.249 248.243 112.223 248.376 112.197C249.466 112.003 248.606 112.115 245.792 112.536C246.473 112.443 248.182 112.203 248.862 112.121C248.893 112.121 245.936 112.51 245.941 112.515C246.099 112.561 246.417 112.459 246.58 112.459C247.363 112.464 248.212 112.566 248.99 112.525C250.151 112.464 246.642 112.392 247.036 112.254C247.184 112.203 247.824 112.382 248.023 112.428C248.668 112.577 249.307 112.72 249.942 112.905C250.576 113.089 251.487 113.679 252.075 113.638C251.814 113.658 249.522 112.397 251.308 113.346C251.768 113.592 252.239 113.817 252.694 114.068C253.569 114.55 254.413 115.083 255.237 115.642C255.539 115.847 256.956 117.087 255.963 116.139C254.868 115.099 255.656 115.898 255.677 115.934C255.851 116.247 256.352 116.611 256.613 116.867C258.194 118.42 255.001 114.519 255.759 115.724C256.045 116.18 256.362 116.611 256.644 117.072C257.278 118.112 257.831 119.204 258.337 120.311C258.475 120.614 258.598 120.921 258.741 121.219C259.145 122.085 257.396 117.866 258.092 119.696C258.393 120.491 258.7 121.285 258.982 122.085C259.55 123.72 260.051 125.376 260.506 127.041C261.627 131.157 262.461 135.345 263.116 139.558C263.202 140.122 263.284 140.691 263.371 141.255C263.719 143.577 263.044 138.636 263.264 140.435C263.422 141.737 263.581 143.039 263.719 144.346C264.001 147.047 264.221 149.758 264.389 152.47C265.213 165.966 264.748 179.528 263.458 192.978C263.254 195.105 263.029 197.232 262.783 199.36C262.655 200.451 262.527 201.538 262.389 202.625C262.323 203.168 262.205 203.737 262.179 204.275C262.215 203.532 262.466 202.199 262.256 203.711C261.586 208.483 260.839 213.24 259.995 217.981C258.102 228.581 255.753 239.094 253.057 249.514C251.548 255.347 254.976 262.303 261.095 263.702C267.214 265.101 273.639 261.893 275.256 255.65C283.81 222.61 289.387 187.873 287.489 153.649C286.875 142.618 285.596 131.398 282.664 120.727C280.705 113.597 277.978 105.99 272.846 100.485C266.82 94.0218 257.672 90.2083 248.995 89.4446C248.125 89.3677 247.256 89.3369 246.381 89.3882C245.705 89.4292 244.979 89.5573 244.334 89.6445C244.365 89.6445 240.252 90.1929 244.237 89.6599C247.854 89.1729 243.905 89.6188 242.436 89.9059C236.379 91.0797 231.15 95.1187 226.996 99.5165L246.647 107.671C245.849 95.0623 241.853 82.038 232.813 72.8579C226.643 66.5943 217.772 61.9197 208.829 62.135C200.413 62.34 192.662 67.0966 186.543 72.4786L206.194 80.6335C206.557 73.5857 206.301 66.4662 205.646 59.444C204.47 46.7682 202.157 34.1796 196.458 22.6929C190.268 10.2119 176.879 -1.27473 162.149 0.114329C148.351 1.41625 136.441 11.5702 130.471 23.8513C128.419 28.0749 126.782 32.5035 125.948 37.1319C125.554 39.3257 125.283 41.5452 125.017 43.7594C124.741 46.0916 125.227 42.3037 125.232 42.2832C124.945 43.4622 124.822 44.7179 124.623 45.9122C122.71 57.486 121.052 69.0956 119.573 80.7309H142.596C140.498 63.1345 132.85 44.5949 114.984 38.1212C105.775 34.7844 95.451 37.1576 87.0145 41.4375C78.5781 45.7175 71.6049 52.6115 66.9339 60.6178C58.6151 74.8877 56.8654 91.9869 58.3695 108.174C59.5104 120.501 59.7611 132.557 58.6407 144.92C58.436 147.165 58.2007 149.41 57.9398 151.65C57.8119 152.731 57.6021 153.828 57.5356 154.92C57.7454 151.609 57.4179 155.699 57.3054 156.447C56.5942 161.271 55.7552 166.068 54.7985 170.851C52.6446 181.63 49.8819 192.281 46.6025 202.773H68.8012C66.4171 195.843 63.8898 189.38 59.3467 183.598C55.1566 178.267 49.5647 174.213 43.1747 171.937C32.6714 168.195 19.2979 171.589 11.7722 179.949C0.0614287 192.968 1.65765 212.671 3.19759 228.853C5.18775 249.796 8.56437 270.704 7.61278 291.806C7.50023 294.272 7.33139 296.737 7.08582 299.197C6.96304 300.417 6.79421 301.632 6.67142 302.852C7.02955 299.361 6.78397 301.95 6.67142 302.688C6.55887 303.426 6.4412 304.128 6.31329 304.846C5.4896 309.521 4.16453 314.011 2.88551 318.567C-0.665057 331.228 -1.19201 344.831 2.73203 357.461C6.73281 370.337 13.8646 382.208 20.8021 393.679C28.205 405.924 36.8717 416.929 48.8382 424.976C60.3188 432.696 73.8304 437.878 86.8713 442.265C93.2152 444.397 99.6513 446.248 106.159 447.796C113.588 449.564 121.4 451.21 129.074 450.758C143.419 449.923 157.274 442.885 169.292 435.392C181.084 428.036 191.204 418.626 199.85 407.775C216.754 386.554 231.14 363.033 243.511 338.906C252.668 321.048 260.721 302.539 267.249 283.554C270.263 274.789 273.056 265.875 275.021 256.808C275.103 256.424 275.189 256.034 275.261 255.65C276.402 249.745 273.604 242.917 267.224 241.462C261.535 240.165 254.285 243.184 253.062 249.514H253.057Z" fill="#E6E6E6"/>
</svg>
