<svg width="464" height="612" viewBox="0 0 464 612" fill="none" xmlns="http://www.w3.org/2000/svg">
<g clip-path="url(#clip0_245_303)">
<path d="M417.039 533.469C413.182 528.54 409.331 523.597 405.492 518.655C403.628 516.254 401.763 513.846 399.898 511.445C399.042 510.34 398.186 509.229 397.324 508.125C396.966 507.665 395.651 505.966 397.388 508.208C396.902 507.582 396.424 506.962 395.945 506.337C388.906 497.212 381.894 488.067 374.92 478.898C362.683 462.812 350.548 446.65 338.561 430.386C320.276 405.578 302.298 380.533 285.009 355.022C273.641 338.247 262.541 321.274 252.169 303.861C245.974 293.465 239.996 282.903 234.746 271.99C233.852 270.138 232.99 268.274 232.147 266.396C231.783 265.585 231.432 264.774 231.081 263.957C230.078 261.652 232.741 267.948 232.013 266.166C231.853 265.777 231.687 265.387 231.534 264.998C228.826 258.357 226.495 251.537 224.394 244.685C223.295 241.103 222.273 237.482 221.507 233.81C221.347 233.038 221.213 232.259 221.066 231.486C220.607 229.136 221.405 235.33 221.2 232.559C221.156 231.92 221.085 231.282 221.073 230.643C221.06 229.845 221.36 227.016 220.945 230.247C220.587 233.006 220.677 231.952 220.836 231.371C221.29 229.73 219.565 234.168 219.744 233.836C218.358 236.371 213.537 239.838 209.436 239.621C207.948 239.545 206.613 239.296 205.259 238.702C202.737 237.597 204.308 238.21 204.806 238.58C205.055 238.765 205.355 238.938 205.624 239.098C207.75 240.343 203.701 237.303 204.793 238.453C208.21 242.022 212.023 245.375 215.587 248.81C229.388 262.111 246.032 271.383 264.055 277.692C280.768 283.542 298.842 286.562 316.546 286.613C333.432 286.664 350.491 283.855 365.768 276.466C372.269 273.325 378.528 268.912 383.357 263.523C385.215 261.447 386.888 259.187 388.581 256.977C389.143 256.243 389.705 255.496 390.26 254.755C390.58 254.327 390.912 253.906 391.225 253.472C392.215 252.092 388.875 256.364 390.708 254.142C391.921 252.667 393.134 251.205 394.488 249.851C395.089 249.251 396.609 248.363 396.96 247.616C396.934 247.673 394.501 249.302 395.753 248.587C396.379 248.229 396.96 247.782 397.592 247.418C398.154 247.092 401.118 245.579 399.17 246.55C397.222 247.52 400.664 246.173 401.309 246.02C401.744 245.917 402.919 245.534 403.455 245.598C403.187 245.566 400.051 245.79 402.708 245.809C403.998 245.822 405.275 245.783 406.565 245.854C412.007 246.166 416.886 246.843 422.347 245.739C435.51 243.082 443.595 230.803 447.35 218.836C450.295 209.455 451.591 199.219 452.153 189.436C452.715 179.654 452.025 170.343 449.911 161.116C445.179 140.446 430.349 122.917 408.897 118.85C397.477 116.685 385.873 117.119 374.402 118.626C363.475 120.063 352.765 122.247 342.303 125.778C321.272 132.866 302.036 143.792 285.086 158.089C277.537 164.456 270.652 171.557 264.483 179.264C262.017 182.348 260.274 185.311 260.274 189.424C260.274 192.949 261.838 197.157 264.483 199.583C269.751 204.417 279.715 205.79 284.805 199.583C301.851 178.779 310.958 153.472 312.159 126.646C313.283 101.398 307.024 75.5357 294.653 53.5116C288.554 42.656 280.711 32.4454 271.546 23.9972C261.8 15.0126 250.426 7.06246 237.691 3.02035C224.413 -1.18779 209.392 -1.31551 196.644 4.58483C190.66 7.3562 185.257 12.1901 182.082 18.0074C177.146 27.0559 176.999 37.3751 179.751 47.1579C182.504 56.9407 186.368 65.9828 189.727 75.293C193.31 85.2036 196.887 95.1077 200.47 105.018C207.629 124.833 214.788 144.648 221.948 164.462C228.986 159.054 236.017 153.645 243.055 148.236C189.35 112.777 130.926 84.4564 69.9144 63.9777C62.2952 61.4234 54.6377 58.9905 46.9418 56.6917C39.2459 54.3928 31.665 51.5193 23.8925 51.8705C12.9842 52.3622 2.90612 59.016 0.645264 70.2356C-1.03441 78.6072 0.970982 87.1959 3.02747 95.3312C9.77173 121.978 23.5924 146.576 41.8772 166.997C62.2313 189.73 88.8635 206.876 118.05 215.79C116.907 207.035 115.764 198.281 114.621 189.532C63.3554 227.469 31.1413 286.185 24.9016 349.505C23.1389 367.366 24.0011 385.156 26.7026 402.876C27.188 406.063 30.5474 410.003 33.3064 411.465C36.7105 413.266 40.5935 413.994 44.3808 412.915C82.2917 402.078 115.279 376.689 136.163 343.33C142.166 333.746 146.943 323.407 150.769 312.775C141.534 310.227 132.292 307.679 123.057 305.138C109.882 354.026 112.583 407.691 131.807 454.638C134.458 461.114 136.955 467.423 141.872 472.576C147.812 478.808 156.357 481.235 164.698 479.645C177.529 477.199 185.225 463.604 188.392 452.065C193.917 431.918 193.751 410.188 193.112 389.479C192.403 366.427 190.934 343.388 192.135 320.317C192.454 314.154 192.946 307.992 193.655 301.862C193.744 301.077 193.847 300.298 193.936 299.512C194.255 296.76 193.936 299.289 193.885 299.793C194.057 298.203 194.338 296.619 194.581 295.042C195.118 291.626 195.718 288.222 196.395 284.832C198.132 276.121 200.399 267.584 203.184 259.155C209.264 240.777 214.13 222.361 217.873 203.344C218.703 199.13 219.476 194.883 220.562 190.72C220.919 189.36 221.354 188.038 221.794 186.703C222.612 184.238 219.961 189.998 221.271 188.006C221.379 187.846 222.005 186.429 222.21 186.454C222.414 186.48 219.649 189.583 220.658 188.51C220.817 188.344 220.983 188.166 221.162 188.025C221.52 187.738 217.624 190.541 219.067 189.66C219.259 189.545 219.451 189.417 219.655 189.328C219.029 189.609 215.491 190.79 217.809 190.222C217.605 190.273 213.434 190.86 216.525 190.554C218.537 190.356 213.888 190.509 214.214 190.228C214.265 190.184 215.108 190.407 215.261 190.452C215.983 190.675 216.704 190.911 217.426 191.135C219.463 191.78 213.849 189.353 216.8 190.943C217.669 191.416 218.531 191.888 219.368 192.418C220.044 192.846 220.696 193.319 221.36 193.759C223.174 194.966 220.217 192.859 220.14 192.789C220.466 193.115 220.894 193.395 221.252 193.696C222.829 195.03 224.317 196.467 225.703 197.993C226.073 198.402 228.309 201.231 226.68 199.034C225.052 196.837 227.146 199.736 227.434 200.177C227.881 200.854 228.302 201.544 228.705 202.246C228.928 202.642 229.139 203.038 229.343 203.44C230.174 205.088 229.42 205.318 228.967 202.406C229.075 203.102 229.471 203.81 229.656 204.5C229.765 204.89 229.81 205.305 229.937 205.688C230.48 207.271 229.714 201.971 229.688 203.625C229.676 204.36 229.676 205.177 229.707 205.905C229.42 199.685 230.512 205.049 229.586 205.068C229.26 205.068 231.77 201.071 230.199 203.434C229.893 203.893 229.605 204.43 229.324 204.902C228.449 206.39 228.679 204.59 230.078 204.021C229.822 204.123 229.094 205.132 228.967 205.26C228.488 205.758 226.08 207.738 227.938 206.346C229.797 204.954 228.181 206.16 227.702 206.448C227.102 206.812 226.514 207.201 225.901 207.546C225.403 207.827 224.886 208.063 224.387 208.338C222.356 209.481 225.135 208.038 225.454 207.948C224.343 208.255 223.257 208.779 222.146 209.123C219.706 209.883 217.228 210.317 214.724 210.809C213.134 211.122 216.398 210.605 216.308 210.611C215.721 210.63 215.108 210.752 214.52 210.803C213.332 210.918 212.144 211.001 210.956 211.058C207.852 211.211 204.729 211.199 201.619 211.141C198.509 211.084 195.456 210.956 192.378 210.745C189.299 210.535 186.202 209.73 183.277 209.864C183.628 209.845 186.662 210.362 184.075 209.966C183.583 209.89 183.092 209.819 182.606 209.743C181.342 209.545 180.077 209.328 178.813 209.098C176.335 208.638 173.863 208.108 171.417 207.489C169.373 206.971 167.349 206.397 165.343 205.739C164.551 205.477 163.759 205.209 162.974 204.922C161.888 204.526 158.241 202.955 163.057 205.03C159.365 203.44 156.031 202.469 151.982 203.581C148.649 204.5 145.034 207.074 143.392 210.183C140.122 216.371 141.176 226.665 148.546 229.838C157.871 233.861 167.361 236.39 177.427 237.814C189.887 239.576 202.845 240.815 215.414 239.436C227.785 238.082 240.775 234.717 249.576 225.26C258.256 215.93 260.676 204.187 255.714 192.438C251.652 182.821 244.531 175.203 236.152 169.13C228.705 163.734 218.556 159.916 209.379 162.706C199.946 165.573 195.201 174.092 192.857 183.057C190.206 193.172 188.705 203.6 186.381 213.798C184.19 223.402 181.61 232.903 178.551 242.271C176.335 249.04 173.952 255.751 172.075 262.622C165.292 287.475 162.955 313.58 162.916 339.282C162.884 361.868 164.788 384.416 164.634 407.002C164.596 412.321 164.436 417.634 164.059 422.94C163.9 425.226 163.695 427.506 163.44 429.779C163.382 430.277 162.929 434.517 163.197 431.918C163.434 429.62 163.223 431.657 163.133 432.238C163.018 432.978 162.903 433.719 162.776 434.453C162.38 436.803 161.926 439.141 161.396 441.465C160.821 443.994 159.71 446.433 159.167 448.936C159.238 448.61 160.675 445.833 159.551 447.94C159.276 448.457 159.033 448.994 158.752 449.511C158.439 450.092 156.919 451.829 156.938 452.435C156.926 452.103 159.301 449.875 157.641 451.465C157.27 451.822 156.875 452.225 156.53 452.602C155.393 453.84 155.885 451.982 157.641 451.771C157.258 451.816 154.844 453.227 157.411 452.046C159.384 451.139 158.324 451.637 157.762 451.778C161.511 450.826 160.566 451.573 159.404 451.497C163.351 451.778 161.958 451.982 160.911 451.682C158.586 451.018 161.696 452.02 161.952 452.135C159.863 451.197 162.686 452.384 162.808 452.85C162.846 452.997 161.677 451.573 161.607 451.586C162.297 451.458 163.319 454.14 162.271 452.333C161.811 451.541 161.339 450.775 160.911 449.958C160.406 448.987 160.061 447.512 159.384 446.676C159.64 446.988 160.553 449.549 159.525 446.982C159.244 446.28 158.957 445.584 158.682 444.888C157.5 441.912 156.383 438.911 155.335 435.884C151.267 424.134 148.202 412.046 146.164 399.779C145.915 398.292 145.685 396.804 145.468 395.31C145.398 394.818 145.085 392.385 145.334 394.422C145.583 396.459 145.296 394.026 145.232 393.528C144.849 390.348 144.536 387.161 144.287 383.969C143.814 377.768 143.59 371.549 143.629 365.335C143.667 359.122 143.961 352.902 144.516 346.715C144.785 343.72 145.053 340.706 145.506 337.73C144.951 341.376 145.647 336.913 145.8 335.955C146.062 334.282 146.349 332.609 146.65 330.942C147.761 324.825 149.147 318.765 150.763 312.756C152.717 305.508 148.323 296.811 140.729 295.08C132.65 293.241 125.778 297.533 123.051 305.112C122.355 307.041 121.601 308.937 120.86 310.847C120.164 312.647 121.997 308.26 121.212 310.023C121.02 310.451 120.835 310.891 120.643 311.319C120.132 312.469 119.609 313.612 119.066 314.748C117.239 318.58 115.227 322.328 113.062 325.981C110.897 329.633 108.56 333.19 106.082 336.632C105.437 337.526 104.766 338.401 104.121 339.288C103.182 340.578 104.945 338.215 104.932 338.254C104.753 338.694 104.019 339.41 103.763 339.735C102.384 341.453 100.966 343.145 99.5164 344.799C93.8004 351.306 87.5223 357.315 80.7653 362.73C80.4076 363.017 79.9861 363.292 79.654 363.611C79.6413 363.624 81.966 361.861 80.695 362.807C79.8073 363.464 78.9323 364.135 78.0446 364.78C76.2627 366.076 74.4489 367.328 72.6096 368.541C68.9309 370.967 65.1436 373.228 61.2606 375.31C59.1785 376.427 57.0774 377.487 54.9442 378.496C53.8074 379.032 52.6642 379.556 51.5146 380.067C48.4938 381.402 53.2965 379.39 51.0356 380.278C46.3351 382.117 41.6026 383.79 36.7488 385.175C42.6436 388.522 48.5321 391.868 54.4269 395.207C54.3694 394.837 54.28 392.557 54.0054 392.366L54.2609 394.288C54.1778 393.656 54.1012 393.023 54.0246 392.391C53.8393 390.808 53.6669 389.224 53.52 387.634C53.1624 383.828 52.9197 380.009 52.7856 376.191C52.5429 369.192 52.6706 362.181 53.1624 355.189C53.4051 351.696 53.7435 348.209 54.1714 344.729C54.2481 344.097 54.3439 343.464 54.4141 342.832C53.9479 347.092 54.3056 343.733 54.4333 342.864C54.7143 340.974 55.0273 339.09 55.3657 337.207C56.6239 330.144 58.2461 323.145 60.2132 316.249C62.1803 309.352 64.4986 302.545 67.149 295.872C67.4428 295.132 67.743 294.391 68.0432 293.65C68.5477 292.418 68.3753 290.994 67.8899 293.995C68.139 292.443 69.3652 290.617 70.023 289.18C71.5494 285.84 73.1588 282.545 74.8513 279.289C78.0893 273.069 81.6403 267.003 85.4722 261.128C87.3882 258.191 89.3808 255.304 91.4437 252.469C92.3059 251.281 93.1745 249.583 94.2985 248.638C91.6736 250.841 93.6599 249.461 94.4007 248.529C95.1926 247.533 95.991 246.537 96.8021 245.553C101.758 239.532 107.065 233.791 112.686 228.389C115.553 225.63 118.51 222.955 121.544 220.375C123 219.136 124.475 217.916 125.97 216.722C126.628 216.199 128.939 213.964 126.072 216.607C126.992 215.758 128.128 215.049 129.131 214.308C133.902 210.777 136.827 206.199 135.99 199.992C135.224 194.29 131.226 189.737 125.695 188.044C122.744 187.144 119.819 186.167 116.926 185.081C115.77 184.647 114.621 184.2 113.478 183.74L112.622 183.389C111.191 182.795 111.485 182.917 113.497 183.76C113.465 183.511 111.172 182.725 110.961 182.636C105.635 180.209 100.455 177.47 95.4481 174.443C92.9445 172.93 90.4793 171.339 88.0652 169.692C86.922 168.907 85.7852 168.108 84.6611 167.297C84.0352 166.844 83.4157 166.391 82.7962 165.924C79.8775 163.741 84.642 167.444 82.4003 165.637C77.8275 161.953 73.4079 158.128 69.2183 154.009C65.0287 149.89 60.8774 145.324 57.0837 140.65C56.5984 140.05 56.1194 139.443 55.6404 138.843C53.9607 136.742 56.1449 139.558 56.1896 139.552C55.832 139.584 53.6925 136.18 53.4434 135.829C51.6487 133.319 49.9244 130.759 48.2766 128.153C45.0641 123.07 42.1455 117.809 39.5397 112.394C38.9394 111.142 38.3518 109.89 37.7898 108.62C37.4768 107.917 37.1703 107.208 36.8637 106.506C36.0271 104.603 38.2049 109.897 37.0681 106.953C35.9313 104.009 34.8456 101.212 33.862 98.2877C32.0035 92.7322 30.4707 87.0746 29.2956 81.3339C29.1104 80.4271 28.9571 79.5076 28.7655 78.6072C28.5228 77.4897 28.9252 76.5255 28.8485 79.6289C28.8613 79.0223 28.7144 78.3454 28.6889 77.7324L28.6633 76.7873C28.74 75.1845 28.6378 75.5293 28.3632 77.8345C28.427 77.7962 28.7911 75.9635 28.7974 76.0849C28.8613 77.196 27.6031 78.5561 26.8878 79.3352C28.5164 77.5599 24.9719 80.9443 23.9819 80.74L24.7675 80.4846C26.2811 80.1525 25.8468 80.1844 23.4519 80.5804C23.867 80.8613 28.74 80.491 25.9937 80.5548C23.6179 80.6123 26.1789 80.657 26.7793 80.7975C27.3796 80.938 27.948 81.0784 28.5292 81.2317C32.1376 82.1832 35.7205 83.2815 39.297 84.3543C46.6289 86.5445 53.9224 88.8561 61.1839 91.2763C75.1579 95.9378 88.9849 101.034 102.646 106.538C106.018 107.898 109.39 109.258 112.73 110.689C109.939 109.488 111.881 110.331 112.468 110.58C113.35 110.957 114.225 111.334 115.106 111.71C117.041 112.54 118.97 113.383 120.892 114.233C127.72 117.24 134.496 120.357 141.227 123.575C171.43 138.019 200.616 154.558 228.551 173C233.335 176.161 240.201 175.209 244.512 171.876C248.823 168.543 251.601 162.151 249.659 156.774C237.921 124.277 226.176 91.7808 214.437 59.2842C213.006 55.3188 211.569 51.3597 210.139 47.3942C208.708 43.4287 206.543 39.029 206.422 34.8847C206.524 38.2882 206.55 35.7978 206.588 35.2423V34.0865C206.69 32.4262 206.639 32.5476 206.422 34.4441C206.569 34.393 207.348 31.296 207.373 31.1108C207.348 31.264 205.662 34.4696 206.741 32.7391C207.08 32.1963 207.399 31.6344 207.725 31.0852C208.568 29.674 208.191 31.8962 206.62 32.4773C207.048 32.3177 207.808 31.2513 208.14 30.8937C210.081 28.8375 205.145 32.7391 207.987 31.015C208.913 30.4531 209.922 30.0316 210.841 29.4697C206.894 31.8579 209.673 29.9678 211.193 29.5335C212.547 29.144 213.939 28.9844 215.299 28.6332C210.726 29.8145 214.194 28.7864 215.817 28.7098C217.062 28.6523 218.307 28.6459 219.553 28.6842C220.798 28.7226 222.082 28.8439 223.346 28.9588C224.477 29.0546 225.422 29.6868 221.807 28.7481C222.663 28.9716 223.589 29.0482 224.464 29.2206C226.846 29.7059 229.196 30.3509 231.489 31.1491C232.173 31.3918 232.907 31.7877 233.616 31.9409C233.488 31.909 230.218 30.3828 232.249 31.3726C233.59 32.0239 234.919 32.6753 236.222 33.4096C238.54 34.7187 240.795 36.1299 242.992 37.6305C244.084 38.3776 245.15 39.1631 246.223 39.9357C246.996 40.4913 247.992 41.6343 245.201 39.1312C245.885 39.7442 246.651 40.2806 247.354 40.868C251.499 44.3099 255.362 48.0966 258.907 52.1515C259.769 53.1413 260.619 54.1438 261.449 55.1655C261.768 55.5614 262.081 56.0212 262.432 56.3979C259.59 53.3392 261.462 55.14 262.1 55.9956C263.748 58.2178 265.306 60.5039 266.788 62.841C269.681 67.4259 272.249 72.2088 274.484 77.1513C274.759 77.7579 275.008 78.3709 275.289 78.9712C276.113 80.7336 273.877 75.4527 274.918 78.1091C275.404 79.3479 275.895 80.5804 276.355 81.8256C277.32 84.4437 278.195 87.1001 278.98 89.7757C280.513 95.0119 281.707 100.35 282.55 105.746C282.62 106.212 282.972 108.907 282.64 106.206C282.308 103.505 282.633 106.206 282.691 106.672C282.844 107.994 282.978 109.316 283.093 110.644C283.329 113.428 283.476 116.219 283.521 119.009C283.572 122.061 283.521 125.114 283.342 128.16C283.253 129.743 283.125 131.327 282.972 132.911C282.921 133.434 282.863 133.964 282.806 134.488C282.748 135.012 282.684 135.542 282.62 136.065C282.946 133.69 283.029 133.07 282.87 134.207C281.848 140.203 280.698 146.103 278.872 151.921C277.965 154.807 276.745 157.578 275.787 160.439C277.307 155.912 275.531 160.925 274.995 162.048C274.369 163.357 273.718 164.647 273.041 165.924C271.616 168.606 270.071 171.218 268.404 173.753C267.529 175.081 266.622 176.391 265.683 177.674C265.377 178.096 265 178.517 264.732 178.958C267.044 175.216 265.217 178.306 264.495 179.187L284.817 199.507C291.089 191.665 298.108 184.456 305.804 178.006C306.698 177.253 307.605 176.512 308.518 175.784C311.335 173.536 307.113 176.793 309.176 175.26C311.239 173.728 313.493 172.099 315.71 170.599C319.867 167.789 324.165 165.184 328.572 162.789C330.629 161.672 332.711 160.599 334.818 159.571C335.872 159.06 336.932 158.555 337.992 158.07C338.835 157.681 343.383 155.995 339.615 157.297C344.36 155.656 348.952 153.658 353.761 152.17C358.57 150.682 363.092 149.526 367.843 148.543C370.296 148.032 372.768 147.585 375.246 147.195C375.744 147.119 376.235 147.055 376.734 146.972C378.733 146.646 373.885 147.304 375.897 147.08C377.225 146.934 378.554 146.768 379.882 146.64C385.113 146.129 390.395 145.842 395.657 146.014C396.96 146.059 398.263 146.129 399.566 146.244C399.974 146.282 401.59 146.289 401.782 146.474C401.839 146.531 398.978 145.937 400.709 146.372C401.961 146.685 403.244 146.863 404.49 147.195C405.199 147.381 405.908 147.591 406.61 147.815C407.006 147.942 409.989 148.939 407.99 148.262C406.329 147.7 409.171 148.894 409.733 149.213C410.551 149.673 411.323 150.197 412.122 150.682C414.938 152.374 410.308 149.003 412.045 150.548C412.914 151.32 413.782 152.074 414.606 152.898C415.238 153.536 415.813 154.22 416.42 154.877C418.049 156.64 414.6 152.183 416.279 154.705C417.429 156.429 418.508 158.172 419.434 160.031C420.016 161.199 420.52 163.709 419.441 159.82C419.684 160.701 420.124 161.563 420.424 162.425C421.089 164.341 421.644 166.288 422.11 168.262C422.36 169.334 422.589 170.414 422.787 171.493C422.896 172.093 423.388 175.528 423.056 172.885C422.724 170.241 423.126 173.645 423.196 174.328C423.305 175.458 423.388 176.589 423.452 177.725C423.694 182.023 423.637 186.339 423.343 190.631C423.203 192.629 422.998 194.622 422.781 196.62C422.513 199.06 422.922 195.541 422.966 195.337C422.851 195.88 422.807 196.467 422.717 197.01C422.545 198.114 422.366 199.219 422.162 200.318C421.919 201.659 419.798 213.855 418.706 213.798C418.643 213.798 420.297 210.503 419.051 212.974C418.841 213.389 418.643 213.81 418.425 214.225C418.042 214.947 416.918 216.186 416.765 216.997C417.078 215.356 418.502 215.1 417.32 216.256C416.893 216.678 416.458 217.137 416.05 217.572C415.762 217.878 414.485 218.849 416.088 217.635C418.266 215.988 415.238 218.076 415.238 218.044C415.181 217.693 418.738 217.086 416.305 217.559C415.986 217.623 415.398 217.699 415.111 217.846C413.987 218.434 416.656 217.482 416.925 217.61C416.707 217.501 415.634 217.661 415.29 217.661C412.984 217.661 410.698 217.348 408.405 217.15C402.504 216.646 396.289 217.086 390.695 219.104C384.672 221.269 379.422 224.43 374.767 228.849C371.235 232.207 368.374 236.262 365.455 240.138C365.135 240.566 364.803 240.981 364.497 241.416C363.596 242.667 365.653 239.96 365.538 240.081C364.842 240.847 364.235 241.722 363.558 242.507C362.517 243.714 361.406 244.857 360.224 245.937C359.713 246.403 359.158 246.831 358.647 247.303C357.331 248.529 361.827 245.081 359.151 246.901C357.861 247.776 356.584 248.644 355.236 249.43C353.889 250.215 352.618 250.885 351.27 251.537C350.58 251.869 349.859 252.156 349.182 252.501C353.525 250.292 350.382 251.997 349.195 252.444C345.905 253.682 342.527 254.672 339.104 255.477C337.43 255.866 335.751 256.211 334.065 256.511C333.202 256.664 332.34 256.811 331.478 256.939C327.653 257.527 334.32 256.664 331.146 256.977C327.359 257.354 323.584 257.648 319.784 257.731C315.71 257.814 311.628 257.718 307.567 257.444C305.491 257.303 303.415 257.124 301.346 256.894C300.375 256.786 299.405 256.607 298.434 256.55C298.632 256.562 302.164 257.099 299.749 256.722C299.194 256.633 298.638 256.556 298.082 256.466C289.678 255.145 281.381 253.133 273.322 250.419C271.444 249.787 269.579 249.117 267.733 248.408C266.718 248.018 265.638 247.437 264.591 247.156C264.476 247.124 267.503 248.44 266.079 247.782C265.441 247.488 264.795 247.22 264.15 246.933C260.35 245.221 256.633 243.325 253.031 241.237C249.429 239.149 246.127 236.907 242.813 234.519C240.827 233.089 245.47 236.709 242.864 234.551C242.149 233.957 241.42 233.376 240.718 232.769C238.655 231.001 236.688 229.13 234.746 227.233C226.687 219.347 217.707 208.395 205.036 211.352C192.224 214.34 191.611 228.344 193.31 238.695C195.054 249.334 198.924 259.787 202.769 269.832C204.365 273.995 206.122 278.101 207.967 282.162C212.412 291.932 217.566 301.377 222.925 310.668C232.064 326.517 241.912 341.957 252.022 357.2C267.606 380.699 283.872 403.739 300.433 426.554C324.185 459.281 348.594 491.528 373.317 523.527C381.096 533.597 388.9 543.642 396.736 553.667C398.844 556.362 403.66 557.875 406.898 557.875C410.423 557.875 414.632 556.311 417.059 553.667C422.851 547.358 422.021 539.695 417.059 533.348L417.039 533.469Z" fill="#010101"/>
<path d="M339.199 416.644C339.729 414.422 340.329 412.225 341.032 410.054C341.358 409.045 341.709 408.043 342.073 407.046C342.284 406.478 342.507 405.916 342.718 405.348C343.395 403.553 342.622 405.661 342.309 406.261C344.423 402.213 346.224 398.107 348.677 394.237C349.897 392.315 351.238 390.488 352.541 388.624C353.441 387.34 351.647 389.754 351.672 389.722C352.074 389.282 352.432 388.764 352.809 388.298C353.671 387.238 354.559 386.204 355.472 385.182C358.512 381.778 361.795 378.592 365.288 375.661C365.633 375.367 367.824 373.873 367.766 373.643C367.792 373.745 364.886 375.782 367.038 374.231C367.409 373.962 367.773 373.688 368.143 373.426C370.123 372.002 372.148 370.655 374.23 369.39C376.178 368.203 378.164 367.085 380.195 366.038C381.14 365.552 382.092 365.08 383.056 364.627C383.465 364.429 383.88 364.237 384.295 364.052C384.544 363.937 387.335 362.724 385.08 363.682C382.826 364.639 386.217 363.254 386.747 363.056C387.884 362.628 389.027 362.226 390.177 361.849C392.336 361.134 394.52 360.508 396.723 359.959C398.927 359.41 401.149 358.956 403.391 358.586C403.838 358.509 404.291 358.452 404.738 358.375C406.654 358.056 401.686 358.707 403.621 358.535C404.828 358.426 406.029 358.286 407.242 358.196C409.516 358.037 411.796 357.966 414.069 357.998C415.136 358.011 416.209 358.126 417.269 358.107C419.159 358.075 414.408 357.341 416.209 357.922C417.544 358.35 418.208 359.116 415.723 357.59C416.081 357.807 411.515 353.018 412.709 354.767C413.75 356.293 411.917 352.085 412.364 353.905C412.677 355.169 413.137 356.415 413.507 357.66C414.472 360.878 415.43 364.097 416.394 367.315C420.002 379.384 423.604 391.453 427.213 403.522C429.014 409.556 430.821 415.59 432.622 421.625C433.446 424.377 434.021 427.429 435.145 430.073L435.471 431.229C435.873 428.975 436.282 426.727 436.684 424.473C438.677 420.194 441.525 420.514 439.239 421.644C439.59 421.472 442.4 420.622 440.107 421.203C439.501 421.357 438.9 421.555 438.287 421.708C437.074 422.014 435.854 422.244 434.621 422.481C432.048 422.972 437.93 422.18 434.283 422.487C431.958 422.685 429.614 422.723 427.283 422.647C424.952 422.57 422.563 422.321 420.207 422.072C418.572 421.899 421.701 422.276 421.657 422.263C421.069 422.104 420.366 422.065 419.76 421.97C418.489 421.759 417.218 421.535 415.953 421.286C395.376 417.334 374.651 409.818 353.55 414.984C330.437 420.641 315.492 441.829 301.742 459.619C286.848 478.879 273.078 498.929 260.765 519.938C248.49 540.889 232.785 567.997 246.35 592.096C251.536 601.31 261.212 609.12 271.667 611.291C285.156 614.088 297.954 608.558 305.203 596.77C311.194 587.026 312.643 574.618 315.077 563.661C317.804 551.362 320.537 539.063 323.264 526.771C324.631 520.621 325.992 514.472 327.358 508.323C328.98 501.005 325.148 492.429 317.325 490.647C310.051 488.993 301.39 492.838 299.647 500.679C294.231 525.091 289.294 549.67 283.354 573.961C282.831 576.106 282.109 578.169 281.49 580.289C280.953 582.122 282.748 577.754 281.886 579.44C281.675 579.848 281.496 580.276 281.285 580.678C281.004 581.215 280.71 581.751 280.391 582.268C280.129 582.696 278.679 584.982 279.944 583.016C281.419 580.717 278.558 584.286 278.552 584.152C278.52 583.705 281.458 582.447 279.42 583.335C279.095 583.475 278.271 583.852 278.066 584.044C278.232 583.89 280.915 583.214 279.752 583.258C279.331 583.277 278.711 583.463 278.322 583.622C277.14 584.108 280.225 583.341 280.321 583.373C279.938 583.265 278.922 583.392 278.475 583.418C275.378 583.578 281.068 584.152 278.954 583.514C278.239 583.297 276.738 582.632 276.016 582.639C276.061 582.639 278.807 584.063 277.651 583.322C277.217 583.041 276.706 582.85 276.246 582.594C275.569 582.217 272.855 580.238 274.688 581.738C276.649 583.341 274.088 581.17 273.666 580.768C273.066 580.193 272.165 578.744 271.456 578.373C271.539 578.418 273.098 580.876 272.478 579.657C272.235 579.184 271.871 578.75 271.59 578.297C271.194 577.645 269.687 574.523 270.671 576.77C271.705 579.139 270.402 575.627 270.268 575.059C270.23 574.899 270.013 573.558 269.962 573.552C270.428 573.61 270.096 576.343 270.058 574.012C270.038 572.703 269.949 571.406 270 570.097C270.026 569.35 270.121 568.61 270.153 567.862C270.236 565.845 269.432 571.266 270.198 567.786C270.773 565.174 271.412 562.613 272.28 560.085C272.529 559.357 272.81 558.635 273.072 557.914L273.283 557.371C273.583 556.617 273.564 556.649 273.219 557.473L272.944 558.118C273.174 557.582 273.411 557.052 273.653 556.522C274.056 555.634 274.471 554.753 274.892 553.878C279.995 543.374 286.126 533.297 292.264 523.374C298.44 513.38 304.941 503.591 311.743 494.019C315.147 489.236 318.628 484.504 322.185 479.83C322.658 479.211 323.124 478.572 323.609 477.965C323.284 478.368 321.866 480.2 323.52 478.087C324.363 477.008 325.206 475.928 326.055 474.849C327.876 472.544 329.715 470.258 331.573 467.985C335.144 463.617 338.726 459.243 342.584 455.13C344.244 453.361 345.956 451.644 347.757 450.022C348.032 449.773 350.478 448.093 350.503 447.678C350.465 448.4 348.338 449.192 350.05 448.061C350.765 447.589 351.449 447.084 352.17 446.625C353.179 445.98 354.208 445.373 355.268 444.811C355.581 444.645 357.03 444.07 357.107 443.892C357.088 443.93 354.476 444.894 355.926 444.377C358.257 443.547 360.569 442.793 363.002 442.302C363.596 442.18 364.203 442.097 364.797 441.982C366.374 441.669 363.174 442.187 363.232 442.193C364.375 442.276 365.716 441.969 366.872 441.925C369.178 441.835 371.483 441.893 373.783 442.053C374.868 442.129 375.954 442.244 377.04 442.346C379.658 442.595 376.203 442.34 376.024 442.187C376.222 442.359 377.781 442.448 377.902 442.468C380.271 442.844 382.634 443.298 384.985 443.789C389.928 444.817 394.826 446.031 399.744 447.155C409.943 449.492 420.532 451.663 431.045 451.395C436.595 451.254 442.445 450.59 447.759 448.904C456.77 446.05 464.721 438.834 463.949 428.579C463.425 421.599 460.538 414.613 458.539 407.94C456.738 401.906 454.931 395.872 453.13 389.837C449.521 377.768 445.919 365.699 442.311 353.631C439.954 345.738 437.968 337.839 430.598 333.037C425.093 329.448 418.182 329.154 411.796 329.25C369.765 329.876 331.586 357.634 315.69 396.031C313.946 400.252 312.541 404.575 311.481 409.013C309.744 416.312 313.774 424.92 321.514 426.689C328.891 428.368 337.328 424.473 339.193 416.657L339.199 416.644Z" fill="#010101"/>
</g>
<defs>
<clipPath id="clip0_245_303">
<rect width="464" height="612" fill="white"/>
</clipPath>
</defs>
</svg>
