<svg width="1082" height="996" viewBox="0 0 1082 996" fill="none" xmlns="http://www.w3.org/2000/svg">
<g clip-path="url(#clip0_245_334)">
<path d="M782.491 969.997C799.294 870.209 757.68 775.285 717.369 686.514C694.636 636.454 673.42 584.481 643.326 538.252C622.801 506.719 597.677 479.274 566.537 458.156C522.986 428.622 470.884 415.269 419.012 410.85C409.607 410.049 399.525 419.569 397.95 428.427C396.077 438.996 400.779 447.319 409.349 453.203C410.836 454.22 412.313 455.255 413.79 456.29C415.592 457.566 419.705 460.671 412.059 455.03C413.241 455.896 414.431 456.745 415.608 457.62C420.773 461.432 425.849 465.367 430.829 469.421C443.861 480.035 456.264 491.469 467.659 503.84C470.72 507.156 473.699 510.541 476.604 514.001C477.338 514.879 478.054 515.769 478.788 516.647C474.122 511.152 477.004 514.463 477.984 515.709C479.653 517.832 481.298 519.976 482.903 522.155C488.461 529.699 493.577 537.563 498.085 545.782C499.218 547.847 500.306 549.932 501.354 552.03C501.882 553.081 502.378 554.149 502.893 555.204C504.859 559.218 500.722 550.13 502.479 554.237C504.472 558.922 506.339 563.653 507.903 568.506C509.347 572.989 510.565 577.533 511.522 582.143C511.762 583.29 511.924 584.475 512.2 585.618C510.607 579.051 511.752 582.967 511.975 584.615C512.362 587.358 512.645 590.125 512.839 592.89C513.167 597.618 513.164 602.351 512.937 607.078C512.849 608.991 512.729 610.898 512.591 612.818C512.518 613.787 512.39 614.773 512.361 615.743C512.652 607.912 512.593 613.091 512.376 614.947C511.23 624.916 509.121 634.736 506.35 644.374C504.747 649.943 502.882 655.407 500.99 660.88C499.098 666.353 502.863 656.167 500.605 661.944C499.912 663.716 499.236 665.497 498.529 667.273C496.852 671.512 495.126 675.736 493.378 679.938C487.125 694.972 480.447 709.826 473.353 724.481C466.259 739.136 458.754 753.584 450.835 767.811C449.949 769.413 449.077 771.01 448.147 772.588L447.343 773.95C445.964 776.094 446.25 775.77 448.204 772.97C448.707 774.325 442.109 777.124 448.266 773.535L450.845 772.54C448.547 773.22 449.043 773.224 452.335 772.551L450.892 772.644C448.473 772.592 448.95 772.676 452.308 772.899C452.226 773.116 448.262 772.095 447.942 772.015C446.493 771.652 445.078 771.16 443.647 770.761C441.27 769.95 441.744 770.145 445.082 771.366C444.16 771.011 443.234 770.644 442.332 770.254C439.614 769.103 436.963 767.806 434.382 766.376C432.93 765.57 428.364 761.612 426.898 761.727L429.412 763.54C428.621 762.96 427.853 762.359 427.077 761.754C425.919 760.843 424.788 759.902 423.681 758.939C421.076 756.681 418.591 754.283 416.239 751.764C415.22 750.678 414.259 749.544 413.258 748.445C409.737 744.589 416.263 752.569 413.162 748.349C411.679 746.325 410.172 744.345 408.775 742.266C407.085 739.758 405.495 737.19 403.991 734.567C402.487 731.943 399.537 728.097 399.089 725.107L400.195 727.564C399.784 726.632 399.379 725.691 398.995 724.751C398.211 722.861 397.481 720.955 396.782 719.031C395.561 715.663 394.475 712.254 393.515 708.798C392.556 705.343 391.821 701.848 391.028 698.357C389.857 693.169 391.655 703.267 390.943 698.006C390.667 695.99 390.373 693.988 390.147 691.964C389.316 684.307 389.13 676.585 389.396 668.889C389.449 667.172 389.537 665.452 389.634 663.737C389.698 662.593 389.785 661.45 389.872 660.307C389.592 663.261 389.573 663.489 389.815 660.99C390.269 657.007 390.745 653.024 391.369 649.062C393.879 633.079 398.006 617.401 402.882 601.996C405.337 594.229 407.997 586.526 410.749 578.861C411.341 577.216 411.941 575.576 412.528 573.94C412.941 572.823 415.584 565.428 413.446 571.426C414.8 567.604 416.295 563.835 417.724 560.042C421.143 550.975 421.43 540.13 413.331 533.125C406.125 526.891 394.328 524.41 386.041 530.32C367.778 543.338 348.932 555.514 329.511 566.726C319.91 572.277 310.179 577.601 300.326 582.667C295.821 584.982 291.285 587.248 286.717 589.427C284.684 590.396 282.667 591.419 280.587 592.283C285.316 590.313 281.61 591.808 280.43 592.324C279.145 592.886 277.843 593.44 276.554 593.989C266.99 598.019 257.22 601.589 247.239 604.446C242.674 605.744 238.068 606.907 233.427 607.882C232.329 608.113 231.237 608.314 230.145 608.537C226.151 609.358 230.224 608.602 230.876 608.439C227.968 609.158 224.72 609.344 221.746 609.654C217.09 610.144 212.408 610.429 207.724 610.463C205.258 610.477 202.804 610.428 200.342 610.308C199.247 610.258 198.153 610.163 197.059 610.113C195.393 609.986 195.964 610.041 198.772 610.277C197.956 610.194 197.135 610.097 196.314 610C191.699 609.436 187.098 608.631 182.566 607.568C180.169 607.007 177.796 606.379 175.443 605.671C174.399 605.354 173.356 605.036 172.327 604.693C171.555 604.441 170.779 604.175 170.016 603.905C172.87 604.993 173.477 605.214 171.865 604.583C167.624 602.78 163.442 600.975 159.405 598.748C157.288 597.576 155.216 596.338 153.187 595.021C152.47 594.56 149.452 592.694 152.314 594.511C155.441 596.491 150.885 593.366 150.276 592.872C146.72 589.995 143.373 586.855 140.309 583.458C139.808 582.909 138.544 581.772 138.17 581.006C140.41 585.653 139.745 582.943 138.733 581.396C136.174 577.498 138.93 582.068 138.67 582.111C137.856 582.278 138.154 576.479 138.123 580.755C138.118 581.828 137.529 587.235 138.583 583.231C138.341 584.156 136.399 587.721 138.475 584.521C138.07 585.155 135.11 588.44 137.875 585.414C138.634 584.584 139.367 583.739 140.157 582.935C143.628 579.391 147.48 576.195 151.274 573.003C152.183 572.23 153.159 571.14 154.198 570.572C153.767 570.807 150.071 573.858 153.216 571.374C154.814 570.117 156.402 568.856 157.999 567.621C161.818 564.68 165.701 561.83 169.632 559.062C184.775 548.417 200.782 539.024 217.435 530.949C219.264 530.064 221.102 529.207 222.931 528.345C226.481 526.677 222.365 528.622 221.841 528.819C222.781 528.458 223.696 527.993 224.623 527.592C229.274 525.557 233.966 523.636 238.691 521.8C247.207 518.503 255.858 515.55 264.603 512.93C274.317 510.022 284.167 507.537 294.097 505.479C296.579 504.965 299.07 504.477 301.564 504.026C302.481 503.857 303.598 503.545 304.557 503.489C298.724 503.829 303.569 503.665 304.889 503.461C309.897 502.671 314.924 501.992 319.958 501.43C340.635 499.121 361.474 498.721 382.22 500.22C393.348 501.02 402.641 489.789 403.548 479.737C404.455 469.685 397.406 457.044 386.237 455.769C346.144 451.205 306.003 444.644 267.733 431.478C266.336 430.996 259.529 428.61 264.659 430.444C262.624 429.712 260.617 428.906 258.607 428.108C253.726 426.168 248.884 424.113 244.103 421.921C235.223 417.854 226.496 413.393 218.151 408.32C216.089 407.064 214.055 405.778 212.048 404.439C211.129 403.825 209.911 403.155 209.062 402.409C212.756 405.665 210.498 403.478 209.59 402.758C205.59 399.588 201.649 396.415 197.976 392.864C196.474 391.408 195.013 389.917 193.602 388.374C192.958 387.669 191.738 386.578 191.228 385.684C193.378 389.456 192.272 387.021 191.528 386.013C189.002 382.586 186.658 379.05 184.645 375.295C184.176 374.411 183.756 373.497 183.268 372.626C181.818 369.986 184.837 376.575 183.758 373.77C183.04 371.904 182.277 370.06 181.636 368.156C181.087 366.505 180.584 364.832 180.161 363.135C179.917 362.167 179.718 361.2 179.488 360.228C178.296 355.335 179.858 365.046 179.497 360.04C179.37 358.319 179.163 356.601 179.104 354.881C179.07 353.901 179.055 352.907 179.066 351.928L179.076 351.185C179.184 349.238 179.148 349.219 178.988 351.139L178.84 352.566C178.912 351.835 179.003 351.09 179.119 350.359C179.256 349.378 179.424 348.403 179.623 347.433C179.909 345.999 181.753 341.917 181.456 340.558C181.585 341.125 179.242 345.508 181.096 341.703C181.563 340.74 181.978 339.748 182.462 338.794C183.428 336.873 184.543 335.053 185.636 333.211C187.753 329.659 182.71 336.774 186.355 332.222C187.879 330.315 189.495 328.49 191.204 326.748C192.737 325.186 194.375 323.746 195.965 322.247C197.12 321.163 197.892 319.455 195.254 322.775C195.799 322.091 197.27 321.243 197.899 320.784C201.481 318.182 205.253 315.839 209.14 313.727C211.013 312.718 213.033 311.414 215.049 310.754C209.731 312.489 216.064 310.421 217.519 309.859C222.063 308.108 226.7 306.61 231.398 305.315C235.538 304.176 239.733 303.19 243.945 302.361C245.033 302.147 246.218 301.837 247.33 301.727C242.575 302.233 245.704 301.994 246.759 301.842C249.323 301.473 251.886 301.104 254.453 300.793C263.912 299.662 273.429 299.062 282.95 298.815C287.351 298.697 291.758 298.675 296.161 298.786C298.509 298.845 300.864 298.931 303.205 299.066C304.38 299.136 305.549 299.237 306.72 299.294C309.485 299.44 302.769 298.778 307.036 299.338C312.249 300.015 317.42 300.727 322.558 301.863C325.112 302.429 327.637 303.07 330.146 303.804C331.256 304.123 332.366 304.464 333.466 304.823C338.085 306.317 334.079 304.31 333.548 304.753C334.7 303.803 345.103 310.096 346.58 310.961C348.326 311.98 354.211 316.651 348.902 312.173C350.374 313.41 351.971 314.497 353.438 315.742C356.727 318.522 359.351 322.172 362.629 324.867C359.289 322.117 360.532 322.166 361.639 323.683C362.486 324.837 363.33 325.976 364.123 327.168C365.313 328.934 366.408 330.751 367.425 332.629C367.763 333.25 368.074 333.88 368.411 334.501C370.714 338.796 366.759 329.794 368.347 334.388C369.03 336.383 369.787 338.325 370.344 340.366C370.589 341.267 370.821 342.172 371.026 343.085C371.919 347.071 370.441 342.525 370.918 342.246C370.736 342.353 371.37 348.807 371.375 349.308C384.028 343.557 396.677 337.814 409.33 332.063C403.43 326.908 397.658 321.618 392.25 315.943C391.03 314.66 389.819 313.359 388.644 312.032C387.531 310.782 384.158 305.624 387.441 310.78C385.311 307.438 382.627 304.436 380.502 301.063C379.84 300.008 374.943 293.031 375.54 292.057C375.592 291.96 377.599 297.343 376.153 293.29C375.828 292.369 375.452 291.478 375.126 290.557C374.484 288.72 373.913 286.854 373.433 284.967C373.25 284.247 373.121 282.638 372.781 282.106C372.811 282.156 373.362 286.549 373.123 284.145C372.921 282.033 372.643 279.959 372.562 277.832C372.489 275.925 372.577 274.035 372.608 272.125C372.659 269.581 371.732 270.833 372.521 273.076C372.183 272.114 372.961 270.014 373.142 269.056C373.818 265.293 374.762 261.582 375.901 257.929C376.231 256.881 376.616 255.84 376.929 254.783C377.861 251.688 375.312 258.759 376.541 255.766C377.39 253.703 378.198 251.63 379.091 249.59C382.6 241.546 386.666 233.753 390.714 225.972C395.064 217.605 399.457 209.261 404.19 201.108C406.548 197.039 409.002 193.021 411.562 189.082C412.754 187.246 413.985 185.443 415.22 183.631C417.696 179.999 415.359 183.286 414.966 183.96C415.737 182.638 416.85 181.44 417.789 180.229C423.347 173.082 429.498 166.523 436.261 160.515C439.268 157.845 432.453 163.394 436.946 159.973C438.333 158.921 439.741 157.892 441.171 156.908C444.444 154.651 447.847 152.577 451.357 150.706C452.998 149.835 458.371 148.252 452.788 149.847C454.405 149.383 456.007 148.501 457.587 147.915C461.254 146.558 465.009 145.441 468.828 144.606C473.785 143.528 465.699 144.867 469.615 144.447C471.548 144.241 473.464 144.026 475.403 143.936C477.101 143.854 478.797 143.838 480.491 143.89C481.148 143.911 482.033 144.099 482.676 143.976C479.539 143.656 478.816 143.588 480.507 143.774C481.234 143.855 481.966 143.949 482.687 144.062C484.532 144.341 486.375 144.71 488.185 145.162C488.994 145.366 489.784 145.605 490.588 145.818C495.027 147.013 489.681 145.777 489.614 145.413C489.614 145.413 495.388 148.485 495.442 148.468C495.118 148.567 492.094 145.543 493.824 147.358C494.382 147.949 496.675 149.26 496.764 150.157C496.77 150.273 493.986 145.541 495.981 149.435C496.254 149.965 497.129 151.812 497.45 152.062C497.16 151.84 496.074 148.068 496.524 150.267C496.723 151.234 497.151 152.175 497.409 153.139C497.54 153.639 497.623 154.952 497.935 155.344C496.495 153.559 497.517 151.509 497.678 154.188C497.816 156.504 498.049 158.792 498.08 161.119C498.131 164.94 497.94 168.77 497.701 172.584C497.626 173.79 497.515 174.999 497.444 176.219C497.248 179.547 497.872 172.539 497.476 175.839C497.191 178.248 496.951 180.658 496.64 183.074C495.42 192.393 493.67 201.645 491.4 210.768C490.155 215.769 488.759 220.735 487.208 225.653C486.386 228.262 485.503 230.839 484.619 233.416C484.435 233.953 483.179 236.569 484.429 234.006C485.892 231.001 483.798 235.641 483.54 236.274C479.774 245.824 475.41 255.113 470.512 264.129C459.961 283.56 448.805 303.337 450.101 326.261C450.913 340.682 465.12 351.173 479.164 346.876C487.027 344.466 494.942 342.277 502.94 340.358C506.797 339.431 510.671 338.558 514.552 337.757C518.433 336.956 522.998 335.465 527.076 335.358C526.937 335.363 523.083 336.009 525.593 335.611C526.433 335.48 527.269 335.336 528.109 335.205C530.071 334.901 532.029 334.606 533.991 334.325C538.202 333.733 542.417 333.2 546.638 332.738C554.802 331.848 563 331.214 571.21 330.835C587.343 330.084 603.531 330.336 619.631 331.584C620.752 331.67 621.9 331.726 623.019 331.857C622.328 331.773 618.192 331.351 622.287 331.807C623.991 331.989 625.696 332.171 627.403 332.411C629.4 332.703 631.386 333.057 633.347 333.523C634.361 333.767 637.271 335.259 634.6 333.679C631.929 332.1 635.042 333.914 635.651 334.216C636.385 334.583 639.574 336.382 636.71 334.632C634.164 333.073 636.332 334.363 636.818 334.961C636.519 334.587 634.165 330.729 635.795 333.647C636.035 334.069 636.386 334.879 636.731 335.21C638.076 336.514 635.49 333.156 635.601 332.671C635.621 332.591 636.147 334.797 636.291 334.93C636.155 334.801 635.929 330.139 635.837 332.185C635.795 333.137 635.928 334.227 636.016 335.191C636.319 338.774 637.154 330.326 636.027 334.937C635.672 336.391 635.429 337.87 635.013 339.313C634.827 339.939 634.579 340.555 634.424 341.186C633.718 344.005 636.493 336.657 635.122 339.235C634.291 340.798 633.667 342.482 632.831 344.054C631.511 346.535 629.525 348.82 628.374 351.345C630.367 347.002 630.547 348.389 629.317 349.955C628.846 350.565 628.383 351.18 627.902 351.785C626.483 353.601 625.016 355.38 623.509 357.127C618.826 362.565 613.75 367.658 608.347 372.384C607.579 373.062 606.788 373.718 606.015 374.383C605.558 374.774 603.483 376.502 605.901 374.492C608.318 372.482 606.248 374.201 605.76 374.564C604.944 375.184 604.132 375.816 603.311 376.422C600.229 378.724 597.051 380.907 593.814 382.968C590.781 384.9 587.693 386.724 584.545 388.447C582.967 389.306 581.38 390.139 579.771 390.948C578.163 391.757 572.551 393.598 578.057 391.871C571.23 394.016 564.765 397.226 557.834 399.225C554.387 400.212 550.898 401.085 547.39 401.824C546.382 402.036 545.384 402.23 544.373 402.428C543.802 402.544 541.151 403.013 544.175 402.481C547.199 401.949 544.552 402.41 543.978 402.49C542.707 402.664 541.441 402.851 540.162 402.997C538.067 403.253 535.986 403.438 533.885 403.577C526.523 404.044 519.118 404.081 511.744 403.783C509.26 403.685 506.776 403.541 504.289 403.362C503.73 403.326 503.181 403.272 502.623 403.235C499.113 402.977 504.909 403.432 505.033 403.453C503.496 403.213 501.919 403.132 500.376 402.946C494.435 402.232 488.528 401.242 482.696 399.941C479.769 399.29 476.858 398.545 473.975 397.725C472.523 397.304 471.066 396.869 469.629 396.399C467.685 395.773 462.998 393.234 469.143 396.333C463.688 393.578 458.002 391.596 452.733 388.407C451.437 387.628 450.213 386.693 448.898 385.948C446.353 384.515 452.868 389.068 450.634 387.2C450.139 386.789 449.593 386.409 449.094 386.007C446.546 383.983 444.123 381.788 441.86 379.441C440.849 378.382 439.947 376.883 438.788 376.017C438.806 376.026 441.593 379.922 440.413 377.946C439.966 377.187 439.353 376.51 438.848 375.777C437.752 374.197 436.728 372.565 435.782 370.895C434.835 369.225 434.104 366.638 432.877 365.283C432.877 365.283 434.652 369.377 433.711 367.143C433.34 366.266 432.95 365.379 432.579 364.502C431.941 363.018 431.316 361.531 430.673 360.056C428.863 355.922 427.11 351.659 424.765 347.784C419.783 339.561 412.491 332.657 403.947 328.214C389.062 320.488 372.042 319.329 355.83 322.7C322.605 329.605 300.592 362.489 305.094 395.739C308.763 422.825 323.27 446.614 348.635 458.828C374.001 471.041 400.695 469.599 424.77 456.751C427.191 455.456 429.531 454.017 431.742 452.395C441.231 445.459 446.254 432.013 439.073 421.431C432.677 411.991 418.25 406.684 408.109 414.1C405.889 415.717 403.558 417.161 401.136 418.455C400.234 418.938 399.187 419.31 398.336 419.865C399.964 418.806 403.306 417.741 399.899 419.1C397.242 420.155 394.509 421.035 391.731 421.721C390.925 421.915 390.09 422.037 389.302 422.263C387.179 422.89 391.768 421.842 391.795 421.857C390.72 421.534 388.29 422.269 387.094 422.346C385.441 422.452 383.791 422.424 382.135 422.449C380.39 422.472 379.183 421.525 383.502 422.69C382.542 422.428 381.432 422.449 380.443 422.286C377.298 421.79 374.38 420.759 371.318 419.957C369.567 419.501 374.855 421.08 374.744 421.247C374.72 421.291 372.653 420.407 372.822 420.474C371.795 420.041 370.768 419.585 369.761 419.095C368.488 418.486 367.234 417.819 366.003 417.13C365.187 416.662 360.31 413.331 363.466 415.724C366.623 418.116 362.205 414.668 361.486 414.059C360.173 412.93 358.928 411.735 357.734 410.488C357.407 410.144 356.61 408.939 356.175 408.798C358.016 409.404 358.527 412.043 356.892 409.621C355.65 407.783 354.399 405.962 353.334 404.002C351.796 401.168 350.718 397.253 353.906 405.632C353.759 405.248 353.568 404.863 353.412 404.474C352.879 403.092 352.346 401.709 351.876 400.293C351.31 398.587 350.817 396.853 350.387 395.106C350.12 394.012 349.942 392.898 349.67 391.813C349.04 389.292 350.373 397.092 350.118 394.442C350.055 393.729 349.921 393.023 349.85 392.305C349.559 389.636 349.563 387.01 349.532 384.343C349.486 379.618 348.738 388.475 349.486 384.749C349.813 383.111 350.052 381.471 350.473 379.849C350.636 379.245 350.889 378.62 351.003 378.001C351.543 375.197 348.862 382.537 350.241 379.986C350.987 378.605 351.539 377.12 352.317 375.744C352.658 375.144 353.08 374.564 353.404 373.955C354.486 371.858 351.996 375.879 351.936 375.927C353.349 374.889 354.506 372.842 355.795 371.568C355.754 371.603 357.847 369.862 357.856 369.675C357.847 369.84 354.083 372.402 356.032 371.208C357.386 370.387 358.632 369.408 360.017 368.615C360.689 368.225 361.839 367.829 362.379 367.346C362.32 367.394 358.009 368.94 360.171 368.346C361.856 367.883 363.468 367.11 365.153 366.624C366.541 366.23 368.341 366.19 369.604 365.583C369.142 365.812 364.226 366.154 367.769 365.988C368.409 365.955 369.047 365.864 369.692 365.822C371.175 365.716 372.657 365.678 374.137 365.706C374.763 365.722 375.405 365.792 376.023 365.78C378.727 365.723 370.788 364.955 374.536 365.68C377.136 366.18 380.107 367.387 382.697 367.586C382.759 367.597 377.907 365.39 379.732 366.496C380.194 366.776 380.794 366.948 381.285 367.175C382.801 367.88 384.355 369.239 385.908 369.748C382.283 368.555 382.786 367.226 384.365 368.836C384.819 369.304 385.311 369.826 385.806 370.237C387.961 372.063 383.248 366.294 384.637 368.709C384.959 369.254 385.389 369.766 385.742 370.294C386.573 371.563 387.237 372.913 387.983 374.215C390.421 378.469 386.423 370.418 388.414 375.045C395.051 390.503 402.281 404.827 415.116 416.151C436.012 434.595 463.814 443.676 491.107 446.879C507.075 448.759 523.521 449.782 539.572 448.183C571.315 445.021 602.717 433.091 628.146 413.736C653.574 394.382 681.011 366.886 680.964 333.311C680.938 310.621 663.511 294.044 642.306 289.299C633.226 287.267 623.662 286.892 614.418 286.256C606.224 285.691 598.004 285.385 589.783 285.339C555.874 285.14 521.866 289.408 488.931 297.407C481.216 299.284 473.575 301.404 465.987 303.722C475.674 310.596 485.36 317.471 495.051 324.336C494.993 323.252 495.008 322.139 494.928 321.054C494.635 317.07 495.136 321.323 494.666 322.014C495.517 320.733 495.396 317.214 495.762 315.653C496.128 314.092 496.491 310.513 497.575 309.413C495.811 311.217 496.172 312.881 497.213 310.456C497.869 308.924 498.52 307.402 499.212 305.889C503.256 297.179 508.277 288.976 512.701 280.467C522.534 261.537 530.17 241.156 535.3 220.461C540.431 199.766 543.827 177.945 542.958 156.879C542.501 145.943 540.013 134.267 533.826 125.052C526.117 113.566 514.896 106.554 501.954 102.286C463.515 89.6086 421.062 110.135 394.788 137.807C379.415 153.994 367.592 173.451 357.095 193.035C347.34 211.224 337.318 229.679 331.461 249.569C324.576 272.966 327.387 296.662 338.497 318.192C347.859 336.322 363.137 351.337 378.347 364.627C393.225 377.627 416.518 367.353 416.302 347.382C415.816 302.303 377.481 269.394 336.582 258.828C315.271 253.325 292.555 252.93 270.688 254.154C248.872 255.37 226.533 258.484 205.95 266.088C185.368 273.692 164.999 285.771 151.657 303.718C144.1 313.879 138.149 324.917 135.653 337.487C133.357 349.02 133.873 360.316 136.133 371.78C145.106 417.387 187.447 445.959 227.174 463.411C274.508 484.196 325.296 493.759 376.39 499.576L380.393 455.129C299.207 449.264 215.393 472.741 148.443 518.918C139.11 525.348 130.193 532.316 121.453 539.526C112.713 546.736 103.386 554.325 97.8989 564.704C82.4061 593.977 109.967 620.588 132.666 635.087C172.866 660.765 224.521 659.224 268.37 644.91C293.332 636.759 317.128 624.861 340.096 612.239C364.122 599.036 387.324 584.398 409.651 568.49C399.088 558.578 388.53 548.68 377.968 538.768C355.707 597.776 332.07 662.248 351.512 725.498C360.379 754.353 377.386 781.002 402.067 798.718C414.19 807.421 428.905 815.147 443.92 816.859C456.891 818.345 468.398 815.666 478.196 806.594C484.622 800.646 488.699 792.11 492.872 784.521C509.631 753.974 524.546 722.423 537.487 690.07C547.715 664.498 555.324 639.334 557.445 611.839C560.928 566.731 542.303 524.303 514.452 489.677C491.689 461.37 464.892 437.668 435.318 416.737C433.705 415.596 432.087 414.463 430.451 413.344C427.231 427.466 424.008 441.575 420.788 455.697C415.757 455.275 422.229 455.841 422.827 455.91C424.424 456.08 426.03 456.255 427.627 456.447C431.057 456.856 434.477 457.305 437.9 457.811C444.389 458.772 450.847 459.919 457.263 461.271C468.833 463.71 480.266 466.79 491.461 470.594C493.195 471.188 500.823 474.181 494.11 471.47C496.302 472.353 498.523 473.161 500.71 474.053C505.262 475.908 509.762 477.882 514.2 479.994C522.046 483.726 529.712 487.861 537.117 492.423C540.051 494.233 542.952 496.105 545.802 498.051C546.773 498.715 552.113 502.496 548.053 499.589C543.993 496.681 549.317 500.555 550.291 501.3C554.601 504.59 558.782 508.037 562.815 511.655C568.914 517.119 574.699 522.938 580.205 529.004C581.863 530.827 583.494 532.68 585.102 534.554C586.066 535.679 587.017 536.83 587.977 537.964C589.532 539.811 589.6 538.363 587.122 536.909C588.881 537.947 590.482 541.177 591.742 542.832C593.733 545.455 595.679 548.121 597.589 550.813C627.873 593.576 648.453 642.785 670.07 690.237C672.795 696.228 675.52 702.22 678.245 708.212C679.665 711.334 681.076 714.452 682.487 717.57C682.953 718.611 684.242 721.426 682.076 716.661C682.954 718.589 683.817 720.521 684.681 722.453C689.255 732.656 693.77 742.885 698.149 753.177C707.224 774.53 715.715 796.151 722.852 818.229C726.823 830.524 730.383 842.952 733.331 855.53C734.761 861.637 736.064 867.767 737.201 873.934C737.269 874.275 738.16 879.371 737.537 875.709C736.913 872.048 737.96 878.426 738.048 879.028C738.516 882.109 738.939 885.188 739.322 888.28C740.832 900.603 741.628 913.01 741.547 925.427C741.506 931.657 741.18 937.85 740.75 944.066C740.371 949.483 741.346 939.071 740.699 944.481C740.483 946.291 740.294 948.116 740.07 949.922C739.64 953.307 739.116 956.676 738.553 960.035C736.605 971.617 743.2 984.707 755.612 986.904C767.089 988.943 780.387 982.278 782.481 969.845L782.491 969.997Z" fill="#010101"/>
</g>
<defs>
<clipPath id="clip0_245_334">
<rect width="664.09" height="872.02" fill="white" transform="translate(0 586.295) rotate(-61.9887)"/>
</clipPath>
</defs>
</svg>
