<svg width="686" height="936" viewBox="0 0 686 936" fill="none" xmlns="http://www.w3.org/2000/svg">
<g clip-path="url(#clip0_245_307)">
<path d="M58.3476 578.442C53.4277 627.289 48.5056 676.145 43.5857 724.991C42.6451 734.302 52.0475 744.453 60.7814 746.16C70.4285 748.046 80.9398 744.205 85.7634 735.219C87.8675 731.294 90.108 727.444 92.5288 723.699C93.6539 721.945 94.8229 720.222 96.0089 718.513C96.6068 717.66 97.2218 716.821 97.8173 715.978C99.4455 713.677 94.9931 719.604 97.6135 716.309C103.114 709.37 108.914 702.719 115.137 696.408C127.76 683.602 141.596 672.078 155.539 660.745C169.608 649.319 183.846 638.088 197.282 625.921C212.101 612.506 225.547 597.749 237.898 582.037C265.074 547.447 288.204 509.818 312.149 472.984C336.094 436.149 361.404 397.207 386.025 359.322C410.647 321.438 435.28 283.546 459.902 245.661C472.179 226.772 484.59 207.967 496.735 188.985C503.743 178.038 509.354 165.888 509.357 152.636C509.361 141.544 505.054 130.622 498.31 121.938C484.98 104.773 465.463 92.4153 447.23 80.9969C428.997 69.5786 410.84 60.2674 391.509 52.2766C370.869 43.7421 349.719 36.5453 327.944 31.5017C308.713 27.0441 287.22 24.1063 268.413 31.8625C247.443 40.5144 234.642 58.3397 226.39 78.8322C217.852 100.037 209.969 121.556 202.035 142.99C196.808 157.116 198.26 171.369 208.301 182.962C215.207 190.934 226.07 195.318 235.221 200.14C255.001 210.565 274.77 220.998 294.55 231.423C304.439 236.64 314.33 241.848 324.209 247.063C334.6 252.546 349.317 249.354 354.812 238.318C360.308 227.283 357.196 213.594 346.068 207.716C327.164 197.75 308.26 187.785 289.358 177.809C280.054 172.898 270.747 167.997 261.442 163.086C257.082 160.783 252.719 158.491 248.359 156.188C246.38 155.142 244.362 154.128 242.418 153.019C242.572 153.108 240.084 151.527 240.002 151.569C239.944 151.596 244.234 154.529 240.905 152.045C239.03 150.654 242.601 154.514 242.949 155.37C243.228 156.045 243.817 161.467 243.818 158.833C243.826 155.83 242.612 163.17 243.658 160.296C244.006 159.331 244.17 158.27 244.483 157.276C246.047 152.314 248.096 147.471 249.934 142.607C253.619 132.84 257.302 123.083 260.988 113.317C262.647 108.935 264.326 104.557 265.959 100.158C267.056 97.2031 264.264 104.346 265.47 101.408C265.871 100.435 266.25 99.4669 266.65 98.4939C267.559 96.3167 268.497 94.1466 269.518 92.0171C271.305 88.2523 273.354 84.6846 275.558 81.1546C277.762 77.6245 272.577 84.6198 276.202 80.3642C276.736 79.7322 280.137 75.34 280.948 75.5161C280.754 75.469 277.149 78.1552 280.035 76.3133C280.899 75.7615 281.729 75.1808 282.616 74.6651C283.239 74.3018 284.874 73.7105 285.254 73.247C284.807 73.7765 280.444 74.9206 284.092 73.881C285.982 73.3413 287.843 72.7533 289.759 72.2813C290.371 72.1315 292.945 71.5724 289.8 72.2398C286.276 72.9802 290.537 72.254 291.354 72.1948C292.915 72.0795 302.714 71.0909 303.458 72.3929C303.473 72.4171 297.597 71.5686 302.031 72.2939C303.041 72.4565 304.059 72.59 305.069 72.7526C307.337 73.1174 309.598 73.5525 311.852 74.0168C321.218 75.9587 330.491 78.4131 339.654 81.1496C344.078 82.4692 348.47 83.874 352.842 85.3662C355.171 86.1574 357.493 86.9777 359.81 87.8175C360.963 88.2411 362.125 88.667 363.278 89.0905C363.881 89.3191 368.743 91.2081 365.637 89.9712C362.745 88.8275 366.423 90.2955 367.116 90.5768C368.259 91.0393 369.39 91.5091 370.531 91.9812C372.803 92.9232 375.068 93.8943 377.318 94.8825C382.107 96.9902 386.852 99.1905 391.549 101.503C400.387 105.837 409.054 110.532 417.521 115.549C425.987 120.565 434.257 125.925 442.306 131.602C443.456 132.416 449.156 136.535 445.084 133.551C446.962 134.933 448.812 136.339 450.644 137.781C453.739 140.209 456.767 142.744 459.549 145.528C460.236 146.219 460.886 146.973 461.585 147.657C464.11 150.101 460.243 146.828 460.803 146.511C461.052 146.376 463.673 150.798 463.963 151.259C465.722 154.063 462.704 150.553 463.431 149.803C463.402 149.837 464.4 152.641 464.333 152.45C464.578 153.137 464.878 155.504 464.446 152.323C463.867 148.046 464.694 153.803 464.376 154.055C464.769 153.749 465.297 149.916 464.404 153.301C464.343 153.553 463.907 156.37 463.495 156.712C465.055 155.414 464.996 153.619 463.709 156.085C463.151 157.154 462.657 158.259 462.077 159.332C459.586 164.007 456.573 168.411 453.686 172.845C442.098 190.677 430.509 208.508 418.923 226.329C395.566 262.267 372.209 298.205 348.842 334.14C325.476 370.076 302.128 406.016 278.761 441.951C267.142 459.827 255.539 477.716 243.902 495.577C238.576 503.752 233.21 511.917 227.732 519.994C225.169 523.776 222.566 527.549 219.942 531.286C218.542 533.282 217.125 535.264 215.708 537.246C214.995 538.236 214.281 539.226 213.57 540.206C212.23 542.042 211.491 543.221 213.254 540.664C192.35 571.023 164.641 595.883 136.206 618.941C108.577 641.351 81.1052 663.409 59.8493 692.252C54.8812 698.991 50.3637 705.993 46.4116 713.38L88.5795 723.605C93.4994 674.759 98.4216 625.903 103.341 577.057C103.86 571.863 100.013 564.982 96.4623 561.549C92.4426 557.672 85.8157 554.831 80.1456 555.256C74.4756 555.682 68.5357 557.73 64.6377 562.135C60.3427 566.99 58.9888 572.064 58.3452 578.452L58.3476 578.442Z" fill="#010101"/>
<path d="M180.053 188.913C161.818 264.875 140.376 340.059 115.72 414.197C108.952 434.555 101.935 454.833 94.693 475.025C90.7115 486.14 100.196 500.026 111.257 502.194C124.282 504.745 134.159 497.54 138.426 485.63C164.386 413.198 187.354 339.7 207.135 265.338C212.954 243.463 218.501 221.522 223.776 199.515C226.521 188.07 219.169 174.68 207.212 172.347C195.255 170.013 182.986 176.648 180.043 188.91L180.053 188.913Z" fill="#010101"/>
<path d="M91.7429 592.467C92.9548 592.35 94.1596 592.261 95.3844 592.26C96.1145 592.262 99.6243 592.3 96.0147 592.207C92.405 592.113 96.3907 592.565 97.3036 592.704C101.293 593.353 94.1773 591 96.4782 592.247C97.3328 592.712 98.2304 593.084 99.0803 593.567C102.436 595.472 99.4213 594.453 98.6127 592.95C98.9445 593.576 100.234 594.413 100.8 594.88C104.462 597.939 98.1669 590.969 100.952 594.845C107.828 604.384 121.25 609.46 131.876 602.343C141.372 595.982 146.718 581.617 139.375 571.42C128.129 555.799 110.055 545.551 90.3499 547.461C78.6626 548.599 67.5988 557.986 68.5592 570.66C69.4217 582.167 79.2071 593.667 91.7573 592.45L91.7429 592.467Z" fill="#010101"/>
<path d="M127.064 783.903C179.323 794.394 234.744 790.66 284.645 771.541C312.687 760.797 343.189 738.507 335.67 704.292C329.195 674.815 295.2 665.594 269.324 672.542C244.99 679.071 225.182 700.713 216.13 723.573C206.203 748.64 205.557 775.998 214.971 801.423C223.726 825.062 238.874 847.422 259.022 862.823C281.184 879.763 310.805 890.98 338.255 879.958C345.632 876.993 352.226 873.221 358.496 868.372C362.155 865.545 365.729 862.604 369.271 859.625C370.522 858.58 371.756 857.521 373.008 856.477C373.835 855.782 374.671 855.09 375.515 854.41C373.338 856.135 372.899 856.502 374.194 855.489C376.996 853.482 379.737 851.472 382.761 849.777C383.191 849.531 385.52 848.501 385.581 848.289C382.723 849.51 382.421 849.653 384.68 848.74C385.655 848.369 386.642 848.032 387.641 847.729C388.062 847.605 392.858 845.99 389.26 847.165C385.093 848.521 392.475 846.298 392.403 847.145L389.388 846.764C390.383 846.902 391.374 847.101 392.342 847.356C396.639 848.049 388.286 845.2 392.442 847.494C396.925 849.97 389.169 843.974 392.795 847.61C393.896 848.711 395.013 849.836 396.143 850.902C399.986 854.53 393.513 846.982 396.573 851.336C397.644 852.861 398.751 854.364 399.797 855.904C404.334 862.571 408.762 869.304 413.238 876.008C422.418 889.748 431.601 903.479 440.782 917.22C446.371 925.572 456.594 930.006 466.454 927.067C478.023 923.616 487.602 915.896 493.487 905.377C499.372 894.857 495.596 880.174 484.743 874.774C473.799 869.322 460.293 872.529 454.14 883.518C452.363 886.689 455.175 882.771 455.109 882.621C455.262 883.008 450.955 886.512 454.08 883.977C456.579 881.949 453.731 883.934 453.195 884.318C451.122 885.822 457.99 882.62 453.532 883.947L479.204 893.795C464.837 872.293 451.081 850.178 435.938 829.199C427.326 817.274 416.504 806.315 401.479 803.268C386.748 800.282 372.247 804.113 359.331 811.332C353.475 814.605 348.281 818.922 343.099 823.15C340.996 824.863 338.933 826.626 336.854 828.365C336.027 829.06 335.191 829.752 334.351 830.454C330.513 833.681 337.506 828.225 333.78 830.902C331.598 832.472 329.473 834.066 327.176 835.475C326.271 836.027 325.301 836.502 324.411 837.078C320.045 839.888 328.816 835.841 323.836 837.412C321.662 838.099 319.496 838.716 317.296 839.304C314.238 840.116 322.815 838.904 317.908 839.113C316.421 839.174 314.965 839.284 313.466 839.27C312.306 839.257 308.803 838.171 312.025 839.312C315.551 840.558 311.374 839.154 310.597 839.007C308.117 838.539 305.678 837.907 303.281 837.14C302.335 836.839 301.349 836.363 300.387 836.13C305.703 837.419 302.715 837.013 301.021 836.232C298.422 835.026 295.888 833.681 293.425 832.209C291.331 830.96 288.594 829.556 286.846 827.856C290.485 831.393 288.758 829.307 287.762 828.448C286.571 827.419 285.325 826.448 284.148 825.401C280.277 821.972 276.695 818.243 273.337 814.311C273.056 813.985 270.088 809.973 272.2 812.975C274.312 815.977 271.402 811.855 271.179 811.544C269.655 809.467 268.192 807.352 266.795 805.182C265.539 803.231 264.341 801.253 263.204 799.238C261.966 797.045 260.991 793.598 259.316 791.72C262.001 794.738 260.414 794.281 259.493 792.051C259.007 790.874 258.535 789.679 258.095 788.481C257.215 786.086 256.412 783.669 255.71 781.215C255.081 779.014 254.53 776.792 254.055 774.547C253.686 772.801 253.957 769.862 254.037 775.046C254.012 773.579 253.612 771.96 253.474 770.496C253.225 767.955 253.074 765.398 253.053 762.851C253.048 761.811 253.735 755.711 253.336 755.449C253.584 755.612 252.467 761.238 253.211 757.024C253.425 755.8 253.589 754.574 253.823 753.355C254.33 750.669 254.983 748.018 255.75 745.405C256.101 744.215 256.546 743.057 256.897 741.866C257.842 738.689 254.519 747.258 256.575 742.642C257.575 740.384 258.612 738.145 259.788 735.971C260.846 734.026 261.984 732.131 263.206 730.276C264.276 728.663 266.403 727.234 262.724 730.777C263.731 729.807 264.59 728.43 265.514 727.379C267.121 725.546 268.823 723.787 270.621 722.145C270.503 722.25 272.686 720.166 272.817 720.218L270.608 721.987C271.389 721.395 272.176 720.824 272.98 720.268C274.797 719.011 276.701 717.908 278.624 716.81C281.283 715.305 280.911 717.139 277.407 717.246C278.309 717.218 280.106 716.254 280.992 715.996C281.97 715.698 283.148 715.592 284.089 715.193C286.725 714.083 278.359 715.697 282.758 715.374C284.896 715.214 286.999 715.158 289.135 715.089C291.107 715.022 291.799 716.239 286.892 714.751C287.84 715.043 288.958 715.056 289.937 715.263C290.916 715.469 291.888 715.788 292.872 716.016C296.883 716.958 288.204 713.454 291.642 715.573C292.392 716.044 293.323 716.66 294.133 717.011C296.576 718.056 289.851 713.03 292.569 715.994C294.92 718.56 291.28 714.179 291.223 714.031C291.389 714.535 292.648 716.641 293.044 716.963C292.966 716.903 290.576 711.611 292.016 715.047C293.79 719.274 292.158 711.706 291.936 714.276L291.972 714.974C291.895 717.456 291.988 716.82 292.257 713.078C292.133 713.758 291.973 714.419 291.774 715.07C291.269 716.769 291.606 715.976 292.783 712.691C292.283 712.93 291.479 715.225 291.132 715.81C289.369 718.706 289.166 716.404 291.632 715.273C290.208 715.926 287.902 719.071 286.838 720.192C284.604 722.531 291.284 717.092 287.034 720.064C286.155 720.674 285.303 721.301 284.408 721.897C281.723 723.674 278.927 725.147 276.098 726.673C272.479 728.615 276.745 726.552 277.109 726.28C275.734 727.326 273.332 727.813 271.711 728.429C268.774 729.548 265.818 730.622 262.844 731.64C256.897 733.675 250.871 735.486 244.794 737.079C238.718 738.672 232.015 740.175 225.554 741.355C224.154 741.613 222.75 741.889 221.332 742.091C227.06 741.257 221.182 742.075 220.309 742.193C216.912 742.666 213.51 743.075 210.102 743.422C197.594 744.68 184.991 745.05 172.434 744.516C169.01 744.375 165.584 744.162 162.165 743.878C161.691 743.835 158.841 743.453 158.75 743.574C161.908 743.918 162.209 743.95 159.633 743.665L157.932 743.469C151.125 742.641 144.36 741.515 137.639 740.163C126.109 737.851 112.87 744.457 110.471 756.727C108.207 768.31 114.671 781.413 127.034 783.896L127.064 783.903Z" fill="#010101"/>
</g>
<defs>
<clipPath id="clip0_245_307">
<rect width="501.16" height="840.7" fill="white" transform="translate(198.122) rotate(13.6307)"/>
</clipPath>
</defs>
</svg>
