<svg width="725" height="903" viewBox="0 0 725 903" fill="none" xmlns="http://www.w3.org/2000/svg">
<g clip-path="url(#clip0_245_326)">
<path d="M272.79 301.146C235.735 298.382 193.899 295.303 161.322 316.792C145.375 327.313 132.176 341.844 123.426 358.88C114.676 375.916 108.748 393.981 110.187 412.763C110.97 423.032 113.112 433.135 118.316 442.174C124.581 453.06 133.278 461.598 143.091 469.267C158.981 481.692 178.206 490.166 196.191 499.063C234.384 517.962 273.5 535.262 313.871 548.973C354.243 562.684 396.051 572.662 438.499 577.281C458.477 579.457 478.619 580.291 498.707 579.538C519.939 578.741 542.313 577.261 562.964 571.941C585.937 566.02 603.183 548.993 609.133 525.91C614.416 505.396 612.025 484.749 604.298 465.249C591.932 434.036 563.322 411.494 535.827 394.049C499.68 371.103 460.548 351.317 420.331 336.629C384.497 323.546 346.731 313.529 309.288 306.26C297.223 303.913 285.056 302.1 272.803 301.139C260.55 300.179 249.466 311.187 249.621 322.947C249.789 335.611 258.837 345.148 271.429 346.129C276.416 346.519 281.393 347.01 286.348 347.673C288.68 347.985 291.073 348.233 293.374 348.714C288.273 347.64 291.463 348.395 292.59 348.608C294.299 348.937 296.004 349.244 297.711 349.583C306.768 351.398 315.734 353.614 324.702 355.788C341.731 359.92 358.725 364.199 375.514 369.209C393.704 374.631 411.628 380.914 429.124 388.277C433.635 390.174 438.108 392.163 442.561 394.178C445.692 395.595 439.092 392.499 442.2 394.024C443.336 394.585 444.492 395.109 445.64 395.663C448.255 396.921 450.852 398.205 453.443 399.508C462.408 404.027 471.262 408.772 480.076 413.579C495.04 421.751 509.854 430.307 523.823 440.108C526.885 442.258 529.907 444.468 532.874 446.756C534.309 447.87 535.713 449.015 537.136 450.135C540.095 452.484 536.003 449.23 535.753 448.954C536.596 449.885 537.794 450.716 538.73 451.549C543.879 456.155 548.761 461.086 553.149 466.43C554.299 467.821 555.372 469.262 556.479 470.693C558.729 473.607 553.445 466.081 556.539 470.837C558.333 473.6 559.984 476.454 561.459 479.402C562.145 480.775 562.802 482.171 563.412 483.584C563.718 484.286 563.984 485.017 564.293 485.709C565.417 488.202 562.699 480.946 563.493 483.557C564.502 486.863 565.564 490.1 566.249 493.504C566.423 494.364 566.591 498.665 567.159 499.061C566.324 498.478 566.829 494.27 566.982 497.499C567.025 498.444 567.088 499.394 567.108 500.343C567.16 502.243 567.138 504.141 567.032 506.044C566.98 506.991 566.909 507.932 566.816 508.877C566.755 509.58 566.673 510.288 566.571 510.989C566.341 512.749 566.491 511.927 567.032 508.515C566.256 509.908 566.219 512.366 565.77 513.955C565.265 515.724 564.642 517.437 564.006 519.156C563.092 521.636 562.72 519.355 564.878 517.384C564.44 517.783 563.848 519.327 563.604 519.743C563.156 520.515 562.692 521.272 562.202 522.01C561.651 522.845 559.049 525.474 561.698 522.964C564.629 520.186 560.014 524.485 559.46 525.025C555.8 528.604 563.221 523.016 558.724 525.645C557.881 526.138 557.031 526.587 556.148 527.005C555.409 527.363 552.047 528.386 554.918 527.599C557.788 526.811 554.277 527.673 553.557 527.869C552.186 528.241 550.799 528.566 549.41 528.859C539.921 530.877 530.247 532.106 520.615 533.2C519.52 533.323 516.407 533.878 521.325 533.137C520.215 533.307 519.04 533.352 517.925 533.437C515.658 533.626 513.397 533.796 511.129 533.954C506.319 534.278 501.51 534.498 496.693 534.642C487.358 534.908 478.013 534.835 468.683 534.443C459.352 534.051 449.452 533.304 439.882 532.263C435.367 531.767 430.86 531.212 426.365 530.587C424.115 530.279 421.862 529.949 419.615 529.6C418.485 529.429 417.371 529.241 416.241 529.07C410.439 528.167 421.237 529.975 415.454 528.942C396.845 525.588 378.422 521.392 360.219 516.248C322.83 505.688 286.488 491.674 251.105 475.705C248.984 474.746 246.875 473.78 244.766 472.815C243.731 472.338 240.682 471.061 245.498 473.156C244.438 472.692 243.395 472.171 242.344 471.679C237.617 469.464 232.911 467.215 228.227 464.93C219.655 460.763 211.144 456.501 202.663 452.142C194.182 447.784 186.143 443.719 178.261 438.845C174.483 436.505 170.897 433.952 167.328 431.311C163.759 428.669 168.034 431.634 167.987 431.923C168.006 431.793 165.892 430.03 165.562 429.708C163.591 427.822 161.713 425.839 159.975 423.742C159.715 423.432 157.907 421.188 157.947 421.159C158.146 420.99 160.413 425.27 158.719 422.151C157.957 420.754 157.14 419.402 156.469 417.949C156.163 417.279 155.922 416.367 155.532 415.765C155.748 416.115 157.143 421.119 156.386 417.777C155.987 416.021 155.471 414.302 155.154 412.519C155.013 411.722 154.938 410.913 154.797 410.116C154.294 407.376 154.966 415.056 155.047 412.255C155.089 410.594 154.932 408.934 154.978 407.262C155.023 405.591 155.147 403.871 155.321 402.188C155.407 401.335 155.565 400.484 155.641 399.628C155.902 396.82 154.482 405.005 155.433 401.081C156.277 397.605 157.096 394.175 158.258 390.787C158.841 389.072 159.48 387.375 160.158 385.69C160.404 385.096 161.114 383.882 161.219 383.171C159.711 386.358 159.352 387.147 160.123 385.533C160.419 384.913 160.725 384.295 161.031 383.678C162.679 380.409 164.51 377.228 166.495 374.157C167.48 372.63 168.51 371.127 169.572 369.655C170.1 368.928 170.64 368.195 171.185 367.484C171.729 366.773 174.393 363.776 171.832 366.575C169.114 369.545 173.383 364.909 173.909 364.359C175.102 363.106 176.325 361.893 177.589 360.713C178.953 359.45 180.356 358.229 181.807 357.056C182.087 356.828 184.668 354.842 184.675 354.854C184.754 354.973 180.002 357.953 184.105 355.379C187.274 353.386 190.598 351.64 194.025 350.134C194.874 349.758 195.743 349.42 196.598 349.056C199.283 347.887 192.341 350.472 195.137 349.62C197.148 349.006 199.138 348.323 201.169 347.779C204.823 346.794 208.535 346.025 212.28 345.424C212.841 345.336 217.973 344.818 217.994 344.647C217.956 344.938 213.085 345.055 216.536 344.793C218.004 344.681 219.463 344.567 220.935 344.477C229.218 343.991 237.536 344.102 245.822 344.454C254.107 344.806 262.877 345.454 271.399 346.089C283.144 346.965 294.737 336.072 294.581 324.281C294.414 311.648 285.367 302.039 272.774 301.099L272.79 301.146Z" fill="#010101"/>
<path d="M110.828 419.053C113.186 503.483 115.597 587.908 117.123 672.353C117.495 692.69 117.966 713.046 117.706 733.397C117.654 737.526 117.341 741.521 116.982 745.628C116.399 752.325 117.897 759.465 120.845 765.473C125.456 774.905 134.163 779.784 143.546 783.395C155.913 788.148 168.395 792.602 180.82 797.206C230.949 815.784 280.855 835.121 331.256 852.957C346.35 858.302 361.805 858.588 375.068 848.724C383.452 842.491 387.84 833.171 390.734 823.432C391.017 822.483 391.386 821.592 391.724 820.671C393.058 817.064 388.388 827.469 390.09 824.196C390.467 823.485 390.817 822.756 391.194 822.046C396.217 812.566 402.403 803.655 408.469 794.833C419.71 778.473 431.459 762.468 443.299 746.544C487.67 686.853 533.659 628.364 579.746 569.999C587.725 559.895 595.714 549.793 603.718 539.707C611.046 530.458 606.659 514.271 596.881 508.622C585.424 502.005 573.648 505.566 565.797 515.459C516.52 577.611 467.388 639.902 419.647 703.25C398.18 731.732 375.898 760.213 357.349 790.737C352.685 798.412 347.826 806.854 346.029 815.75C347.004 810.902 348.1 811.963 346.863 813.695C344.022 817.673 350.834 810.16 347.075 813.687C345.864 814.83 344.116 815.201 348.144 812.939L350.964 811.906C349.125 812.269 349.193 812.321 351.167 812.063C355.506 812.179 350.016 811.623 349.893 811.816C350.064 811.534 355.669 813.245 351.563 812.101C348.731 811.31 345.961 810.485 343.187 809.471C331.36 805.167 319.578 800.72 307.784 796.343C282.935 787.136 258.088 777.919 233.239 768.712C209.011 759.728 184.79 750.757 160.563 741.774C159.587 741.409 155.949 740.683 155.355 739.829C155.355 739.829 160.183 742.933 156.582 740.261C158.916 741.987 159.745 743.708 161.238 745.991L161.822 747.522C161.359 745.191 161.386 745.984 161.909 749.914C162.244 748.154 162.167 746.1 162.351 744.284C162.514 742.743 162.565 741.189 162.613 739.644C163.145 722.716 162.647 705.732 162.381 688.81C161.176 612.031 158.997 535.255 156.885 458.5C156.536 445.811 156.187 433.122 155.828 420.43C155.5 408.69 146.675 397.077 134.02 397.248C122.418 397.399 110.481 406.459 110.838 419.056L110.828 419.053Z" fill="#010101"/>
<path d="M377.74 444.817C392.783 402.167 407.817 359.514 422.863 316.855C433.648 286.255 446.206 254.591 447.462 221.738C449.55 166.92 425.027 112.221 386.962 73.4335C373.789 60.0057 358.739 48.4886 342.137 39.6532C328.368 32.3211 313.859 24.1322 298.476 20.9065C287.338 18.5741 276.467 18.1874 265.867 23.0232C255.997 27.5298 247.979 37.047 244.92 47.3532C241.61 58.5031 244.812 71.1733 247.941 82.0833C250.552 91.2112 253.948 100.205 257.943 108.818C273.251 141.756 298.795 168.563 326.846 191.016C340.012 201.553 354.036 211.005 368.557 219.564C377.507 224.842 387.031 231.009 397.06 233.846C409.757 237.435 423.132 235.78 434.368 228.817C443.018 223.452 449.847 216.257 457.632 209.829C459.179 208.549 460.765 207.312 462.383 206.106C466.867 202.771 459.186 208.153 463.863 205.109C467.661 202.64 471.584 200.377 475.636 198.343C477.434 197.433 479.247 196.58 481.092 195.758C482.013 195.352 482.931 194.956 483.865 194.574C485.786 193.776 487.114 192.02 483.393 194.68C486.376 192.545 492.104 191.825 495.637 190.959C499.784 189.938 503.972 189.222 508.19 188.579C510.418 188.242 509.785 187.345 506.869 188.652C507.489 188.373 509.319 188.447 509.862 188.416C512.361 188.256 514.867 188.172 517.366 188.181C521.381 188.197 525.39 188.431 529.373 188.887C531.282 189.111 537.035 190.512 530.205 188.904C532.418 189.43 534.675 189.782 536.885 190.319C540.498 191.194 544.07 192.235 547.591 193.439C549.37 194.051 551.139 194.692 552.882 195.388C553.759 195.732 554.634 196.086 555.502 196.459C556.15 196.733 556.808 197.009 557.45 197.302C559.07 198.022 558.319 197.675 555.191 196.248C557.79 198.506 562.117 199.78 565.111 201.606C568.679 203.776 572.069 206.184 575.374 208.734C578.376 211.043 574.338 207.921 574.059 207.605C574.614 208.247 575.439 208.827 576.072 209.42C577.38 210.641 578.654 211.903 579.882 213.214C581.11 214.525 582.252 215.841 583.364 217.221C583.797 217.752 586.121 221.307 584.074 218.006C582.028 214.704 584.157 218.178 584.597 218.889C586.387 221.766 587.383 225.318 589.234 228.067C586.621 224.193 588.076 224.633 588.674 226.932C588.951 228.001 589.262 229.06 589.513 230.143C589.885 231.786 590.744 239.775 590.113 232.233C594.112 225.828 598.109 219.433 602.108 213.028C596.568 216.12 590.896 218.962 585.074 221.476C583.467 222.172 581.85 222.834 580.216 223.481C575.026 225.54 582.905 222.637 579.024 223.918C575.142 225.199 571.195 226.491 567.208 227.572C563.221 228.653 559.268 229.557 555.252 230.325C553.46 230.671 551.667 230.986 549.861 231.276C548.575 231.475 547.292 231.665 546.002 231.842C545.567 231.896 541.454 232.435 544.028 232.132C546.789 231.802 542.75 232.239 542.096 232.288C541.142 232.36 540.179 232.429 539.222 232.478C537.017 232.603 534.814 232.686 532.604 232.725C528.004 232.811 523.399 232.707 518.8 232.416C514.951 232.169 511.122 231.791 507.3 231.29C506.151 231.145 504.999 230.946 503.851 230.8C501.209 230.476 505.445 231.094 505.556 231.107C503.344 230.916 501.081 230.279 498.913 229.808C491.559 228.237 484.306 226.205 477.199 223.768C473.875 222.636 470.58 221.408 467.322 220.098C465.758 219.468 464.2 218.819 462.645 218.161C461.528 217.679 456.116 215.243 459.637 216.854C463.158 218.466 458.469 216.263 457.516 215.791C456.164 215.122 454.817 214.433 453.483 213.738C450.968 212.427 448.47 211.059 446.007 209.649C437.982 205.065 430.253 199.966 422.881 194.391C413.479 187.288 397.549 191.283 391.796 201.228C385.294 212.48 388.572 224.702 398.634 232.312C447.278 269.073 511.517 286.737 571.577 272.84C589.512 268.691 607.057 261.772 623.123 252.796C629.551 249.203 635.773 241.465 635.118 233.591C633.462 213.821 626.073 196.172 612.143 181.809C599.251 168.521 583.308 159.114 566.174 152.375C531.523 138.747 493.103 141.108 459.396 156.262C442.718 163.762 429.277 175.183 415.607 187.004C414.177 188.247 412.328 189.319 411.036 190.688C411.536 190.152 415.393 188.173 412.151 189.756C411.325 190.16 410.481 190.653 409.669 191.082C406.208 192.933 413.892 189.541 409.146 191.046C406.407 191.917 413.884 191.056 410.552 190.832C407.853 190.657 414.446 192.287 410.359 190.846C409.945 190.697 407.409 190.164 406.958 189.659C408.794 191.712 409.588 191.005 407.494 189.887C405.574 188.854 403.644 187.818 401.732 186.756C397.876 184.602 394.048 182.393 390.259 180.123C376.431 171.831 363.075 162.721 350.507 152.62C349.737 151.995 348.967 151.37 348.198 150.745C347.528 150.203 345.122 147.963 347.576 150.249C350.031 152.536 347.631 150.277 346.986 149.722C346.244 149.074 345.493 148.423 344.751 147.775C341.619 145.007 338.542 142.161 335.539 139.245C329.776 133.644 324.278 127.758 319.144 121.577C316.678 118.617 314.299 115.579 312.001 112.482C311.434 111.71 310.879 110.932 310.311 110.16C308.56 107.766 312.771 113.819 311.153 111.331C309.981 109.535 308.762 107.755 307.618 105.936C303.452 99.3005 299.725 92.3923 296.553 85.2156C295.781 83.4803 295.056 81.7282 294.353 79.9724C292.31 74.83 295.686 83.9221 293.894 78.6793C292.579 74.8399 291.43 70.9367 290.448 67.0014C290.209 66.0482 287.709 55.7823 288.129 55.6402C288.955 55.3721 287.553 61.941 287.892 60.643C288.35 58.8901 289.595 57.5374 286.896 62.3762C288.046 60.3139 288.557 61.979 285.278 64.0535C285.915 63.6535 286.594 62.8795 287.113 62.3493C289.947 59.478 282.378 65.2086 286.404 63.0197C288.695 61.7704 281.36 64.7788 283.899 64.0459C284.864 63.7684 287.321 63.6067 283.599 63.9007C279.459 64.2228 284.047 64.0079 285.146 64.0754C285.938 64.1212 286.709 64.2339 287.488 64.2863C291.857 64.6107 282.049 62.8879 286.407 64.1614C289.804 65.1589 293.179 66.0555 296.506 67.3138C298.203 67.9533 299.882 68.6502 301.555 69.3661C302.376 69.7244 303.198 70.1459 304.044 70.4594C302.433 69.8465 299.466 68.2703 302.794 69.8955C315.063 75.8848 327.258 82.1445 338.302 90.2358C340.025 91.501 341.699 92.8242 343.398 94.1342C346.68 96.6556 343.387 93.932 342.865 93.624C343.759 94.1515 344.732 95.2372 345.535 95.9565C348.784 98.855 351.919 101.886 354.936 105.026C357.575 107.768 360.126 110.587 362.603 113.477C366.087 117.547 369.412 121.756 372.563 126.09C372.87 126.52 373.174 126.959 373.493 127.382C375.096 129.51 370.539 123.088 372.053 125.336C372.884 126.576 373.743 127.794 374.561 129.041C376.41 131.831 378.19 134.674 379.885 137.553C383.503 143.663 386.789 149.964 389.705 156.444C390.457 158.11 391.184 159.79 391.888 161.473C392.178 162.159 394.446 168.166 393.188 164.648C391.931 161.13 394.098 167.326 394.332 168.026C395.026 170.115 395.689 172.203 396.293 174.316C398.66 182.437 400.421 190.726 401.536 199.109C401.68 200.169 401.789 201.239 401.923 202.295C402.333 205.405 401.623 198.184 401.81 201.339C401.878 202.439 401.981 203.528 402.062 204.62C402.208 206.622 402.331 208.628 402.401 210.638C402.565 214.813 402.543 218.982 402.281 223.151C402.136 225.45 401.92 227.739 401.654 230.022C401.53 231.103 401.383 232.188 401.229 233.261C401.136 233.902 401.03 234.55 400.936 235.191C400.371 239.255 402.077 229.096 401.248 233.267C398.175 248.666 393.722 263.649 388.631 278.498C374.52 319.657 359.715 360.59 345.244 401.627C341.734 411.595 338.218 421.551 334.708 431.519C330.794 442.628 338.113 456.676 349.562 459.659C361.756 462.841 373.501 456.705 377.702 444.805L377.74 444.817Z" fill="#010101"/>
</g>
<defs>
<clipPath id="clip0_245_326">
<rect width="515.69" height="785.69" fill="white" transform="translate(231.974) rotate(17.1724)"/>
</clipPath>
</defs>
</svg>
