<svg width="848" height="896" viewBox="0 0 848 896" fill="none" xmlns="http://www.w3.org/2000/svg">
<g clip-path="url(#clip0_245_313)">
<path d="M402.14 394.39C406.83 301.52 411.52 208.64 416.21 115.77C417.55 89.2298 418.89 62.6998 420.23 36.1598C405.5 38.1498 390.77 40.1498 376.03 42.1398C407.51 125.09 445.44 205.59 490.07 282.28C503.07 304.62 516.64 326.63 530.71 348.31C537.49 358.75 550.37 362.41 561.49 356.38C631.19 318.64 702.54 283.97 775.32 252.57C780.15 250.49 784.99 248.42 789.83 246.36C790.47 246.09 794.1 244.55 791.39 245.7C788.5 246.93 793.78 244.7 793.79 244.69C796.04 243.74 798.3 242.8 800.55 241.86C810.57 237.68 820.62 233.57 830.69 229.52L805.28 196.47C792.79 218.04 779.57 239.18 765.57 259.81C758.02 270.94 750.25 281.93 742.27 292.75C738.39 298.02 734.45 303.24 730.48 308.43C727.88 311.83 729.93 309.15 730.46 308.47C729.28 309.99 728.1 311.5 726.91 313.02C724.56 316.02 722.19 319.01 719.8 321.98C689.53 359.67 656.61 395.23 621.39 428.34C604.26 444.44 586.59 459.94 568.43 474.87C560.87 481.08 560.18 494.17 564.91 502.14C623.9 601.52 682.89 700.9 741.87 800.28C758.48 828.27 775.09 856.25 791.7 884.24C798.18 872.95 804.65 861.67 811.13 850.38C807.59 850.42 804.09 850.25 800.56 849.98C796.1 849.65 803.99 850.68 799.59 849.86C797.58 849.48 795.57 849.12 793.57 848.66C786.37 847.02 779.4 844.64 772.54 841.95C768.47 840.36 775.32 843.25 771.34 841.43C769.71 840.68 768.07 839.95 766.45 839.18C762.66 837.39 758.92 835.5 755.21 833.55C748.53 830.05 741.94 826.35 735.36 822.66C708.2 807.41 681.31 791.68 654.72 775.46C601 742.7 548.48 707.99 497.29 671.4C471.95 653.29 446.98 634.67 422.27 615.71C420.24 614.16 422.9 616.2 423.13 616.37C422.39 615.8 421.65 615.23 420.91 614.65C418.16 612.52 415.44 610.36 412.67 608.27C408.79 605.34 404.68 603.04 399.98 601.57C387.61 597.72 375.7 602.37 366.57 610.85C355.94 620.72 345.8 631.14 335.16 641.02C313.57 661.08 291.29 680.39 268.38 698.92C262.71 703.51 257 708.05 251.25 712.54C249.87 713.62 248.51 714.73 247.1 715.76C247.26 715.64 250.21 713.37 248.19 714.92C247.49 715.45 246.8 715.99 246.11 716.52C243.1 718.83 240.08 721.12 237.05 723.4C225.39 732.17 213.59 740.74 201.64 749.11C153.37 782.93 102.8 813.46 50.3699 840.38C43.8799 843.71 37.3599 846.98 30.8199 850.21L61.5999 880.99C106.15 782.66 155.88 686.68 210.6 593.61C225.53 568.22 240.83 543.04 256.49 518.09C260.43 511.82 260.96 501.59 256.49 495.38C187.46 399.48 128.01 296.75 79.4199 189.04C75.9799 181.42 72.5999 173.77 69.2699 166.11C67.8699 162.88 66.4799 159.65 65.0899 156.41C64.3999 154.81 63.6999 153.21 63.0399 151.59C65.3099 157.12 62.3699 149.99 61.9499 148.98C55.9099 134.53 50.0699 119.99 44.4099 105.39C33.3899 113.86 22.3799 122.33 11.3599 130.8C58.4099 164.16 104.78 198.46 150.43 233.7C147.05 231.09 149.75 233.17 150.43 233.7C151.95 234.88 153.46 236.05 154.98 237.23C158.02 239.59 161.06 241.95 164.09 244.32C170.19 249.08 176.27 253.86 182.34 258.65C194.1 267.93 205.8 277.28 217.46 286.69C241.07 305.75 264.48 325.06 287.67 344.62C313.28 366.21 338.62 388.12 363.71 410.31C372.52 418.1 386.97 419.64 395.53 410.31C403.36 401.78 404.95 386.82 395.53 378.49C304.62 298.08 210.25 221.61 112.86 149.17C86.8199 129.8 60.5399 110.73 34.0599 91.9598C26.7899 86.8098 15.6099 88.6598 9.06988 93.7198C2.52988 98.7798 -2.21012 109.06 1.00988 117.37C45.0499 231.04 100.15 340.3 166.23 442.77C182.71 468.32 199.86 493.44 217.62 518.11V495.4C159.96 587.33 107.16 682.3 59.6099 779.84C46.9499 805.82 34.6599 831.97 22.7399 858.29C18.7099 867.18 18.4299 878.37 26.2599 885.56C34.0899 892.75 44.1899 893.68 53.5299 889.08C159.42 836.89 258.04 770.13 346.25 691.69C357.15 682 367.89 672.12 378.45 662.06C383.52 657.23 388.55 652.36 393.55 647.45C394.8 646.22 396.03 644.98 397.29 643.76C398.47 642.62 402.17 640.33 397.43 643.36L390.35 645.15C388.34 645.15 386.47 644.65 384.75 643.63C385.26 643.35 392.05 648.76 386.88 644.78C412.61 664.55 438.4 684.2 464.72 703.2C515.23 739.66 567.06 774.29 620.07 807.01C649.75 825.33 679.81 843.06 710.21 860.16C740.61 877.26 774.28 895.83 811.14 895.38C828.04 895.18 839.38 876.37 830.57 861.52C771.58 762.14 712.59 662.76 653.61 563.38C637 535.39 620.39 507.41 603.78 479.42L600.26 506.69C676 444.42 742.71 371.67 798.57 291.09C814.74 267.76 829.93 243.76 844.15 219.19C848.71 211.31 847.89 201.32 842.39 194.2C837.39 187.73 826.98 182.82 818.74 186.14C743.69 216.37 669.91 249.73 597.83 286.49C578.02 296.59 558.34 306.95 538.78 317.54C549.04 320.23 559.3 322.92 569.56 325.61C520.91 250.68 478.63 171.67 443.33 89.5998C442.18 86.9298 440.94 84.2698 439.9 81.5598C440.16 82.2398 441.74 85.9598 440.14 82.1298C439.47 80.5298 438.8 78.9398 438.14 77.3398C435.94 72.0598 433.78 66.7698 431.64 61.4598C427.46 51.0798 423.39 40.6598 419.42 30.1998C415.45 19.7398 406.5 12.4998 394.73 14.0798C382.96 15.6598 375.79 24.8698 375.22 36.1798C370.53 129.05 365.84 221.93 361.15 314.8C359.81 341.34 358.47 367.87 357.13 394.41C356.54 406.18 367.9 417.44 379.63 416.91C392.33 416.34 401.49 407.02 402.13 394.41L402.14 394.39Z" fill="#010101"/>
</g>
<defs>
<clipPath id="clip0_245_313">
<rect width="847.11" height="895.38" fill="white"/>
</clipPath>
</defs>
</svg>
