<svg width="810" height="938" viewBox="0 0 810 938" fill="none" xmlns="http://www.w3.org/2000/svg">
<g clip-path="url(#clip0_245_316)">
<path d="M491.1 599.73C472.66 599.01 453.51 599.12 435.63 604.28C426.7 606.85 417.86 610.72 410.37 616.26C400.77 623.36 394.01 631.97 387.47 641.92C386.33 643.66 385.12 645.35 383.95 647.07C382.18 649.67 387.73 643.33 384.08 646.74C383.35 647.42 382.61 648.23 381.92 648.95C379.51 651.47 382.91 648.4 382.91 648.33C382.89 648.57 380.31 649.98 380.37 649.95C379.72 650.33 378.13 650.88 377.71 651.34C380.57 650.2 381.2 649.92 379.61 650.52C378.9 650.79 378.19 651.03 377.46 651.26C375.51 651.88 373.53 652.36 371.53 652.77C370.52 652.98 369.5 653.14 368.48 653.32C364.43 654.04 369.31 653.06 369.83 653.14C368 652.85 365.48 653.56 363.62 653.7C361.04 653.89 358.45 654.04 355.87 654.18C346.62 654.7 337.35 655.08 328.08 654.91C323.59 654.83 319.1 654.61 314.63 654.21C313.59 654.12 312.54 654 311.5 653.9C308.85 653.64 310.37 654.8 312.83 654.11C311.06 654.61 306.95 653.13 305.19 652.76C301.2 651.92 297.24 650.86 293.38 649.53C292.42 649.2 291.48 648.83 290.52 648.49C286.77 647.17 291.28 648.65 291.69 649.01C289.98 647.51 286.92 646.72 284.92 645.57C283.15 644.55 281.47 643.39 279.74 642.3C276.26 640.09 280.24 642.92 280.57 643.04C279.59 642.68 278.48 641.31 277.69 640.6C276.2 639.27 274.77 637.88 273.4 636.43C272.72 635.71 272.05 634.97 271.4 634.23C270.68 633.41 268.51 629.5 269.88 632.47C271.17 635.27 270.02 632.57 269.45 631.74C268.88 630.91 268.34 630.1 267.8 629.26C266.59 627.37 265.45 625.44 264.38 623.47C263.42 621.71 262.52 619.91 261.66 618.1C261.26 617.26 260.91 616.08 260.41 615.34L261.49 617.92C261.11 616.98 260.73 616.03 260.37 615.08C257.26 606.93 254.96 598.48 253.12 589.96C252.26 585.96 251.5 581.94 250.81 577.91C250.41 575.56 250.03 573.2 249.67 570.84C249.51 569.78 249.35 568.71 249.19 567.65C248.73 564.51 248.73 565.48 249.22 568.02C247.46 558.81 247.06 549.08 246.49 539.73C245.36 521.07 245.54 502.32 247.33 483.71C247.56 481.29 247.82 478.88 248.11 476.47C248.21 475.63 248.56 472.08 248.21 475.45C247.86 478.82 248.24 475.29 248.36 474.44C249.06 469.66 249.87 464.9 250.79 460.16C252.58 451 254.83 441.93 257.55 433C258.79 428.94 260.13 424.91 261.58 420.92C262.39 418.68 263.24 416.45 264.11 414.23C264.5 413.25 264.91 412.27 265.3 411.28C266.34 408.66 263.47 415.41 265.21 411.54C269.02 403.08 273.18 394.81 277.95 386.84C280.28 382.96 282.72 379.15 285.29 375.43C286.5 373.67 287.75 371.93 289.02 370.21C289.64 369.37 290.26 368.43 290.95 367.64C287.21 371.94 291.01 367.64 291.59 366.92C297.59 359.55 304.09 352.59 310.99 346.05C314.44 342.78 317.99 339.61 321.62 336.54C323.33 335.09 325.06 333.67 326.81 332.27C327.82 331.46 330.85 328.88 326.89 332.16C327.97 331.27 329.13 330.46 330.25 329.63C338.13 323.79 346.32 318.37 354.74 313.35C363.16 308.33 372.34 302.32 381.66 299.35C376.66 300.94 383.15 298.78 384.54 298.25C387.04 297.3 389.55 296.42 392.09 295.59C397.16 293.94 402.32 292.56 407.55 291.49C409.76 291.04 411.97 290.69 414.19 290.31C417.52 289.74 408.36 290.83 413.5 290.43C414.51 290.35 415.52 290.23 416.52 290.14C421.04 289.77 425.59 289.65 430.12 289.76C434.15 289.86 438.14 290.21 442.15 290.61C446.16 291.01 441.14 290.56 440.65 290.4C441.53 290.68 442.69 290.72 443.63 290.88C446.11 291.31 448.58 291.8 451.03 292.36C455.21 293.32 459.35 294.46 463.44 295.77C465.37 296.39 467.28 297.05 469.19 297.75C470.14 298.1 471.09 298.46 472.04 298.83C472.75 299.1 473.46 299.38 474.16 299.67C471.37 298.47 470.75 298.21 472.3 298.88C480.47 302.56 488.38 306.67 495.93 311.52C499.39 313.74 502.74 316.11 506.05 318.54C509.36 320.97 505.51 318.26 505.16 317.84C505.72 318.52 506.85 319.19 507.56 319.77C509.55 321.4 511.5 323.07 513.42 324.79C519.93 330.61 526 336.91 531.57 343.64C532.39 344.63 533.17 345.63 533.98 346.63C535.91 348.99 531.5 343.24 533.27 345.72C534.5 347.44 535.77 349.13 536.98 350.87C540 355.22 542.84 359.7 545.5 364.27C547.73 368.11 549.84 372.03 551.82 376.01C552.81 378 553.77 380 554.7 382.02C555.16 383.03 555.61 384.05 556.07 385.06C558.43 390.24 554.29 380.53 556.4 385.82C563.54 403.77 568.61 422.39 571.69 441.46C571.93 442.92 573.36 450.85 572.22 444.66C572.62 446.86 572.78 449.14 573.02 451.37C573.56 456.41 573.98 461.46 574.29 466.52C574.87 476.06 575.03 485.63 574.81 495.19C574.71 499.72 574.54 504.26 574.23 508.78C574.07 511.09 573.88 513.4 573.65 515.7C573.55 516.73 573.42 517.75 573.31 518.78C572.83 523.07 573.9 515.3 573.38 518.17C572.6 522.47 571.88 526.76 570.78 531C570.27 532.97 569.71 534.92 569.08 536.85C568.77 537.81 568.45 538.77 568.1 539.71C567.85 540.42 567.58 541.13 567.31 541.83C566.69 543.41 566.97 542.77 568.15 539.92C568.45 540.82 566.02 544.38 565.53 545.28C564.59 547.02 563.58 548.73 562.49 550.38C562.54 550.3 561.01 552.81 560.8 552.82C560.99 552.82 563.88 549.27 561.56 551.77C559.84 553.62 558.19 555.45 556.34 557.17C547.71 565.22 547.6 580.96 556.34 588.99C565.58 597.47 578.96 597.58 588.16 588.99C620.04 559.24 621.56 509.63 619.42 469.05C617.12 425.25 607.03 381.34 585.18 342.99C565.12 307.78 534.23 277.68 497.1 260.93C456.89 242.79 412.46 239.22 370.9 255.47C329.34 271.72 291.47 297.88 262.98 331.21C235.5 363.36 217.17 402.15 208.35 443.46C199.53 484.77 198.78 525.54 203.98 566.38C209.39 608.81 218.88 653.71 255.75 680.22C273.69 693.12 296.1 697.86 317.75 699.41C338.15 700.87 359.44 699.85 379.65 696.77C391.84 694.92 403.24 689.87 412.56 681.75C417.1 677.79 420.71 672.76 424.13 667.83C425.32 666.12 426.44 664.36 427.59 662.62C428.16 661.75 428.73 660.87 429.32 660.01C429.9 659.15 430.5 658.29 431.11 657.45L429.48 659.52C429.79 658.14 432.86 655.72 433.91 654.73C434.28 654.38 436.54 652.77 436.53 652.42C436.54 652.77 431.97 655.58 435.3 653.45C437.05 652.33 438.78 651.22 440.62 650.25C441.44 649.82 442.28 649.45 443.1 649.02C444.97 648.04 438.06 650.91 442.88 649.16C446.67 647.78 450.57 646.74 454.52 645.94C455.7 645.7 456.89 645.49 458.09 645.3C462.13 644.64 458.63 646.36 457.18 645.39C458.24 646.09 463.04 644.83 464.53 644.73C473.37 644.16 482.23 644.35 491.08 644.69C502.85 645.15 514.11 634.01 513.58 622.19C513.02 609.61 503.69 600.18 491.08 599.69L491.1 599.73Z" fill="#010101"/>
<path d="M582.46 262.76C592.35 276.39 601.44 290.57 609.6 305.3C613.68 312.66 617.53 320.15 621.14 327.75C622.95 331.55 624.69 335.38 626.38 339.23C626.86 340.32 629.14 345.33 626.95 340.49C627.94 342.68 628.78 344.95 629.66 347.17C633.85 357.7 642.44 364.89 654.35 363.29C666.26 361.69 672.58 352.5 673.86 341.19C673.97 340.15 674.09 339.12 674.23 338.08C673.76 341.47 673.71 341.92 674.07 339.41C674.42 337.35 674.73 335.29 675.11 333.24C675.78 329.65 676.55 326.08 677.42 322.54C679.29 314.94 681.63 307.46 684.4 300.14C685.13 298.22 685.77 296.14 686.71 294.32C683.91 299.71 686.45 295.02 686.94 293.95C688.66 290.15 690.51 286.4 692.47 282.71C696.03 276.03 699.96 269.55 704.26 263.32C705.3 261.82 706.35 260.33 707.43 258.85C708.05 258.01 708.67 257.17 709.3 256.34C707.36 258.82 707.15 259.1 708.66 257.18C710.97 254.35 713.28 251.53 715.71 248.8C720.91 242.96 726.47 237.43 732.35 232.26C733.92 230.88 735.51 229.53 737.12 228.21C737.86 227.6 742.13 224.12 737.58 227.76C741.12 224.92 744.88 222.34 748.52 219.64C756.41 213.78 764.33 207.84 771.13 200.71C784.54 186.65 774.98 162.47 755.22 162.3C705.24 161.88 655.08 167.93 606.59 180.05C595.17 182.9 587.2 196.36 590.88 207.73C594.56 219.1 606.32 226.5 618.56 223.44C630.05 220.57 641.62 218.02 653.27 215.87C658.94 214.82 664.62 213.86 670.31 212.98C673.14 212.54 676.01 212.02 678.86 211.73C673.89 212.22 678.5 211.79 679.54 211.66C681.13 211.46 682.72 211.27 684.31 211.08C707.85 208.32 731.53 207.1 755.23 207.3L739.32 168.89C736.19 172.17 732.86 175.21 729.35 178.07C728.47 178.78 727.59 179.49 726.69 180.19C729 178.41 729.17 178.26 727.18 179.77C725.34 181.11 723.53 182.47 721.7 183.82C714.05 189.45 706.45 195.16 699.36 201.49C686.08 213.35 674.51 227.19 664.53 241.91C644.43 271.57 632.87 305.75 628.86 341.19C643.59 339.2 658.32 337.2 673.06 335.21C659.61 301.45 642.69 269.48 621.32 240.04C614.42 230.54 601.45 224.93 590.54 231.97C581.13 238.04 575.07 252.57 582.47 262.75L582.46 262.76Z" fill="#010101"/>
<path d="M385.18 225.7C394.6 222.56 404.18 219.95 413.9 217.95C418.46 217.02 423.05 216.3 427.64 215.55C431.02 215 423.79 215.96 427.19 215.61C428.12 215.52 429.04 215.39 429.96 215.29C432.73 214.98 435.51 214.73 438.3 214.52C448.2 213.77 458.13 213.62 468.05 214.09C472.7 214.31 477.34 214.66 481.96 215.14C483.43 215.29 490.59 216.12 485.21 215.49C488.46 215.87 491.51 216.52 494.75 216.31C505.51 215.6 516.25 208.6 518.78 197.51C520.48 190.05 518.74 183.41 516.47 176.39C513.46 167.09 510.69 157.71 508.17 148.27C503.05 129.08 498.94 109.61 495.88 89.9898C495.44 87.1898 495.06 84.3698 494.63 81.5698C494.11 78.1498 495.1 85.3598 494.67 81.9298C494.47 80.3698 494.27 78.7998 494.08 77.2398C493.39 71.6098 492.79 65.9598 492.28 60.3098C491.25 48.9998 490.58 37.6698 490.22 26.3198C489.92 16.7798 483.48 6.84984 473.7 4.61984C463.92 2.38984 453.48 6.07984 448.29 14.9598C423.87 56.7198 401.35 99.5698 380.78 143.36C375.79 153.99 377.45 168.12 388.85 174.14C398.83 179.41 414.29 177.44 419.63 166.07C440.19 122.28 462.72 79.4398 487.14 37.6698C473.16 33.8798 459.19 30.0998 445.21 26.3098C446.15 56.0498 449.4 85.7298 454.67 115.01C457.13 128.66 460.1 142.23 463.56 155.66C465.29 162.38 467.15 169.06 469.13 175.71C470.21 179.34 471.33 182.95 472.48 186.56C473.06 188.36 473.66 190.16 474.24 191.96L474.84 193.75C475.51 196.13 475.42 195.4 474.57 191.54L477.64 180.18L479.85 177.49L489.78 171.7C490.36 171.47 495.57 171.68 492.36 171.44L495.31 171.85L489.33 171.05C486.87 170.72 484.41 170.42 481.94 170.16C477.01 169.64 472.06 169.27 467.1 169.06C456.88 168.62 446.62 168.83 436.43 169.68C414.93 171.47 393.67 175.49 373.19 182.32C362.05 186.03 353.6 198.01 357.48 210C361.07 221.1 373.2 229.7 385.16 225.71L385.18 225.7Z" fill="#010101"/>
<path d="M260.23 184.74C257.67 183.8 255.12 182.84 252.59 181.83C251.66 181.45 250.55 180.77 249.56 180.59C252.01 181.03 252.5 181.85 249.68 180.59C245.2 178.59 240.78 176.46 236.43 174.19C227.25 169.4 218.38 164.03 209.88 158.11C207.87 156.71 205.88 155.28 203.91 153.82C203.53 153.54 201.71 151.78 201.3 151.85C203.48 153.54 203.92 153.88 202.63 152.86C202.2 152.52 201.77 152.18 201.35 151.84C197.31 148.6 193.37 145.24 189.55 141.75C181.9 134.76 174.74 127.28 168.03 119.39C161.87 112.14 148.62 110.81 140.76 115.87C131.6 121.77 128.94 130.9 130.42 141.28C134.48 169.73 138.55 198.18 142.61 226.63C146.67 255.08 149.45 281.64 157.71 308.03C162.43 323.1 183.74 331.39 195.32 317.96C218.77 290.76 244.1 265.26 271.14 241.63C280.03 233.86 279.68 217.65 271.14 209.81C261.66 201.11 248.81 201.52 239.32 209.81C212.28 233.44 186.95 258.94 163.5 286.14L201.11 296.07C192.85 269.68 189.9 241.95 186.01 214.67C182.12 187.39 177.88 157.77 173.82 129.32C161.28 136.62 148.75 143.91 136.21 151.21C166.04 186.31 205.12 212.36 248.26 228.13C259.33 232.18 273.39 223.6 275.94 212.42C278.83 199.72 272.08 189.08 260.23 184.74Z" fill="#010101"/>
<path d="M167.98 360.73C163.36 361.78 158.72 362.72 154.05 363.51C151.56 363.94 149.07 364.29 146.58 364.68C143.94 365.09 147.64 364.56 147.88 364.51C146.07 364.88 144.08 364.98 142.25 365.18C132.52 366.26 122.74 366.94 112.96 367.44C93.01 368.46 73.03 368.71 53.09 370.04C42.36 370.75 30.9 371.13 20.4 373.52C0.950003 377.96 -4.77 400.1 4.02 416.13C8.86 424.97 15.88 433.06 21.73 441.26C27.58 449.46 33.61 457.89 39.55 466.21C53.16 485.25 66.77 504.3 80.37 523.34C88.78 535.11 104.56 538.71 115.71 527.89C144.71 499.77 156.1 458.21 170.02 421.49C174.2 410.46 165.39 396.34 154.31 393.81C141.49 390.89 131.11 397.72 126.63 409.52C123.18 418.61 119.74 427.7 116.29 436.79C114.66 441.1 113.03 445.41 111.36 449.7C110.55 451.77 109.74 453.83 108.9 455.88C108.48 456.91 108.06 457.93 107.63 458.96C108.72 456.4 108.93 455.88 108.27 457.41C104.86 464.95 101.38 472.41 97.06 479.49C96.07 481.12 95.04 482.73 93.97 484.32C93.31 485.3 89.35 491.51 92.68 486.36C90.37 489.93 86.91 493.11 83.88 496.05C95.66 497.57 107.44 499.09 119.22 500.6C106 482.09 92.77 463.58 79.55 445.08C73.03 435.96 66.52 426.84 60 417.72C56.74 413.16 53.48 408.6 50.23 404.04C48.7 401.89 47.15 399.75 45.63 397.6C44.86 396.51 44.11 395.11 43.25 394.07C42.65 392.98 42.71 393.18 43.43 394.67C45.51 398.79 45.26 403.27 42.69 408.12L34.62 416.19C37.29 414.14 32.62 416.57 31.72 416.91C28.49 418.11 33.2 416.76 34.16 416.66C37.31 416.32 40.46 416.01 43.61 415.74C49.92 415.2 56.25 414.8 62.57 414.47C75.24 413.81 87.93 413.47 100.6 412.98C127.19 411.94 153.92 410 179.94 404.1C191.43 401.49 199.28 387.62 195.65 376.42C191.75 364.38 180.28 357.91 167.97 360.71L167.98 360.73Z" fill="#010101"/>
<path d="M80.7502 648.41C101.37 684.7 130.6 715.57 165.23 738.79C173.51 744.34 182.13 749.38 191.03 753.86C192.9 754.8 194.79 755.72 196.69 756.61C197.64 757.06 198.61 757.47 199.55 757.93L200.68 758.46C202.24 759.39 202.19 759.24 200.53 758.03L199.26 757C192.62 744.49 193.42 735.62 201.66 730.38C201.39 730.36 199.54 731.58 199.46 731.62C196.77 733.07 194.02 734.4 191.32 735.83C171.36 746.43 152.21 758.56 134.11 772.09C112.11 788.53 90.8902 805.48 81.1202 832.09H124.51C123.32 826.92 124.31 835.64 124.19 830.8C124.14 828.95 124.08 827.14 124.18 825.29C124.22 824.37 124.3 823.45 124.4 822.53C124.58 820.84 124.51 821.3 124.2 823.9C123.98 822.61 124.99 819.64 125.26 818.37C126.77 811.31 128.73 804.37 130.23 797.31C133.58 781.56 135.75 765.46 136.73 749.39C138.62 718.62 135.47 687.4 128.19 657.47C125.41 646.03 111.83 638.09 100.51 641.76C88.6202 645.61 81.8102 657.18 84.8002 669.44C86.5802 676.76 88.1102 684.13 89.3302 691.57C89.6302 693.42 90.0402 695.29 90.1902 697.15C89.8702 693.12 90.1202 696.61 90.3502 698.64C90.7502 702.07 91.0802 705.51 91.3602 708.95C92.5302 723.65 92.5702 738.45 91.4802 753.16C91.2002 756.92 90.8502 760.67 90.4202 764.41C90.3502 765.04 89.6902 770.28 90.1202 767.02C90.5502 763.76 89.6802 769.89 89.5802 770.55C88.4602 777.68 87.0602 784.77 85.4002 791.79C81.2602 809.26 77.0002 826.12 81.1302 844.07C83.2502 853.29 93.3202 861.01 102.83 860.59C113.35 860.12 120.96 853.79 124.53 844.07C126.34 839.14 122.76 847.24 124.38 844.32C125.01 843.17 125.55 841.97 126.19 840.82C127.36 838.75 128.74 836.84 130.03 834.86C131.82 832.11 126.42 838.88 129.93 835.04C130.65 834.26 131.31 833.43 132.03 832.64C133.82 830.66 135.7 828.75 137.64 826.91C141.33 823.4 145.22 820.11 149.19 816.92C150.17 816.13 156.44 811.08 152.47 814.28C155.08 812.17 157.83 810.22 160.54 808.24C179.28 794.54 199.1 782.32 219.76 771.74C226.1 768.49 232.49 764.3 235.86 757.74C241.36 747.04 239.98 734.41 231.51 725.64C227.15 721.13 222.05 719.05 216.61 716.4C211.89 714.11 207.25 711.65 202.7 709.05C194.02 704.09 185.8 698.51 177.72 692.65C176.69 691.9 174.8 689.93 178.52 693.3C177.76 692.61 176.86 692 176.05 691.35C174 689.71 171.98 688.04 169.98 686.34C165.99 682.93 162.11 679.4 158.34 675.75C154.39 671.91 150.56 667.94 146.88 663.85C143.2 659.76 139.01 655.74 136.25 651.2C138.99 655.7 137.31 652.57 136.42 651.38C135.48 650.12 134.55 648.85 133.63 647.57C131.95 645.23 130.31 642.85 128.71 640.45C125.51 635.64 122.51 630.71 119.66 625.69C113.84 615.45 99.0002 611.09 88.8802 617.62C78.7602 624.15 74.5802 637.45 80.8102 648.4L80.7502 648.41Z" fill="#010101"/>
<path d="M354.13 774.79C368.7 778.69 383.25 775.87 397.12 770.8C409.72 766.2 422.27 761.46 434.85 756.79C459.82 747.52 484.78 738.24 509.75 728.97C501.28 717.95 492.81 706.94 484.34 695.92C465.13 729.12 454.15 765.11 449.27 803C444.49 840.11 443.93 877.87 441.96 915.21L480.37 899.3C479.01 898.11 477.7 896.88 476.46 895.56C475.93 895 475.42 894.43 474.92 893.84C473.38 891.96 473.61 892.26 475.6 894.75C473.87 894.23 471.62 888.54 470.68 886.85C467.4 880.89 464.73 874.61 461.88 868.43C455.75 855.12 448.75 842.22 440.91 829.84C424.54 803.98 404.83 780.04 382.41 759.2C373.79 751.18 359.02 750.02 350.59 759.2C342.16 768.38 341.38 782.46 350.59 791.02C361.32 801 371.42 811.63 380.77 822.93C381.85 824.23 382.92 825.54 383.97 826.86C384.35 827.33 388.36 832.54 386.38 829.9C384.4 827.26 388.34 832.54 388.69 833.02C389.69 834.38 390.69 835.75 391.67 837.12C395.93 843.08 399.99 849.18 403.84 855.41C411.51 867.81 418.28 880.71 424.31 893.98C430.34 907.25 437.12 921.13 448.53 931.12C455.47 937.2 464.35 939.47 473.11 935.77C481.87 932.07 486.46 924.34 486.94 915.21C488.84 879.13 489.47 842.69 493.77 806.79C493.88 805.84 494 804.89 494.12 803.95C493.73 806.78 493.72 806.88 494.09 804.26C494.38 802.37 494.65 800.48 494.96 798.6C495.68 794.2 496.5 789.82 497.44 785.46C499.21 777.21 501.42 769.05 504.03 761.03C505.34 757.02 506.75 753.04 508.26 749.1C508.91 747.41 509.59 745.74 510.26 744.06C511.23 741.71 511.18 741.83 510.1 744.44C510.58 743.33 511.07 742.23 511.57 741.13C515.05 733.44 518.95 725.95 523.18 718.64C527.74 710.76 526.92 700.77 521.42 693.65C516.31 687.04 506.14 682.48 497.77 685.59C474.04 694.41 450.3 703.22 426.57 712.04C414.86 716.39 403.15 720.74 391.43 725.09C385.97 727.12 380.52 729.28 374.89 730.78C373.46 731.16 371.96 731.38 370.54 731.79C367.71 732.6 375.68 731.75 370.42 731.77C370.15 731.77 366.95 731.85 366.95 731.77C369.77 732.28 370.33 732.37 368.63 732.04C367.77 731.89 366.91 731.68 366.07 731.41C354.71 728.37 341.1 735.22 338.39 747.12C335.68 759.02 341.94 771.54 354.1 774.8L354.13 774.79Z" fill="#010101"/>
<path d="M656.29 493.74C657.87 508.84 658.57 524.02 658.27 539.2C658.12 547.09 657.71 554.98 657.04 562.84C656.73 566.47 656.37 570.1 655.95 573.71C655.74 575.51 655.58 577.34 655.29 579.13C656.23 573.33 655.13 580.08 654.94 581.26C652.65 596.27 649.42 611.13 645.28 625.73C643.21 633.03 640.91 640.27 638.39 647.42C637.18 650.86 635.91 654.27 634.6 657.67C633.94 659.37 633.27 661.06 632.59 662.75C632.13 663.88 631.67 665 631.21 666.12C632.3 663.54 632.34 663.43 631.34 665.77C627.46 674.76 626.94 685.76 634.86 693.04C641.71 699.33 653.94 702.56 662.13 696.56C671.91 689.39 681.72 682.22 691.99 675.75C696.85 672.69 701.82 669.78 706.92 667.13C709.46 665.81 712.05 664.6 714.63 663.37C719.84 660.89 710.16 665 715.56 662.96C716.89 662.45 718.22 661.93 719.57 661.45C725.07 659.48 730.69 657.94 736.41 656.78C739.67 656.13 742.94 655.61 746.22 655.1C750.64 654.42 743.67 655.4 746.53 655.05C748.03 654.87 749.53 654.67 751.03 654.48C764.95 652.73 779.02 651.24 792.38 646.72C804.99 642.46 814.74 626.23 805.83 613.67C774.74 569.86 743.65 526.05 712.55 482.24C705.75 472.66 692.6 467.18 681.77 474.17C672.27 480.3 666.41 494.69 673.7 504.95C704.79 548.76 735.88 592.57 766.98 636.38C771.46 625.36 775.94 614.35 780.43 603.33C774.15 605.45 767.73 606.94 761.2 608.04C759.72 608.29 758.23 608.52 756.74 608.74C755.6 608.91 751.19 609.7 756.44 608.8C753.47 609.31 750.43 609.55 747.44 609.94C733.35 611.75 719.39 613.65 706.01 618.65C681.49 627.8 660.39 642.32 639.43 657.69C649.69 667.95 659.95 678.21 670.21 688.47C696.67 627.23 708.3 560.25 701.31 493.71C700.67 487.58 699.23 482.31 694.72 477.8C690.82 473.9 684.41 470.96 678.81 471.21C667.67 471.71 654.99 481.17 656.31 493.71L656.29 493.74Z" fill="#010101"/>
</g>
<defs>
<clipPath id="clip0_245_316">
<rect width="809.26" height="937.56" fill="white"/>
</clipPath>
</defs>
</svg>
