<svg width="1206" height="505" viewBox="0 0 1206 505" fill="none" xmlns="http://www.w3.org/2000/svg">
<path d="M15.7107 2528L126.491 2524.2C130.791 2460.18 177.941 2414.47 236.09 2411.1C295.708 2407.64 346.763 2447.63 356.723 2509.37C358.085 2517.9 365.035 2526.63 373.849 2526.42L486.242 2523.85C491.545 2475.55 511.197 2439.6 555.247 2418.97C588.227 2403.55 632.582 2405.44 669.611 2428.6C725.7 2463.71 704.507 2525.65 735.248 2524.84L847.032 2521.95C850.937 2463.23 886.747 2420.5 940.114 2409.81C988.911 2400.06 1045.18 2421.48 1066.52 2470.56C1073.63 2486.93 1076.87 2502.28 1083.41 2522.2L1202.61 2520.93C1204.62 2499.22 1206.1 2482.43 1205.99 2463.55L1205.24 2319.78L1205.51 2201.5L1205.31 2044.3L1205.19 1750.77L1205.12 1606.51L1205.06 1462.59V1318.57L1205.22 1187.31L1205.05 1034.02L1205.15 893.022L1205.1 749.195L1205.05 608.488L1205.17 467.638L1205.03 317.284L1205.17 179.554L1204.78 32.8579C1204.78 24.8247 1205.21 4.8492 1197.93 2.8409C1155.96 1.6933 1120.45 -3.09436 1079.95 3.1278C1074.54 68.1646 1024.22 119.072 960.822 117.099C897.048 115.127 850.077 72.1812 847.605 4.2754L736.305 1.15536C729.426 0.976044 717.37 9.63686 716.617 16.7735C709.971 78.6902 656.82 121.205 597.757 118.892C536.742 116.507 490.9 70.9798 486.206 6.14026L375.264 3.39677C342.464 2.58986 370.051 85.02 278.295 114.983C246.14 125.491 203.038 122.981 173.785 97.7691C103.938 37.5917 145.731 5.67404 107.932 5.88922L0.501624 6.53474L0.143342 118.605V260.585L2.93468e-05 398.262L0.250827 535.615L0.143342 682.742L0.232912 836.502L0.358311 986.82L0.161256 1114.72L0.412053 1274.83L0.232912 1405.87L0.161256 1543.44L0.250827 1693.83L0.197084 1831.42L0.143342 1975.32L0.322483 2125.64L0.250827 2263.22L0.214998 2397.44L2.93468e-05 2507.09C-0.0178847 2514.58 8.16885 2528.25 15.6928 2528H15.7107ZM1049.48 433.371C1073.56 430.036 1096.52 430.215 1120.88 432.385C1138.35 433.945 1141.9 474.774 1123.45 479.813C1102.36 485.569 1074.16 485.013 1049.6 480.907C1030.94 477.769 1035.08 435.344 1049.5 433.371H1049.48ZM851.439 434.339C877.253 432.026 903.443 430.377 928.702 434.68C944.879 437.442 945.219 477.805 929.49 481.23C904.912 486.591 877.826 485.623 851.546 481.642C842.84 470.632 841.855 443.807 851.457 434.339H851.439ZM658.092 435.648C684.444 432.564 712.426 432.6 740.927 434.537C751.012 444.991 750.224 471.296 741.267 482.449C716.17 486.25 689.424 487.488 664.434 483.328C645.785 480.226 647.523 446.551 658.11 435.648H658.092ZM463.599 437.298C488.876 433.568 518.093 433.389 546.021 435.828C556.179 446.228 556.68 473.86 546.953 484.852C522.232 486.806 496.668 488.097 471.069 484.96C452.868 482.736 455.358 448.684 463.599 437.28V437.298ZM273.853 438.751C297.231 434.644 326.789 432.869 349.271 437.764C368.314 441.924 362.581 475.886 351.277 486.161C324.299 488.062 297.643 490.249 271.273 482.844C259.217 479.455 259.844 441.207 273.853 438.751ZM77.8726 438.284C104.027 436.455 129.895 434.806 154.885 438.464C170.847 440.777 172.083 482.79 155.709 485.964C132.081 490.572 104.493 487.129 77.4426 486.107C68.1273 474.416 68.7006 449.527 77.8726 438.284Z" fill="#008D47"/>
</svg>
